STARTFONT 2.1
COMMENT
COMMENT Converted from OpenType font "Q:\font stuff\winfont\MonsieurLaDoulaise-Regular.ttf" by "otf2bdf 3.0".
COMMENT
FONT -FreeType-Monsieur La Doulaise-Medium-R-Normal--84-840-72-72-P-591-ISO10646-1
SIZE 84 72 72
FONTBOUNDINGBOX 217 132 -47 -44
STARTPROPERTIES 19
FOUNDRY "FreeType"
FAMILY_NAME "Monsieur La Doulaise"
WEIGHT_NAME "Medium"
SLANT "R"
SETWIDTH_NAME "Normal"
ADD_STYLE_NAME ""
PIXEL_SIZE 84
POINT_SIZE 840
RESOLUTION_X 72
RESOLUTION_Y 72
SPACING "P"
AVERAGE_WIDTH 591
CHARSET_REGISTRY "ISO10646"
CHARSET_ENCODING "1"
FONT_ASCENT 88
FONT_DESCENT 43
COPYRIGHT "Copyright (c) 2006 Alejandro Paul (sudtipos@sudtipos.com),  with Reserved Font Name "MonsieurLaDoulaise""
_OTF_FONTFILE "Q:\font stuff\winfont\MonsieurLaDoulaise-Regular.ttf"
_OTF_PSNAME "MonsieurLaDoulaise-Regular"
ENDPROPERTIES
CHARS 231
STARTCHAR 0020
ENCODING 32
SWIDTH 154 0
DWIDTH 13 0
BBX 0 0 0 0
BITMAP
ENDCHAR
STARTCHAR 0021
ENCODING 33
SWIDTH 285 0
DWIDTH 24 0
BBX 37 49 2 0
BITMAP
0000000018
0000000018
0000000038
0000000078
0000000070
00000000F0
00000001E0
00000003C0
0000000380
0000000700
0000000F00
0000000E00
0000001C00
0000003800
0000007800
0000007000
000000E000
000001C000
0000018000
0000038000
0000070000
00000E0000
00000C0000
0000180000
0000380000
0000300000
0000600000
0000C00000
0001800000
0001800000
0003000000
0006000000
0004000000
0008000000
0018000000
0030000000
0020000000
0040000000
00C0000000
0080000000
0100000000
0000000000
0000000000
0000000000
1C00000000
7C00000000
7800000000
F000000000
4000000000
ENDCHAR
STARTCHAR 0022
ENCODING 34
SWIDTH 500 0
DWIDTH 42 0
BBX 18 16 32 35
BITMAP
0060C0
00E1C0
00E1C0
01E380
01C780
038700
070E00
061C00
0E1800
1C3000
187000
306000
60C000
408000
C10000
800000
ENDCHAR
STARTCHAR 0023
ENCODING 35
SWIDTH 416 0
DWIDTH 35 0
BBX 29 25 5 5
BITMAP
00008040
00018040
00010080
00030080
00020100
00040300
00040200
00080600
1FFFFFF8
00100C00
00100800
00201800
00601000
00402000
00C02000
7FFFFFC0
FFFFFFC0
01008000
02018000
02010000
04030000
04020000
08060000
08040000
100C0000
ENDCHAR
STARTCHAR 0024
ENCODING 36
SWIDTH 380 0
DWIDTH 32 0
BBX 52 62 -8 -11
BITMAP
00000100000000
00003E00000000
0000C000000010
00030000000020
00040000000040
001800000000C0
00300000000180
00200000000300
00400000000600
00800000000C00
01800000000800
01000000001800
0300000007E600
02000000380180
02000000E00180
06000001C00180
06000003800180
06000007000380
0600000E000700
0600001E000600
0600003C001C00
0600003C003800
0300003800F000
0300007801C000
03800078078000
01C000783E0000
00E0007DF00000
0038007FC00000
001FFFFC000000
0001FFBE000000
0000003E000000
0000001E000000
0000001F000000
0000000F000000
0000000F000000
00000007800000
00000007800000
00000007800000
00000003C00000
00000003C00000
00200003C00000
00FC0003C00000
01C40003C00000
01860003800000
01860003800000
01840007000000
018C0006000000
0188000E000000
01900018000000
01A00030000000
00E00060000000
00E00180000000
00B80E00000000
011FF000000000
02000000000000
04000000000000
0C000000000000
08000000000000
10000000000000
20000000000000
40000000000000
C0000000000000
ENDCHAR
STARTCHAR 0025
ENCODING 37
SWIDTH 666 0
DWIDTH 56 0
BBX 51 53 7 -8
BITMAP
00000000002800
00000003FFD800
0000007C003800
00000780007000
00003800006000
0001C00000C000
00060F8001C000
00181040038000
00603060030000
0081C860070000
030608600E0000
040C08600C0000
08381040180000
107010C0380000
30E020C0700000
21C04180600000
23808180C00000
23030301C00000
260C03038003C0
3E300603000C60
0DC00607000020
1C000C0E00FC20
38001C0C030420
300018180E0460
70003038180860
70006070301060
6000C0606010C0
E00180E0C020C0
E00301C1C0C0C0
C0060183810180
C00C0307060180
E0180706180300
E0700E0FE00600
7FC00C0C000600
3E00181C000C00
00003818001C00
00007038001800
00006030003000
0000E070006000
0001C06000C000
00018060018000
00030060030000
00070060060000
000E00600C0000
000C0070380000
0018007DE00000
0038001F800000
00300000000000
00600000000000
00E00000000000
01C00000000000
01800000000000
03000000000000
ENDCHAR
STARTCHAR 0026
ENCODING 38
SWIDTH 702 0
DWIDTH 59 0
BBX 66 88 9 -17
BITMAP
000000000000001F00
00000000000000E180
0000000000000300C0
0000000000000600C0
0000000000000800C0
0000000000001000C0
000000000000200180
000000000000400180
000000000000800300
000000000001000300
000000000003000600
000000000002001C00
000000000004003800
00000000000C007000
00000000000801C000
000000000010038000
0000000000300F0000
0000000000203C0000
000000000060F00000
000000000043C00000
0000000000C7800000
00000000009E000000
0000000001F8000000
0000000003E0000000
000000000F80000000
000000003F00000000
00000000FA00000000
00000001E600000000
000000078400000000
0000001E0400000000
000000780C00000000
000001E00800000000
000007800800000000
00000E001800000000
000038001000000000
0000F0001000000000
0001C0003000000000
000780003000000000
000E00002000000000
001C00002000000000
007800006000000000
00F000006000000000
01E000004000000000
03C000004000000000
03800000C000000000
07000000C000000000
0E000000C000000000
1C0000008000000000
1C0000009F00000000
38000003F3E0000000
3800000F8078000000
78000031803C000000
700000E1801C000000
F0000181800E000000
F0000301800E000000
F0000601000E000000
F0000C01000E000000
F0001801000E000000
F0001801000E000000
F0003001000E000000
F0002001000C000000
F0006001001C000000
F80040010018000000
7800C0010038000000
7C0080010030000000
7C0080018060000000
3E01800180C0000000
1E0180018180000000
0F0180018300000000
07C100008C00000000
03F10000F800000000
00FF0003C000000000
003FFFFFC000000000
0003FFF06000000000
000180006000000000
000180003000000000
000080003000000000
0000C0001800000000
0000C0000C00000000
000060000700000000
0000200003C0000000
0000300000E0000000
000018000000000000
00000C000000000000
000003000000000000
000001C00000000000
0000003C0180000000
00000003FE00000000
ENDCHAR
STARTCHAR 0027
ENCODING 39
SWIDTH 416 0
DWIDTH 35 0
BBX 11 16 32 35
BITMAP
0060
00E0
00E0
01E0
01C0
0380
0700
0600
0E00
1C00
1800
3000
6000
4000
C000
8000
ENDCHAR
STARTCHAR 0028
ENCODING 40
SWIDTH 250 0
DWIDTH 21 0
BBX 49 82 1 -12
BITMAP
00000000000180
00000000000700
00000000001C00
00000000003000
0000000000E000
00000000038000
00000000070000
000000001C0000
00000000380000
00000000600000
00000001C00000
00000003800000
00000007000000
0000000C000000
00000018000000
00000070000000
000000E0000000
000001C0000000
00000380000000
00000700000000
00000E00000000
00000C00000000
00001800000000
00003800000000
00007000000000
0000E000000000
0001C000000000
0001C000000000
00038000000000
00070000000000
000E0000000000
000E0000000000
001C0000000000
00380000000000
00380000000000
00700000000000
00700000000000
00E00000000000
00E00000000000
01C00000000000
01C00000000000
03800000000000
03800000000000
07000000000000
07000000000000
0E000000000000
0E000000000000
0E000000000000
1C000000000000
1C000000000000
1C000000000000
38000000000000
38000000000000
38000000000000
70000000000000
70000000000000
70000000000000
70000000000000
70000000000000
E0000000000000
E0000000000000
E0000000000000
E0000000000000
E0000000000000
E0000000000000
E0000000000000
E0000000000000
E0000000000000
E0000000000000
E0000000000000
E0000000000000
E0000000000000
E0000000000000
E0000000000000
E0000000000000
60000000000000
60000000000000
60000000000000
60000000000000
60000000000000
20000000000000
30000000000000
ENDCHAR
STARTCHAR 0029
ENCODING 41
SWIDTH 416 0
DWIDTH 35 0
BBX 49 82 -7 -12
BITMAP
00000000000600
00000000000600
00000000000600
00000000000600
00000000000300
00000000000300
00000000000300
00000000000300
00000000000300
00000000000300
00000000000380
00000000000380
00000000000380
00000000000380
00000000000380
00000000000380
00000000000380
00000000000380
00000000000380
00000000000380
00000000000780
00000000000700
00000000000700
00000000000700
00000000000700
00000000000700
00000000000F00
00000000000E00
00000000000E00
00000000000E00
00000000001E00
00000000001C00
00000000001C00
00000000001C00
00000000003800
00000000003800
00000000007000
00000000007000
00000000007000
0000000000E000
0000000000E000
0000000001C000
0000000001C000
00000000038000
00000000038000
00000000070000
00000000070000
000000000E0000
000000001C0000
000000001C0000
00000000380000
00000000380000
00000000700000
00000000E00000
00000001C00000
00000001C00000
00000003800000
00000007000000
0000000E000000
0000001C000000
00000018000000
00000030000000
00000070000000
000000E0000000
000001C0000000
00000380000000
00000700000000
00000C00000000
00001800000000
00003000000000
0000E000000000
0001C000000000
00038000000000
00060000000000
001C0000000000
00300000000000
00E00000000000
01800000000000
07000000000000
1C000000000000
30000000000000
C0000000000000
ENDCHAR
STARTCHAR 002A
ENCODING 42
SWIDTH 285 0
DWIDTH 24 0
BBX 23 23 0 26
BITMAP
004000
004000
004008
006010
002020
003040
003180
803380
7E3F00
07FE00
01FC00
003F80
007FF0
00FC1E
018C00
030C00
060C00
0C0400
080400
000600
000200
000200
000200
ENDCHAR
STARTCHAR 002B
ENCODING 43
SWIDTH 416 0
DWIDTH 35 0
BBX 27 25 6 5
BITMAP
00003000
00002000
00006000
00004000
00004000
0000C000
00008000
00018000
00010000
00010000
00030000
7FFFFFE0
FFFFFFC0
00040000
00040000
000C0000
00080000
00180000
00100000
00100000
00300000
00200000
00600000
00400000
00400000
ENDCHAR
STARTCHAR 002C
ENCODING 44
SWIDTH 190 0
DWIDTH 16 0
BBX 13 14 -5 -6
BITMAP
0078
00F8
00F8
00F0
0070
0060
00C0
0080
0100
0200
0400
1800
6000
8000
ENDCHAR
STARTCHAR 002D
ENCODING 45
SWIDTH 392 0
DWIDTH 33 0
BBX 27 5 4 4
BITMAP
00E00000
0FFF0020
303FE060
C007FFC0
0000FE00
ENDCHAR
STARTCHAR 002E
ENCODING 46
SWIDTH 166 0
DWIDTH 14 0
BBX 5 5 1 0
BITMAP
38
78
F0
E0
80
ENDCHAR
STARTCHAR 002F
ENCODING 47
SWIDTH 190 0
DWIDTH 16 0
BBX 56 84 -9 -10
BITMAP
00000000000007
0000000000000E
0000000000000C
0000000000001C
00000000000038
00000000000030
00000000000070
00000000000060
000000000000C0
000000000001C0
00000000000180
00000000000300
00000000000700
00000000000600
00000000000E00
00000000001C00
00000000001800
00000000003800
00000000007000
00000000006000
0000000000E000
0000000000C000
00000000018000
00000000038000
00000000030000
00000000060000
000000000E0000
000000000C0000
000000001C0000
00000000380000
00000000300000
00000000700000
00000000E00000
00000000C00000
00000001C00000
00000001800000
00000003000000
00000007000000
00000006000000
0000000C000000
0000001C000000
00000018000000
00000030000000
00000070000000
00000060000000
000000E0000000
000001C0000000
00000180000000
00000380000000
00000300000000
00000600000000
00000E00000000
00000C00000000
00001800000000
00003800000000
00003000000000
00006000000000
0000E000000000
0000C000000000
0001C000000000
00038000000000
00030000000000
00070000000000
00060000000000
000C0000000000
001C0000000000
00180000000000
00300000000000
00700000000000
00600000000000
00C00000000000
01C00000000000
01800000000000
03000000000000
07000000000000
06000000000000
0E000000000000
0C000000000000
18000000000000
38000000000000
30000000000000
60000000000000
E0000000000000
C0000000000000
ENDCHAR
STARTCHAR 0030
ENCODING 48
SWIDTH 428 0
DWIDTH 36 0
BBX 42 46 2 -3
BITMAP
000018000000
0000F000FF00
000300030180
000C00000180
0018000601C0
0020007981C0
004001C081C0
0080070081C0
01001C0081C0
0200380081C0
060070010380
0400E0020380
0801C0020380
180380040780
100700080700
300E00100700
301C00200E00
303800C00E00
307001001C00
30F006001C00
30E018003800
19C060003800
0FCF80007000
03F000007000
07000000E000
0F000001C000
0E000001C000
1C0000038000
1C0000070000
380000070000
3800000E0000
3800001C0000
700000380000
700000700000
600000600000
600000C00000
E00001800000
E00003000000
E00006000000
E0000C000000
E00038000000
E00070000000
6000C0000000
700300000000
381C00000000
0FF000000000
ENDCHAR
STARTCHAR 0031
ENCODING 49
SWIDTH 202 0
DWIDTH 17 0
BBX 40 48 -4 -1
BITMAP
0000000006
000000001F
000000001A
0000000036
0000000064
00000000C8
00000001D0
00000001A0
0000000360
0000000680
0000000F00
0000000E00
0000001C00
0000003800
0000007000
000000E000
000003C000
0000078000
00001F8000
0000730000
0001C60000
000F0C0000
00FC1C0000
0040180000
0000300000
0000700000
0000E00000
0001C00000
0001800000
0003800000
0007000000
000E000000
000C000000
001C000000
0038000000
0070000000
0070000000
00E0000000
01C0000000
03C0000000
0780000000
0700000000
0E00000000
1E00000000
3C00000000
7800000000
7800000000
F000000000
ENDCHAR
STARTCHAR 0032
ENCODING 50
SWIDTH 500 0
DWIDTH 42 0
BBX 52 58 -10 -11
BITMAP
00000007800000
00000000700000
00000000080000
00000000060000
00000000031C00
0000000003E3C0
000000001C80E0
00000000208070
00000000C0C070
0000000100C070
0000000200C070
0000000400C070
0000000800C070
0000001800C0F0
0000001000C0E0
000000300181E0
000000200181C0
000000200303C0
00000020060780
000000101C0700
0000000CF00E00
00000003001E00
00000000003C00
00000000007800
00000000007000
0000000000E000
0000000001C000
00000000038000
00000000070000
000000000E0000
000000001C0000
00000000380000
00000000700000
00000001E00000
00000003C00000
00000007000000
0000000E000000
0000001C000000
00000070000000
00FE00E0038000
0703E380FC7000
18007F03001800
30001F0C001800
600073F0001800
4000C0F8003000
C007007F806000
601C0083FFC000
3FE00080000000
00000100000000
00000100000000
00000100000000
00000100000000
00000100000000
00000080000000
00000040000000
00000020000000
00000018020000
00000007FC0000
ENDCHAR
STARTCHAR 0033
ENCODING 51
SWIDTH 357 0
DWIDTH 30 0
BBX 42 51 -5 -1
BITMAP
000007F00000
0000000C0000
000000020000
000000010000
000000018000
000000008000
00000000C000
0000003FF000
000001C0CE00
000006008700
000018008380
000030018180
0000600101C0
0000C00301C0
0000C0060180
000180040380
000180180380
000180200700
000180400E00
0000C1800E00
00007E001C00
000000003800
000000007000
00000000E000
00001FF98000
0000601F0000
0000800F0000
0000803B8000
0000C1C18000
00003E01C000
00000001C000
000000018000
000000038000
000000038000
000000070000
000000070000
0000000E0000
0000001C0000
000000180000
000000300000
000000600000
000000C00000
000003800000
000007000000
38000C000000
700038000000
E000E0000000
C00380000000
C01E00000000
C1F000000000
7E0000000000
ENDCHAR
STARTCHAR 0034
ENCODING 52
SWIDTH 404 0
DWIDTH 34 0
BBX 37 52 -1 -2
BITMAP
0000000020
0000000020
0000000040
0000000040
0000000040
0000000080
0000000080
0000000100
0000000100
0000000200
0000000600
0000000400
0000000C00
0000001800
0000001000
0000003000
0000006000
000000C030
0000018030
0000018060
00000300C0
0000060180
00000C0300
0000180300
0000300600
0000600C00
0000C01800
0003803800
0007003000
000E006000
001C00C000
003801C000
0070018000
01E0030000
03C00701F8
07800E0610
1F001C0830
3C00181040
7800382380
F800707C00
7FFFFFE000
1FFFFCC000
0001C08000
0003808000
0007008000
000F00C100
001E007E00
001C000000
003C000000
0078000000
00F0000000
00E0000000
ENDCHAR
STARTCHAR 0035
ENCODING 53
SWIDTH 357 0
DWIDTH 30 0
BBX 47 48 -5 -1
BITMAP
000000000002
000000000004
00000000000C
000000180018
0000001E0030
0000003FE3E0
0000003FFFC0
0000007FFF00
00000040F000
000000C00000
000001800000
000001000000
000003000000
000002000000
000004000000
00000C000000
000008000000
000010000000
000030000000
000020000000
000060000000
0000FFF80000
0000E01E0000
0001800F0000
000100070000
000000070000
000000070000
000000070000
000000070000
000000070000
0000000E0000
0000000C0000
0000001C0000
000000380000
000000300000
000000600000
000000C00000
000001800000
000003000000
00000E000000
00001C000000
380038000000
7000E0000000
E00180000000
C00700000000
C03800000000
C1E000000000
7E0000000000
ENDCHAR
STARTCHAR 0036
ENCODING 54
SWIDTH 369 0
DWIDTH 31 0
BBX 44 53 -2 -10
BITMAP
0000000001C0
000000001E70
00000000E030
000000038030
0000000E0070
0000001C00E0
0000007001E0
000000E001C0
000003800000
000007000000
00000E000000
000038000000
000070000000
0000E0000000
0001C0000000
000380000000
000700000000
000E00000000
001C00000000
003800000000
007000000000
006000100000
00C003FE0000
01C00C1F0000
0380300F0000
0300C0078000
060100078000
0E0200070000
0C0C00070000
1818000F0000
3830000F0000
3060000E0000
7040001C0000
6080003C0000
618000780000
E30000700000
C20000E00000
C60003C00000
C40007000000
CC000E000000
C80038000000
F800E0000000
780380000000
3C3C00000000
1FC000000000
180000000000
180000000000
180000000000
0C0000000000
0E0000000000
070000000000
01E003800000
001FFC000000
ENDCHAR
STARTCHAR 0037
ENCODING 55
SWIDTH 345 0
DWIDTH 29 0
BBX 37 49 5 -3
BITMAP
0002000000
0002000000
0002000000
0004000000
001F000008
00FFFC0038
01881FE060
030801FFC0
0618000980
0610000300
0620000600
07E0000C00
0380001800
0000003000
0000006000
000000E000
000001C000
0000038000
0000070000
00000E0000
00000E0000
00001C0000
0000380000
0000700000
0000700000
0000E00000
0001C00000
0003C00000
0003800000
0007000000
000E000000
001E000000
001C000000
0038000000
0078000000
0070000000
00E0000000
01E0000000
03C0000000
0380000000
0780000000
0F00000000
0F00000000
1E00000000
3C00000000
3C00000000
7800000000
F800000000
7000000000
ENDCHAR
STARTCHAR 0038
ENCODING 56
SWIDTH 380 0
DWIDTH 32 0
BBX 41 49 -1 -1
BITMAP
0000000FE000
000000001C00
000000000600
000000000300
000000000380
000000000180
000000000180
00000003E180
0000001C0180
000000700180
000000E00180
000001C00300
000003800300
000007000600
00000F000C00
00001E000800
00001E003000
00003C006000
00003C008000
00003C030000
00003C0C0000
00003E180000
00001E600000
00001F800000
00001F000000
00001F000000
00006F000000
00018F800000
000607800000
001C07800000
007003C00000
00E003C00000
038003C00000
070001E00000
0E0001E00000
1C0001E00000
380001E00000
300001E00000
700001C00000
600001C00000
E00003800000
E00003000000
E00006000000
E0000C000000
E00038000000
E00060000000
700180000000
3C0E00000000
0FF000000000
ENDCHAR
STARTCHAR 0039
ENCODING 57
SWIDTH 392 0
DWIDTH 33 0
BBX 45 51 1 -1
BITMAP
000000F00000
000007000000
000018000000
000060000000
000180000000
000600000000
000800000000
003000000000
00400001FFE0
0080001E0038
010000700018
020001C00018
040007000018
08001E000018
080078000038
1000F0000030
3003C0000060
2007800000E0
200F000001C0
401C00000300
403800000600
407000001C00
40E000007000
61E00001E000
21C000078000
3380001C2000
1B8000E1F000
07001F03E000
07FFE00FE000
07000039C000
070000C3C000
038007078000
01E0780F0000
007F800E0000
0000001C0000
000000380000
000000700000
000000E00000
000001C00000
000003800000
00000E000000
00001C000000
000038000000
000070000000
3801C0000000
780380000000
F00600000000
C01800000000
C06000000000
E38000000000
7C0000000000
ENDCHAR
STARTCHAR 003A
ENCODING 58
SWIDTH 166 0
DWIDTH 14 0
BBX 12 17 1 -1
BITMAP
0010
0070
00F0
01E0
01C0
0000
0000
0000
0000
0000
0000
0000
3800
7800
F000
E000
8000
ENDCHAR
STARTCHAR 003B
ENCODING 59
SWIDTH 190 0
DWIDTH 16 0
BBX 18 23 -5 -7
BITMAP
000080
0003C0
000780
000F80
000E00
000000
000000
000000
000000
007800
00F800
00F800
00F000
007000
006000
00C000
008000
010000
020000
040000
180000
600000
800000
ENDCHAR
STARTCHAR 003C
ENCODING 60
SWIDTH 416 0
DWIDTH 35 0
BBX 24 18 9 10
BITMAP
000007
00001C
000060
000180
000E00
003800
00E000
070000
1C0000
700000
C00000
F00000
1E0000
038000
00F000
001E00
0003C0
000070
ENDCHAR
STARTCHAR 003D
ENCODING 61
SWIDTH 440 0
DWIDTH 37 0
BBX 28 6 7 15
BITMAP
1FFFFFF0
3FFFFFF0
00000000
00000000
7FFFFFE0
FFFFFFC0
ENDCHAR
STARTCHAR 003E
ENCODING 62
SWIDTH 380 0
DWIDTH 32 0
BBX 23 18 7 10
BITMAP
060000
038000
00C000
003000
001C00
000700
0001C0
000070
00001C
000006
00001C
0000F0
000780
001C00
00E000
070000
380000
C00000
ENDCHAR
STARTCHAR 003F
ENCODING 63
SWIDTH 333 0
DWIDTH 28 0
BBX 38 58 -1 -1
BITMAP
0070000000
000F800000
0000700000
00000C0000
0000020000
0000010000
0000008000
000000FF80
000003C060
00000C6010
0000302008
0000C02008
000180200C
0002003004
000C003004
0018002004
0030002004
002000600C
006000600C
00C0006018
00C000C018
008000C038
0180018070
01800180E0
01800301E0
00800603C0
00C01C0780
00C0381F00
0071F03E00
003FC07C00
000001F800
000003F000
000007E000
00001F8000
00003F0000
0000FE0000
0001F80000
0003F00000
0007C00000
000F800000
001E000000
003C000000
0078000000
00F0000000
01E0000000
01C0000000
0380000000
0300000000
0200000000
0600000000
0000000000
0000000000
0000000000
3C00000000
7C00000000
F800000000
F000000000
4000000000
ENDCHAR
STARTCHAR 0040
ENCODING 64
SWIDTH 595 0
DWIDTH 50 0
BBX 52 32 -4 -9
BITMAP
0000000FFFF800
000000F8000F00
000007C00003C0
00003E000000E0
0000F000000060
0003C000000070
00070000000030
001E0000000030
0038003FF3C030
007001F81F8030
00E007C00F0070
01C01F001E0070
03803E003C0060
070078007800E0
0E00F000F001C0
1C01E003E00180
1803C007C00380
3807801F800700
30070037000E00
700E00CE001800
600E018C007000
600C061800E000
E00C3818038000
E00FE0181E0000
E000000FF00000
60000000000000
70000000000000
78000000000000
3C000000000000
1E000000000000
07E003C0000000
01FFFC00000000
ENDCHAR
STARTCHAR 0041
ENCODING 65
SWIDTH 1416 0
DWIDTH 119 0
BBX 129 98 0 -17
BITMAP
0000000000000000700000000000000000
0000000000000007800000000000000000
0000000000000038000000000000000000
00000000000000C0000000000000000000
0000000000000300000000000000000000
0000000000000C00000000000000000000
0000000000003000000000000000000000
0000000000004000000000000000000000
0000000000018000000000000000000000
0000000000030000000000000000000000
0000000000040000000000000000000000
00000000000800000001E0000000000000
0000000000100000003FFF800000000000
000000000020000001F001E00000000000
00000000006000000F8000700000000000
0000000000C000003E0000300000000000
0000000000800000F80000180000000000
0000000001000001E00000180000000000
0000000003000003C00000180000000780
000000000200000F800000180000003F00
000000000600001E00000018000000FE00
000000000400003C00000010000007F800
00000000040000780000003000000CE000
000000000C00007000000020000031C000
00000000080000F0000000600000C38000
00000000080001E00000004000018E0000
00000000080003C00000008000061C0000
0000000008000380000001000008380000
0000000008000780000003000030E00000
0000000008000700000006000041C00000
0000000008000F00000018000183800000
000000000C000E0000003000020F000000
0000000004000E0000006000041C000000
0000000006001E00000180001838000000
0000000003001C00000700002070000000
0000000001801C00001C000241E0000000
0000000000C01C000070000583C0000000
0000000000601C000380001B0780000000
00000000001C1C003C0000260F00000000
000000000007FC1FC00000481E00000000
0000000000003FF0000001B03C00000000
0000000000000C00000006607800000000
0000000000000E00000008C0F000000000
000000000000060000003181E000000000
00000000000007000000C307C000000000
000000000000038000070C0F8000000000
00000000000000E00038181F0000000000
000000000000003C03C0303E0000000000
0000000000000003FC00603C0000000000
00000000000000000000C0780000000000
0000000000000000000300F00000000000
0000000000000000000601E00000000000
0000000000000000000C03C00000000000
0000000000000000001807800000000000
0000004000000000003007800000000000
00007F7F0000000000E00F000000000000
0003C0038000000001801E000000000000
000E0001C000000003001C000000000000
00380000E000000006003C000000000000
00700000600000000C0078000000000000
00C000006000001FFFF070000078000000
01800000600007E0607FE0000FDFC00000
03000000C0007C00C001F8007800600000
06000000C001E0018001DF03C000300000
0C000000800700070001C7CF0000180000
1C000001801C000C000180FC0000080000
3800000300700018000380FC0000080000
3800000400E00070000303FE0000080000
70000008018000E0000307CF0000180000
700000300300018000021F078000100000
600000C00600070000067C03C000300000
E0000F000C000C000006F801C000200000
E0000000180038000007E000E000400000
E000000018007000000FC000E000C00000
E00000001001C000003F00006001000000
E000000030030000007E00007002000000
E0000000300E000001FE0000700C000000
E00000001038000007E600003018000000
70000000107000001F8300003060000000
7000000019C000007E0300003180000000
780000000F000001F00180006600000000
380000001E00000FC000C0007800000000
1C000000E380007C00007803E000000000
0F000007807C1FC000000FFCC000000000
07C0003C0003E00000000000C000000000
01FF1FC000000000000000018000000000
001FF80000000000000000030000000000
0000000000000000000000030000000000
0000000000000000000000060000000000
00000000000000000000000C0000000000
0000000000000000000000300000000000
0000000000000000000000600000000000
0000000000000000000001C00000000000
0000000000000000000003000000000000
000000000000000000000E000000000000
0000000000000000000038000000000000
00000000000000000001C0000000000000
0000000000000000000F00000000000000
ENDCHAR
STARTCHAR 0042
ENCODING 66
SWIDTH 1369 0
DWIDTH 115 0
BBX 146 93 -1 -18
BITMAP
00000000000000000FFE000000000000000000
0000000000000001FC0FE00000000000000000
000000000000000F0000780000000000000000
000000000000003800001C0000000000000000
00000000000001C00000060000000000000000
00000000000007000000030000000000000000
0000000000000C000000038000000000000000
00000000000030000000018000000000000000
000000000000E000000001C000000000000000
0000000000018000000001FFE0000003FFC000
00000000000600000000FEC01F00001E007800
00000000000C0000000700E000E000F0001E00
0000000000300000003800E0001C0380000700
000000000060000001C000E000060E00000380
0000000000400000070000E00001B800000380
00000000000000001C0000E00000F0000001C0
0000000000000000700000C00001E0000001C0
0000000000000000C00000C00007B0000001C0
0000000000000003800001C0000E30000000C0
0000000000000007000001C0003C18000001C0
000000000000000E00000180007818000001C0
000000000000001C0000038000F01C00000180
00000000000000380000038003C01C00000380
00000000000000700000070007801C00000300
0000000000000060000007000F001C00000600
00000000000000C000000E001E001C00000C00
00000000000001C000000C003C001C00001800
000000000000018000001C0078003800003000
000000000000038000003800F000380000E000
000000000000070000007001E0007800038000
000000000000070000006003C00070001C0000
00000000000006000000E0078000E000E00000
0000000000000E000001C00F0001E000000000
0000000000000E000003001E0003C000000000
0000000000000E00000E003C00078000000000
0000000000000E00001C0078000F0000000000
0000000000000E00003800F0001E0000000000
000000000000060000E001E000780000000000
00000000000007000181FFC001F00000000000
00000000000003800E0607F007C00000000000
00000000000001E078040F0C1E000000000000
000000000000007F80061E03F0000000000000
00000000000000000003FEFF80000000000000
000000000000000000007F80C0000000000000
0000000001FC00000000F800C0000000000000
000000001F0F80000001F00060000000000000
000000006001C0000003E00070000000000000
000000018000E0000007C00030000000000000
0000000600006000000F800030000000000000
0000000C00007000001F000038000000000000
0000001000007000003E000038000000000000
0000002000007000007C000038000000000000
000000400000700000F8000038000000000000
000000800000600001F0000038000000000000
000001000000E00003E0000038000000000000
000003007E00E00007C0000078000000000000
000002FF81FFC0000F80000078000000000000
00001F000001E0001F00000070000000000000
0001EC000003BC003E00000070000000000000
00070800000787007E000000F0000000000000
00381800000701C0F8000004E0000000000000
00E01000000E00E1F00007FFFC000000000000
01801000001C0033E0003C01E7800000000000
07001000003C001FC000E003C0E00000000000
0E0030000078000F80038007C0300000000000
1800300000F0001F000E0007801C0000000000
3800300001E0003F0018000F000C0000000000
300030000380007B8030001E00060000000000
60001000070000E18040003E00060000000000
600010001E000381C080007C00070000000000
C00010003C000701C10000F000030000000000
C0001800F0001C00E20001E000030000000000
C0000C01C0007000E20003C000030000000000
600006070001C000E2000F0000030000000000
6000033C00070000E2003C0000070000000000
380001F0003C0000E381F00000060000000000
0E000F7C03E00000E0FF000000060000000000
01FFF00FFE000001C0000000000C0000000000
0000000000000001C0000000001C0000000000
0000000000000001C000000000180000000000
00000000000000038000000000300000000000
00000000000000070000000000600000000000
00000000000000070000000000C00000000000
000000000000000E0000000003800000000000
000000000000001C0000000006000000000000
0000000000000078000000001C000000000000
00000000000000E00000000070000000000000
00000000000001C00000000380000000000000
00000000000007000000007C00000000000000
0000000000003C000000000000000000000000
000000000000E0000000000000000000000000
00000000000F00000000000000000000000000
0000000000F000000000000000000000000000
ENDCHAR
STARTCHAR 0043
ENCODING 67
SWIDTH 1023 0
DWIDTH 86 0
BBX 102 99 0 -18
BITMAP
00000000300000000000000000
00000001F00000000000000000
0000000F000000000000000000
00000038000000000000000000
000000E0000000000000000000
000001C0000000000000000000
00000700000000000000000000
00000E00000000000000000000
00001C00000000000000000000
00003800000000000000000000
00007000000000000000000000
0000E000000007F00000000000
0001C0000000FFFF0000000000
000180000007C0038000000000
00038000001E0000C000000000
00070000007000006000000000
0007000000E000002000000000
000E0000018000002000000000
000E0000070000002000000000
000E00000C0000002000000000
000C00001800000060000FFFE0
001C0000300000004000FC0078
001C000060000000C007E0001C
001C0000C0000001801F00000C
001C0000C000000300FC00000C
001C00018000000603F000000C
000E00030000000C0FC000000C
000E0003000000183F0000000C
000E0006000000707C0000000C
00070004000000C1F800000018
0003800C00000303F000000018
0001C00C00000E07C000000030
0000E0080000781F8000000060
000078180003C03F00000000E0
00001F18003E007C00000000C0
000001FE3FE000F80000000180
00000011C00001F00000000300
00000030000003E00000000600
00000030000007C00000000C00
0000003000000F800000003800
0000003000001F000000007000
0000003000003E00000000C000
0000003000007E000000018000
000000100000FC000000070000
000000180000F80000000C0000
000000180001F0000000380000
000000180003E0000000600000
0000000C0007E0000001C00000
0000000C0007C0000007000000
00000006000F8000001C000000
00000003001F800000F0000000
00000001801F000003C0000000
00000000E03E00001E00000000
00000000703E0000F000000000
000000001E7C000F8000000000
0000000007FC07F80000000000
0000000000FFFF000000000000
0000000000F800000000000000
0000000000F000000000000000
0000000001F000000000000000
0000000001F0000003FE000000
000003FFFFF800003C07800000
00007E0003EF8001C001C00000
0003C00003C0F0070000E00000
001E000003C00E1C0000600000
0078000003C003F00000600000
01E0000003C001E00000600000
0380000007C007700000600000
0F00000007801E180000600000
1C0000000780380C0000600000
380000000780F0060000600000
380000000783C0030000C00000
7000000003C780038000C00000
6000000003DE0001C001800000
E000000003FC0001C003000000
E000000003F00000E003000000
E000000003E00000E006000000
E00000000FE00000E00C000000
E00000003EF00000E038000000
60000000F8780000E070000000
60000003E03C0000E1C0000000
3000000F801E0000E700000000
1800003E0007C000FC00000000
0E0001F00001FE03E000000000
03C01F8000001FFDE000000000
007FF00000000001C000000000
0000000000000003C000000000
00000000000000038000000000
00000000000000070000000000
000000000000000F0000000000
000000000000001E0000000000
000000000000003C0000000000
00000000000000700000000000
00000000000001E00000000000
00000000000007C00000000000
0000000000001F000000000000
0000000000007C000000000000
000000000007E0000000000000
00000001FFFF00000000000000
ENDCHAR
STARTCHAR 0044
ENCODING 68
SWIDTH 1154 0
DWIDTH 97 0
BBX 134 82 0 -8
BITMAP
0000000000000007E00000000000000000
00000000000003FFFE0000000000000000
0000000000003E00078000000000000000
000000000001E00001E000000000000000
0000000000070000007000000000000000
0000000000380000003000000000000000
0000000000E00000001800000000000000
0000000003800000000800000000000000
000000000E000000000C00000000000000
0000000018000000003FFFE00000000000
000000006000000007FF07FE00000FFF00
00000001800000007F86000F8000F001C0
0000000300000003FC060001E003800060
000000040000000FE0060000700E000030
000000180000003F000600001C38000018
00000030000000FC000600000EE0000008
00000000000003F00004000007C000000C
00000000000007E000040000070000000C
0000000000001F80000400001F8000000C
0000000000003E00000C00003CC000000C
0000000000007C000008000078C0000008
000000000000F80000080001E060000018
000000000001E00000180003C060000018
000000000003C000001000078060000030
00000000000780000030000F0070000020
00000000000700000020001E0030000040
00000000000E00000060007C0030000080
00000000001C0000004000F80030000100
0000000000180000008001F00030000600
0000000000380000018003E00030001800
0000000000300000030007C00070000000
000000000060000006000F800070000000
00000000006000000C001F000070000000
000000000040000018003E000070000000
0000000000C0000030007C000070000000
00000000008000006000F80000F0000000
0000000000800001C001F00000E0000000
00000000008000030003E00000E0000000
000000000080000E0007C00001E0000000
0000000000400038000F800001E0000000
00000000006001E0001F000003C0000000
0000000000380F80003E000003C0000000
00000000001FFE00007C000003C0000000
000000000001E00000F800000780000000
000000000000000001F000000F80000000
000000000000000003E000000F00000000
000000000000000007C000001F00000000
00000000000000000F8000001E00000000
00000000000000001F0000003E00000000
00000000000000003E0000007C00000000
00000000000000007C0000007800000000
0000000000000000F8000000F800000000
0000000000000001F0000001F000000000
0000000000000003E0000003E000000000
0000000000000007C0000007E000000000
000000000000000F8000000FC000000000
000000000000001F0000001F8000000000
000000000000007E0000003F0000000000
00000000000000FC0000007E0000000000
00000000000001F8000000FC0000000000
00000000000003F0000001F80000000000
00000000000007C0000003F00000000000
0000000000000F80000007E00000000000
0000000000001F0000000FC00000000000
0000000000003E0000003F000000000000
000000000000FC0000007E000000000000
000000000001F0000001FC000000000000
000000000003E0000003F0000000000000
000000000007C000000FE0000000000000
00000000001F0000001F80000000000000
3FFF8000003E0000007E00000000000000
6003F80000FC000001F800000000000000
C0003F8001F000000FE000000000000000
C00003F807C000003F0000000000000000
C000003F8F800001F80000000000000000
E0000003FE00001FC00000000000000000
70000001FFE00FFC000000000000000000
7C000007E3FFFF00000000000000000000
3F00003F80000000000000000000000000
0FE001FC00000000000000000000000000
03FFFFE000000000000000000000000000
00FFFE0000000000000000000000000000
ENDCHAR
STARTCHAR 0045
ENCODING 69
SWIDTH 1035 0
DWIDTH 87 0
BBX 107 105 0 -18
BITMAP
0000000000010000000000000000
00000000001F0000000000000000
0000000000700000000000000000
0000000003C00000000000000000
0000000007000000000000000000
000000001C000000000000000000
0000000030000000000000000000
00000000E0000000000000000000
00000001C0000000000000000000
0000000380000000000000000000
0000000700000000000000000000
0000000E00000000078000000000
0000001C00000003FFFC00000000
000000180000001F800F00000000
0000003800000078000300000000
00000070000001C0000180000000
0000007000000700000180000000
000000E000000E00000080000000
000000E000003800000080000000
000000C000007000000180000000
000001C00000E000000100000000
000001C000018000000300000000
000001C000030000000600000000
000001C000060000000C00000000
000001C000060000001800000000
000001C0000C0000003000000000
000001C000180000006000FFFF00
000000E00010000000C00FE00380
000000E00030000003007F0000C0
00000070002000000E01F80000E0
00000078006000001807E0000060
0000003C00600000E01FC00000E0
0000001E00400003803F000000C0
0000000700C0001C007E000000C0
00000001E0C001E000F800000180
000000003FC0FE0001F000000300
0000000001FF000003E000000600
0000000000C0000007C000000C00
0000000000C000000F8000001800
0000000000C000000F0000003000
0000000000C000001F000000C000
0000000000C000001E0000038000
00000000006000003C0000060000
00000000006000003C0000180000
0000000000300000780000600000
0000000000180000780003800000
00000000000C000070000E000000
0000000000070000700070000000
0000000000038000700780000000
000000000000F000607C00000000
0000000000003FF9FFC000000000
00000000000001FFE00000000000
0000000000000000300000000000
0000000000000000300000000000
0000000000000000180180000000
00000000000000000FFEFC000000
00000000000000007E000C000000
000000000000000781801C000000
000000000000003C007FF0000000
00000000000000E0000000000000
0000000000000380000000000000
0000000000000E00000000000000
0000000000003C00000000000000
0000000000007000000000000000
000000000000E000000000000000
000000000003C000000000000000
0000000000078000000000000000
000007FFFFFF00001FFE00000000
0000F800001F8000F00780000000
00070000003CF803C001C0000000
0038000000380E0F0001E0000000
00E00000007803BC0000E0000000
0180000000F000F00000E0000000
0700000000F003F00000E0000000
0C00000001E007980000E0000000
1800000001E01E0C0000E0000000
3000000003C078060001E0000000
7000000003C0F0030001C0000000
6000000003C3C0010003C0000000
E000000003CF8001800380000000
C000000003DE0000800700000000
C000000003F80000800F00000000
C000000003F00000C01E00000000
C000000007E00000C03800000000
E00000001FE00000C07000000000
600000007DF00000C1E000000000
70000001F0F00000838000000000
38000007807800008E0000000000
1C00003C003E0001F80000000000
070003E0000F8003C00000000000
01FFFE000003FFFF000000000000
0000000000000002000000000000
0000000000000004000000000000
000000000000000C000000000000
0000000000000018000000000000
0000000000000030000000000000
0000000000000060000000000000
0000000000000180000000000000
0000000000000700000000000000
0000000000000C00000000000000
0000000000003000000000000000
000000000001C000000000000000
00000000000F0000000000000000
0000000000780000000000000000
0000000003C00000000000000000
ENDCHAR
STARTCHAR 0046
ENCODING 70
SWIDTH 1035 0
DWIDTH 87 0
BBX 158 81 0 -4
BITMAP
000000000000000000000000000000000007FC00
0000000000000000000000000000000000FFFF80
0000000000000000000000000000000007C003E0
00000000000000007FFC0000000000003C000070
00000000000000078007C00000000000E0000018
0000000000000038000070000000000100000008
00000000000001C000001800000000000000000C
000000000000060000000C00000000000000000C
000000000000180000000200000000000000000C
0000000000007000000003000000000000000008
000000000001C000000001800000000000000018
0000000000030000000000900000000000000030
00000000000E000000007FFFFE00000000000060
00000000001800000007C0803FFC0000000000C0
0000000000300000003C008000FFE00000000380
0000000000C0000001F000800007FF8000001E00
00000000018000000780008000003FFF0001F800
00000000010000001E000080000001FFFFFFC000
00000000000000007C00008000001C03FFFC0000
0000000000000000F00000800000E00000000000
0000000000000003E00001800003800000000000
000000000000000780000100001E000000000000
000000000000000F000001000038000000000000
000000000000001E0000020000F0000000000000
00000000000000380000020003E0000000000000
0000000000000070000004000780000000000000
00000000000000E000000C000F00000000000000
00000000000001C0000008003E00000000000000
0000000000000180000010007C00000000000000
000000000000038000003000F800000000000000
000000000000070000002001F000000000000000
000000000000060000004003E000000000000000
0000000000000E0000008007C000000000000000
0000000000000C000001000F8000000000000000
0000000000000C000002001F0000000000000000
00000000000008000004003E0000000000000000
00000000000018000008007C0000000000000000
0000000000001800003000F80000000000000000
0000000000001800006001F00000000000000000
0000000000000800008003E00000000000000000
0000000000000800030007C00000000000000000
00000000000004000C000F800000000000000000
000000000000030070001F000000000000000000
00000000000001FF80003E000000000000000000
000000000000000000007C000000000000000000
00000000000000000000F8000000000000000000
0000000007FF00000001F8000000000000000000
00000000380380000003F0000000000000000000
00000000C001C0000007E0000000000000000000
000000010000E000000FC0000000000000000000
000000060000E000000F80000000000000000000
000000080000E000001F00000000000000000000
000000100000E000003E00000000000000000000
000000200000E000007C00F00000000000000000
000000400000E00000F803980000000000000000
000000800001C00001F007100000000000000000
000001800001C00003E01E300000000000000000
0000017FE003800007C03C400000000000000000
00003F803FF380000F8071800000000000000000
0003C600000FE0001F00F6000000000000000000
001E040000073FE03E01F8000000000000000000
00700800000E003FFFFFC0000000000000000000
00C00800001C0000F80380000000000000000000
0300080000380001F00700000000000000000000
0600100000300003E00E00000000000000000000
0C00100000700007801C00000000000000000000
1800100000E0000F003800000000000000000000
300010000180001E006000000000000000000000
600010000300003C00C000000000000000000000
6000100006000078010000000000000000000000
C00010001C0000E0000000000000000000000000
C0001000380003C0000000000000000000000000
C000100060000700000000000000000000000000
C0001001C0001E00000000000000000000000000
C000080300003800000000000000000000000000
C0000C0C0000E000000000000000000000000000
6000043000018000000000000000000000000000
200003C0000E0000000000000000000000000000
18000EC000380000000000000000000000000000
0E00F03C03C00000000000000000000000000000
01FF0007FC000000000000000000000000000000
ENDCHAR
STARTCHAR 0047
ENCODING 71
SWIDTH 928 0
DWIDTH 78 0
BBX 100 108 0 -20
BITMAP
00000000008000000000000000
000000000F8000000000000000
00000000780000000000000000
00000001C00000000000000000
00000007000000000000000000
0000000C000000000000000000
00000038000000000000000000
00000070000000000000000000
000000C0000000000000000000
00000180000000000000000000
00000300000000000000000000
0000070000000007C000000000
00000E00000001FFFE00000000
00001C0000000FC00F00000000
0000180000003C000180000000
000038000000E0000080000000
000070000003800000C0000000
000070000006000000C0000000
00006000001C00000080000000
0000E000003800000080000000
0000E000006000000180000000
0000E00000C000000100000000
0000E000018000000200000000
0000E000030000000600000000
0000E000060000000C000FFF00
0000E0000C0000001801FE07C0
0000E0000C000000300FE000E0
0000E00018000000C03F800070
000070003000000180FE000030
000070003000000703F8000030
000038006000001C07E0000030
00001C00600000701FC0000060
00000E00C00003C03F00000060
00000780C0001E007E000000C0
000001F08000F000FC00000180
0000003F807F0003F000000180
00000001FF800003E000000300
0000000180000007C000000600
000000018000000F8000001C00
000000018000001F0000003000
000000018000003E0000006000
000000018000003C000000C000
000000018000007C0000030000
00000001800000F80000060000
00000000800000F00000180000
00000000C00001E00000700000
00000000C00001E00001C00000
00000000600003C00007000000
0000000030000380001C000000
000000003800038000E0000000
000000000C0003000780000000
00000000070003003C00000000
0000000001E00703E000001000
00000000007FFFFE0000006000
000000000003FF80000000C000
00000000000006000000018000
00000000000006000000070000
000000000000020000000E0000
0000000003FF02000000180000
000000000C01C2000000700000
000000003000E1000001E00000
00000000C00070800007C00000
0000000180007040003D800000
000000060000303001E3000000
0000000C0000300FFE06000000
0000001800007000000C000000
00000030000070000018000000
00000060000070000038000000
00000040000070000070000000
000000DFFFE0E00001E0000000
00000FE0003FE00003C0000000
0000F3000001F8000780000000
000F03000003CF000F00000000
00380600000381C01F00000000
00E00400000700703E00000000
03800C00000F00187C00000000
06000C00001E000CF800000000
0C001800003C0003F000000000
1800180000780003E000000000
3000180000F0000FC000000000
6000300001E0001FC000000000
6000300003C0003F4000000000
C00030000780007C6000000000
C00030001E0001F82000000000
C00030003C0003E02000000000
C000300070000FC02000000000
C0003001E0001F003000000000
6000180780007C002000000000
7000181E0001F0002000000000
38001CF0000FC0002000000000
0E000F80003E00002000000000
03FFFF0001F000004000000000
000001F81F8000004000000000
0000003FF80000008000000000
00000000000000018000000000
00000000000000030000000000
00000000000000060000000000
000000000000000C0000000000
00000000000000180000000000
00000000000000300000000000
00000000000000C00000000000
00000000000003800000000000
00000000000006000000000000
00000000000038000000000000
000000000000E0000000000000
00000000000780000000000000
00000000007800000000000000
00000000008000000000000000
ENDCHAR
STARTCHAR 0048
ENCODING 72
SWIDTH 1130 0
DWIDTH 95 0
BBX 120 103 0 -18
BITMAP
00000000F800000000000000000000
000000070000000000000000000000
000000380000000000000000000000
000000C00000000000000000000000
000003000000000000000000000000
00000C000000000000000000000000
000030000000000000000000000000
000040000000000000000000000000
000180000000000000000000000000
000300000000000000000000000000
000400000000000000000000000000
000800000007FFC000000000000000
00100000007F83F000000000000000
0030000001F0003800000000000000
002000000F80000C00000000000000
004000001E00000C00000000000000
008000007800000400000000000000
00800000F0000006000000000001FF
01000003E000000400000080001F01
010000078000000400000700007C01
0300000F0000000C00001C0001E003
0200001E000000080000700007C002
0200003C000000180001C0001F0006
0200003800000030000300007C0004
0200007800000060000E0000F80008
020000F0000000C0001C0003E00010
020001E00000018000700007C00020
030001C00000030000E0001F0000C0
010003C000000C0001C0003E000180
0180038000001800038000FC000300
00800380000060000F0001F0000C00
00600700000180001E0003E0001800
00300700000E00003C0007C0002000
001C07000070000078001F8000C000
000707000F800000E0003F00030000
0000FE3FF8000001C0007C00060000
00000FE0000000078000F800180000
00000E000000000F8001F000600000
000006000000001F0003E001800000
000006000000007E0007C003000000
00000700000000FC000F800C000000
00000700000003F8001F0030000000
0000030000000DF0003E00C0000000
00000180000033E0007C0300000000
000000C00000C7C000F81C00000000
000000600007078001F06000000000
0000003C00380F0003E18000000000
00000007FFC01E0007CE0000000000
0000000000003C000FB00000000000
00000000000078000FC00000000000
000000000000F0001F000000000000
000000000001E0003E000000000000
000000000003E001FC000000000000
000000000007C006F8000000000000
00000000000F8038F0000000000000
00000000001F01C1E0000000000000
00000000003E0E03E0000000000000
00000000007C7007C0000000000000
0000000000F9800780000000000000
0000000001FE000F00000000000000
0000000003E0001F00000E00000000
0000000007C0001E0000FFC0000000
000000001F80003C000380E0000000
00000000FF00003C000E00E0000000
000000073E00007800180070000000
000000387C00007000300070000000
000001C0F80000F000E00070000000
00000601F00000E001C00070000000
00003803E00001E0038000F0000000
0001C007C00001C0030000F0000000
0007000F800003C0060000E0000000
0018001F000003800C0001E0000000
0060003E00000380080001C0000000
0180007C00000780180003C0000000
060000F80000070010000380000000
080001F00000070020000780000000
300007C00000070020000700000000
20000F800000060060000E00000000
40001E000000060040001C00000000
800078000000060040003800000000
8000F00000000600C0007000000000
8003C000000006008000E000000000
800F0000000007008001C000000000
803C00000000030080038000000000
63E0000000000180800E0000000000
3C000000000000C080380000000000
000000000000007081E00000000000
000000000000000FFE000000000000
000000000000000080000000000000
000000000000000080000000000000
000000000000000080000000000000
000000000000000080000000000000
000000000000000040000000000000
000000000000000040000000000000
000000000000000020000000000000
000000000000000020000000000000
000000000000000010000000000000
000000000000000018000000000000
00000000000000000C000000000000
000000000000000006000000000000
000000000000000001800000000000
0000000000000000007C3C00000000
00000000000000000003C000000000
ENDCHAR
STARTCHAR 0049
ENCODING 73
SWIDTH 904 0
DWIDTH 76 0
BBX 129 66 0 -3
BITMAP
000000000000000000000000000000FF80
00000000000000000000000000000F0080
0000000000000000000000000000700080
0000000000000000000000000001C00080
0000000000000000000000000007000100
000000000000000000000000001C000E00
000000000000000000000000003807F000
00000000000000000000000000FFFE0000
000000000000000000000003FFFC000000
0000000000000000000001FFC780000000
000000000000000000003FC00E00000000
00000000000000000001F0001C00000000
0000000000000000000F00007800000000
0000000000000000003C0000F000000000
000000000000000000E00001E000000000
000000000000000001C00003C000000000
0000000000000000030000078000000000
00000000000000000600000F0000000000
00000000000000000C00003E0000000000
00000000000000001C00007C0000000000
0000000000000000180000F80000000000
0000000000000000180001F00000000000
0000000000000000300003E00000000000
0000000000000000300007C00000000000
000000000000000030000F800000000000
000000000000000030001F000000000000
000000000000000030003E000000000000
0000000000000000187FFF000000000000
00000000000000001FC0F9800000000000
00000000000000007E01F1800000000000
00000000000000038703E3000000000000
000000000000000E01FFFC000000000000
0000000000000030001FC0000000000000
00000000000000C0001F00000000000000
0000000000000300003E00000000000000
0000000000000600007C00000000000000
000000000000180000F800000000000000
000000000000300001F000000000000000
000000000000600003E000000000000000
000000000000C00007C000000000000000
00000000000180000F8000000000000000
00000000000300003F0000000000000000
00000000000600007E0000000000000000
0000000000040000FC0000000000000000
00000000000C0001F80000000000000000
0000000000180003F00000000000000000
0000000000100007C00000000000000000
000000000030000F800000000000000000
000000000020003F000000000000000000
000000000020007E000000000000000000
30000000004000FC000000000000000000
70000000004001F0000000000000000000
E0000000004007E0000000000000000000
8000000000400FC0000000000000000000
8000000000401F00000000000000000000
8000000000407E00000000000000000000
800000000040F800000000000000000000
C00000000043F000006000000000000000
400000000047C00001C000000000000000
60000000007F0000030000000000000000
38000000007C00000E0000000000000000
1C00000003F00000380000000000000000
070000000F8C0000E00000000000000000
01E000007C070007800000000000000000
003F800FE003E0FC000000000000000000
0001FFF800007FC0000000000000000000
ENDCHAR
STARTCHAR 004A
ENCODING 74
SWIDTH 559 0
DWIDTH 47 0
BBX 134 99 -35 -34
BITMAP
00000000000000003FC000000000000FFC
0000000000000007E07F0000000000701C
00000000000000780001C000000001801C
00000000000003C0000070000000060018
0000000000000E00000018000000180030
000000000000380000000C0000006000C0
000000000000E000000006000000800300
0000000000018000000003000003003C00
00000000000600000000010000047FC000
00000000000C00000000011FFFFFFC0000
000000000030000000003FFFFFF0000000
0000000000600000000FFF800060000000
000000000080000000FFC0800080000000
000000000300000007F800800300000000
00000000020000003F8000800600000000
0000000000000000FC0001800C00000000
0000000000000003F00001001800000000
000000000000000F800001003000000000
000000000000003F000001006000000000
000000000000007C00000200C000000000
00000000000000F0000002038000000000
00000000000001E0000006070000000000
00000000000003C00000040E0000000000
000000000000078000000C1C0000000000
0000000000000F00000008380000000000
0000000000000E00000010700000000000
0000000000001C00000030E00000000000
0000000000001C00000061C00000000000
0000000000003800000043800000000000
0000000000003800000087000000000000
000000000000300000010F000000000000
000000000000300000021E000000000000
000000000000300000043C000000000000
0000000000003000000878000000000000
00000000000030000030F0000000000000
00000000000018000061E0000000000000
00000000000018000183C0000000000000
0000000000000C00030780000000000000
00000000000007000C0780000000000000
00000000000001F0F00F00000000000000
000000000000007F001E00000000000000
0000000000000000003C00000000000000
0000000000000000007800000000000000
000000000000000000F000000000000000
000000000000000001E000000000000000
000000000000000003C000000000000000
000000000000000007C000000000000000
00000000000000000F8000000000000000
00000000000000001F0000000000000000
00000000000000003E0000000000000000
00000000000000007C0000000000000000
0000000000000000F80000000000000000
0000000000000001F00000000000000000
0000000000000003E00000000000000000
0000000000000003E00000000000000000
0000000000000007C00000000000000000
000000000000000F800000000000000000
000000000000001F000000000000000000
000000000000003E000000000000000000
000000000000007C000000000000000000
00000000000003FFFF0000000000000000
0000000000007DF001C000000000000000
00000000000783E000E000000000000000
00000000007C07E0007000000000000000
0000000003E00FC0003000000000000000
000000000F001F80003000000000000000
000000007C003F00003000000000000000
00000001E0007E00007000000000000000
000000078000FC00007000000000000000
0000001E0001F80000E000000000000000
000000780003F00000C000000000000000
000001E00007E000018000000000000000
000003C0000FC000030000000000000000
00000F00001F8000060000000000000000
00001C00003F00000C0000000000000000
00007800007E0000380000000000000000
0000E00000FC0000600000000000000000
0003C00001F80001C00000000000000000
0007000003F00003000000000000000000
000E000007E0000C000000000000000000
001800010FC00070000000000000000000
003000019F8001C0000000000000000000
00E00000FF000E00000000000000000000
01C000007C00F000000000000000000000
03800000FFFF0000000000000000000000
07000001F0000000000000000000000000
04000003E0000000000000000000000000
0C00000F80000000000000000000000000
1800001F00000000000000000000000000
3000003E00000000000000000000000000
200000F800000000000000000000000000
400001F000000000000000000000000000
400003C000000000000000000000000000
80000F8000000000000000000000000000
80003E0000000000000000000000000000
8000780000000000000000000000000000
C003E00000000000000000000000000000
600F000000000000000000000000000000
3FF8000000000000000000000000000000
ENDCHAR
STARTCHAR 004B
ENCODING 75
SWIDTH 1500 0
DWIDTH 126 0
BBX 171 102 -1 -19
BITMAP
00000000000000002000000000000000000000000000
0000000000000007C000000000000000000000000000
00000000000000380000000000000000000000000000
00000000000000C00000000000000000000000000000
00000000000007000000000000000000000000000000
00000000000018000000000000000000000000000000
00000000000030000000000000000000000000000000
000000000000C0000000000000000000000000000000
00000000000100000000000000000000000000000000
00000000000200000000000000000000000000000000
00000000000400000000000000000000000000000000
00000000001800000000000000000000000000000000
0000000000300000003FFF000000000000000001FC00
000000000020000003F807C0000000000000003E0300
00000000004000000F8000E000000000000001C000C0
00000000008000003E00006000000000000007000040
0000000001000000F80000300000000000001C000060
0000000003000001E000003000000000000070000020
000000000200000780000010000000100001C0000020
000000000400000F00000010000000E0000780000020
000000000400001E0000003000000300000E00000060
000000000C00003C0000003000000C00001C00000060
00000000080000780000002000003000007800000060
00000000080000F0000000600000E00000E000600040
00000000180001E0000000400001800003C0018000C0
00000000180001C00000008000070000078006000180
000000001000038000000180000E00000F0008000180
000000001000078000000300003800001E0010000300
000000001000070000000600007000003C0020000600
0000000010000F0000000C0000E00000F80040000C00
0000000018000E000000180003C00001E00040001800
0000000008001E000000300007800003C00080003000
0000000008001C000000C0000F000007800080006000
000000000C001C00000180001C00000F000080018000
0000000006001C00000600003800001E000080070000
0000000003003800001C00047000003C0000401C0000
000000000180380000E0000CE000007800003FE00000
0000000000C0380007800011C00001F0000000000000
00000000003838003C000023800003C0000000000000
00000000000FB80FC00000C700000780000000000000
000000000000FFF80000010E00000F00000000000000
00000000000018000000061C00001E00000000000000
0000000000001C000000183C00007C00000000000000
0000000000000C00000060780000F000000000000000
0000000000000600000180F00001E000000000000000
0000000000000300000601E000078000000000000000
00000000000001C0003803C0000F0000000000000000
000000000000007001C007F8003C0000000000000000
000000000000000FFE000F8700F00000000000000000
000000000000000000001FC187800000000000000000
000000000000000000003CF0FC000000000000000000
00000000000000000000780FC0000000000000000000
0000000001FC00000000F00060000000000000000000
000000001F0F80000001E00060000000000000000000
000000006001C0000003C00060000000000000000000
000000018000E0000007800060000000000000000000
0000000600006000000F0000E0000000000000000000
0000000C00007000001E0000E0000000000000000000
0000001000007000003E0000E0000000000000000000
0000002000007000007C0001E0000000000000000000
000000400000700000F80003C0000000000000000000
000000800000600001F00007C0007F00000000000000
000001000000E00003E0000F8003C1C0000000000000
000003007E00E00007C0001F800E00E0000000000000
000002FF81FFC0000F80001F001800E0000000000000
00001F000001E0001F00003E006000E0000000000000
0001EC000003BC003E00007C00C000E0000000000000
0007080000078F007C0000F8018000E0000000000000
00381800000701C0F80001F0020000E0000000000000
00E01000000E00E1F00001E0040001E0000000000000
01801000001C003BE00003C00C0001C0000000000000
07001000003C001F800003C0180001C0000000000000
0E0030000078000F00000780100003C0000000000000
1800300000F0003E0000070030000380000000000000
3800300001E0007F0000070060000700000000000000
30003000038000F38000060040000F00000000000000
60001000070001E180000600C0000E00000000000000
600010001E000781C0000600C0001C00000000000000
C00010003C000F01C000060080003800000000000000
C0001800F0003C00E000060180007000000000000000
C0000C01C000F000E00006018000E000000000000000
600006070003C000E00002010001C000000000000000
6000033C000F0000E000020100038000000000000000
380001F0007C0000E0000101000E0000000000000000
0E000F7C03E00000E000008100380000000000000000
01FFF00FFE000001C000004100E00000000000000000
0000000000000001C000003D0F800000000000000000
0000000000000001C0000003F0000000000000000000
00000000000000038000000100000000000000000000
00000000000000070000000100000000000000000000
00000000000000070000000100000000000000000000
000000000000000E0000000180000000000000000000
000000000000001C0000000080000000000000000000
00000000000000780000000080000000000000000000
00000000000000E00000000040000000000000000000
00000000000001C00000000060000000000000000000
00000000000007000000000020000000000000000000
0000000000003C000000000010000000000000000000
000000000000E000000000000C000000000000000000
00000000000F00000000000006000000000000000000
0000000000F000000000000001C00C00000000000000
000000000000000000000000003FF000000000000000
ENDCHAR
STARTCHAR 004C
ENCODING 76
SWIDTH 1250 0
DWIDTH 105 0
BBX 121 104 0 -20
BITMAP
00000000000000002000000000000000
0000000000000003C000000000000000
000000000000001C0000000000000000
00000000000000600000000000000000
00000000000001800000000000000000
00000000000002000000000000000000
0000000000000C000000000000000000
00000000000010000000000000000000
00000000000020000000000000000000
000000000000C0000000000000000000
00000000000100000003FF0000000000
0000000000020000003FFFE000000000
000000000002000001F800F000000000
000000000004000007C0003800000000
00000000000800001E00001C00000000
00000000001000003800001C00000000
0000000000200000F000000C00000000
0000000000200001C000000C00000000
00000000004000038000000C00000000
00000000004000070000001800000000
000000000080000E000000180001E000
000000000080001C00000018001FFE00
00000000018000380000003000F00F00
00000000010000300000006003C00380
0000000001000070000000600F000380
00000000010000E0000000C01E000380
00000000010000C00000018078000380
00000000010001C000000300F0000380
000000000100018000000601E0000300
000000000100038000000C03C0000700
00000000018003000000180780000700
00000000008003000000600F00000E00
0000000000C006000000C01E00001C00
00000000006006000003007C00001C00
0000000000300600000C00F800003800
0000000000180600007001F000007000
00000000000E0C00038003E00000E000
000000000003CC003C0007C00001E000
0000000000007FFFC0000F800003C000
0000000000000C0000001F0000078000
0000000000000C0000001E00000F0000
0000000000000C0000003C00001E0000
000000000000040000007800003C0000
00000000000004000000F00000700000
00000000000006000001E00000E00000
00000000000006000003C00003C00000
00000000000002000007800007800000
0000000000000300000F00000E000000
0000000000000100001E00003C000000
0000000000000180003E0000F0000000
00000000000000C0007C0003C0000000
000000000000006000F8000700000000
000000000000003001F0003C00000000
000000000000001803E000F000000000
000000000000000E07C007C000000000
0000000000000003C7803E0000000000
00000000000000007FFFF00000000000
00000000000000001FFC000000000000
00000000000000003C00000000000000
00000000000000007800000000000000
0000000000000000F000000000000000
0000000000000001E000000000000000
0000000000000003C000000000000000
00000000000000078000000000000000
000000000000000F0000000000000000
000000000000003E0000000000000000
00000000000000780000000000000000
00000000000000F00000000000000000
00000000000001E00000000000000000
00000000000003C00000000000000000
00000000000007800000000000000000
0000000000000E000000000000000000
0000000000003C000000000000000000
00000000000078000007FF8000000000
03FFF0000000E00001FC00F800000000
1E007F800003C0000F00000E00000000
380003F8000700003800000700000000
7000003FC01E0000E000000380000000
60000003FC3800038000000180000000
E00000003FF000060000000180000000
6000000007FC000C0000000380000000
600000000F7FC0180000000380000000
700000003C07FE300000000F00000000
38000000E0007FF00000001E00000000
1E000007000003FF0000007800000000
078000780000005FFC0007E000000000
01FEFF80000000C07FFFFE0000000000
000F0000000000C00000000000000000
00000000000000C00000000000000000
00000000000000C00000000000000000
00000000000000C00000000000000000
00000000000000C00000000000000000
00000000000000C00000000000000000
00000000000000400000000000000000
00000000000000600000000000000000
00000000000000200000000000000000
00000000000000300000000000000000
00000000000000180000000000000000
000000000000000C0000000000000000
00000000000000060000000000000000
00000000000000018000000000000000
0000000000000000E000000000000000
00000000000000001E00000000000000
000000000000000001FC000000000000
ENDCHAR
STARTCHAR 004D
ENCODING 77
SWIDTH 1607 0
DWIDTH 135 0
BBX 150 101 -2 -18
BITMAP
00000000000000000800000000000000000000
0000000000000000F000000000000000000000
000000000000000F0000000000000000000000
00000000000000300000000000000000000000
00000000000000C00000000000000000000000
00000000000003000000000000000000000000
0000000000000C000000000000000000000000
00000000000030000000000000000000000000
00000000000060000000000000000000000000
00000000000080000000000000000000000000
00000000000100000000000000000000000000
00000000000600000000000000000000000000
00000000000C0000000FFF8000000000000000
0000000000180000007E03E000000000000000
000000000010000003E0003000000000000000
00000000002000000F80001800000000000000
00000000004000003E00000C00000000000004
0000000000C000007800000C0000000000000C
0000000000800001F000000C000000E0000038
0000000001000003C000000C000003800000F0
00000000010000078000000C00000F000001C0
000000000200000F0000000C00003C00000780
000000000200001E0000000800007800000B00
000000000600003C000000180000B000003600
0000000006000078000000100003700000CC00
00000000040000F0000000200006E00001B000
00000000040000E000000060000DC000066000
00000000040001E0000000C0001380000CC000
00000000040001C00000018000270000198000
00000000040003C00000030000470000630000
000000000600038000000600008E0000CE0000
000000000600078000000C00011C00011C0000
000000000200070000003000023C0006380000
0000000003000700000060000478000C700000
0000000001000E000001C00008700018E00000
0000000001800E000007000110E00021C00000
0000000000E00E00001C000321E000C3800000
0000000000300E0000E0000443C00187000000
00000000001C0E000F000008C380031E000000
000000000007CE01F80000318780063C000000
0000000000007FFF000000430F000878000000
0000000000000600000001860E0010F0000000
00000000000007000000060C1E0021E0000000
0000000000000300000008183C00C3C0000000
0000000000000380000030303C018780000000
00000000000001C00001C06078030F00000000
00000000000000E0000600C0F0061E00000000
000000000000003C00780180F0083C00000000
0000000000000007FF800301E0107800000000
000000000000000000000603C0207000000000
000000000000000000000C03C040F000000000
0000000000000000000018078081E000000000
0000000000780000000030078103C000000000
000000000FFF80000000600F02078000000000
000000007001C0000000C01E040F0000000000
00000001C000E0000001801E081E0000000000
00000003000060000003003C101C0000000000
0000000C0000700000060078203C0000000000
0000001800007000000C007840780000000000
0000003000007000001800F080F0001FE00000
0000004000007000002000E100E00070780000
0000008000007000004001E201E000C01C0000
000001800000E000008003C403C003001C0000
000003000000E000010003C8038006001C0000
0000027FFFFCC0000200079007800C001C0000
00000F800003C00004000720070010001E0000
0000F4000003B80008000F400F0020001E0000
0007080000038F0010001E800E0060001C0000
001C0800000703C020001D001E00C0001C0000
00701800000E00E0C0003E001C0180003C0000
01C01000001E003180003C001C010000380000
03001000003C001F0000780038030000380000
060010000038000E0000F00038020000780000
0C00100000F0000F0000E00038040000F00000
1800100001E000130001C000300C0000E00000
3000100003C000238003800030080001E00000
60001000078000C1C003000030080003C00000
600010000E000181C007000030100003800000
600018003C000200C006000030100007000000
C000080070000C00E00C00003030000E000000
40000C01E0003000E01800003020003C000000
600006078000E000E010000010200078000000
6000031E00038000E0300000182000E0000000
380001F0000E0000E0600000082003C0000000
0E0007F800F00000E000000004600F00000000
03FFF80FFF800000E000000003603800000000
0000000000000001C000000000FFC000000000
0000000000000001C000000000600000000000
00000000000000038000000000200000000000
00000000000000038000000000200000000000
00000000000000070000000000200000000000
000000000000000E0000000000300000000000
000000000000001C0000000000100000000000
00000000000000380000000000080000000000
00000000000000F000000000000C0000000000
00000000000001C00000000000070000000000
0000000000000700000000000001C000000000
0000000000001C000000000000007C0E000000
000000000000F00000000000000003F0000000
00000000000780000000000000000000000000
0000000000F800000000000000000000000000
ENDCHAR
STARTCHAR 004E
ENCODING 78
SWIDTH 1095 0
DWIDTH 92 0
BBX 165 100 -2 -17
BITMAP
0000000000000007C0000000000000000000000000
000000000000003800000000000000000000000000
00000000000001C000000000000000000000000000
000000000000060000000000000000000000000000
000000000000180000000000000000000000000000
000000000000600000000000000000000000000000
000000000000C00000000000000000000000000000
000000000003000000000000000000000000000000
000000000006000000000000000000000000000000
000000000008000000000000000000000000000000
000000000010000000000000000000000000000000
0000000000200000003FFE00000000000000000000
000000000040000003F81F80000000000000000000
00000000008000000F8001C0000000000000000000
00000000018000007C0000E0000000000000000000
0000000003000000F0000060000000000000000000
0000000002000003E0000020000000400000000000
000000000400000780000020000003C00000000000
000000000400001F0000002000000E000000000000
000000000800003C0000002000003C00000003FC00
0000000008000078000000200000780000007C0380
00000000180000F0000000600001B00000038000C0
00000000100001E0000000400003E000001C000060
00000000100001C0000000C00005C0000070000030
00000000100003C000000180001B80000180000030
000000003000078000000100003300000600000018
000000003000070000000200006700000C00000018
0000000030000F000000040000CE00003000000018
0000000030000E0000000C00019C0000C000000018
0000000010001C0000001000033800018000000018
0000000010001C0000006000067800060000000018
0000000018003C000000C0000CF0000C0000000038
00000000080038000003800018E000180000000038
000000000C0038000006000031C000600000000070
00000000060038000018000063C000C0000E0000F0
000000000300380000E000084780018000300000E0
0000000001C03000078000308700030000C00001E0
00000000007030003C0000610F00040001800003C0
00000000001F3007C00000821E0008000200000780
000000000003FFF8000003041C0030000400000F00
00000000000038000000040C3C0060000800001E00
0000000000001800000018187800C0001800003C00
0000000000001C0000006030700180001000007800
0000000000000C0000018060F0030000300000F000
0000000000000600000600C1E0060000200001E000
000000000000038000380181E00800002000078000
00000000000000E001C00303C010000020000F0000
000000000000001FFE0006078020000020003C0000
000000000000000000000C07804000002000780000
00000000000000000000180F008000002001E00000
00000000000000000000301F010000003007800000
00000000007800000000201E030000001C7C000000
000000000FFF80000000403E0600000003C0000000
000000007001C0000000803C0C0000000000000000
00000001C000E00000010078180000000000000000
000000030000600000020078300000000000000000
0000000C00007000000400F0600000000000000000
0000001800007000000800F0C00000000000000000
0000003000007000001001E1800000000000000000
0000004000007000002001C1000000000000000000
0000008000007000004003C2000000000000000000
000001800000E00000800384000000000000000000
000003000000E00001000788000000000000000000
0000027FFFFCC00002000718000000000000000000
00000F800003C00004000F30000000000000000000
0000F4000003B80008000E60000000000000000000
0007080000038F0010001EC0000000000000000000
001C0800000703C020001D80000000000000000000
00701800000E00E0C0003F00000000000000000000
01C01000001E003180003E00000000000000000000
03001000003C001F00007C00000000000000000000
060010000038000E00007C00000000000000000000
0C00100000F0000F0000F800000000000000000000
1800100001E000130000F000000000000000000000
3000100003C000238001E000000000000000000000
60001000078000C1C001C000000000000000000000
600010000E000181C0018000000000000000000000
600018003C000200C0030000000000000000000000
C000080070000C00E0070000000000000000000000
40000C01E0003000E0060000000000000000000000
600006078000E000E00C0000000000000000000000
6000031E00038000E0080000000000000000000000
380001F0000E0000E0180000000000000000000000
0E0007F800F00000E0000000000000000000000000
03FFF80FFF800000E0000000000000000000000000
0000000000000001C0000000000000000000000000
0000000000000001C0000000000000000000000000
000000000000000380000000000000000000000000
000000000000000380000000000000000000000000
000000000000000700000000000000000000000000
000000000000000E00000000000000000000000000
000000000000001C00000000000000000000000000
000000000000003800000000000000000000000000
00000000000000F000000000000000000000000000
00000000000001C000000000000000000000000000
000000000000070000000000000000000000000000
0000000000001C0000000000000000000000000000
000000000000F00000000000000000000000000000
000000000007800000000000000000000000000000
0000000000F8000000000000000000000000000000
ENDCHAR
STARTCHAR 004F
ENCODING 79
SWIDTH 678 0
DWIDTH 57 0
BBX 94 94 -13 -6
BITMAP
000003800000000000000000
00001E000000000000000000
000070000000000000000000
000180000000000000000000
000700000000000000000000
001C00000000000000000000
003800000000000000000000
00600000000FE00000000000
00C0000000FFFE0000000000
0180000007C00F0000000000
030000001E00018000000000
060000007000008000000000
0E000000C00000C000000000
1C000003800000C000000000
18000006000000C000000000
3800001C000000C000000000
70000038000000C000000000
700000700000008000000000
600000C00000018000000000
E00001800000010000000000
E00001800000030000000000
E00003000000060000000000
E00006000000040000000000
C0000C0000000C0000007FE0
C0000C00000018000003C030
C000180000003000000E0018
E0001000000060000018000C
E00030000000C0000000000C
E0002000000380003F800004
7000600000060003FBC00004
70004000001C001F00600004
3800C000003000FC00200004
1C00C00000E003F00020000C
0E008000078007C00060000C
070180001C001F000060000C
01E18000F0007E0000400008
007D800F0000FC0000C00018
0007FFF00003F00000800018
000100000007E00001800030
00030000000FC00003000030
00030000001F000006000020
00030000007E00000C000060
0003000000FC0000180000C0
0001000001F80000300000C0
0001000003F0000060000180
0001800007E00000C0000180
000180000FC0000380000300
000180001F80000700000300
0000C0003F00001C00000600
0000E0007E00003800000C00
00006000FC0000E000000C00
00003000F800038000001800
00001801F8000E0000003800
00000E03F000380000007000
00000787E001E00000006000
000001FFC01F00000000C000
0000003FFFF000000001C000
0000001FF000000000038000
0000003F0000000000030000
0000007E0000000000060000
0000007C00000000000C0000
000000FC00000000001C0000
000000F80000000000380000
000001F00000000000300000
000003F00000000000600000
000003E00000000000C00000
000007C00000000001800000
000007C00000000003000000
00000F800000000006000000
00000F80000000000C000000
00001F000000000018000000
00001F000000000030000000
00001E000000000060000000
00003E0000000000C0000000
00003C000000000180000000
00003C000000000300000000
000078000000000600000000
000078000000000C00000000
000078000000003800000000
000070000000007000000000
00007000000000C000000000
0000F0000000018000000000
0000F0000000070000000000
0000F00000000E0000000000
0000F0000000180000000000
000070000000700000000000
000070000000C00000000000
000070000003800000000000
00003000000E000000000000
000038000018000000000000
00001C000060000000000000
00000E000380000000000000
000007801E00000000000000
000001FFE000000000000000
ENDCHAR
STARTCHAR 0050
ENCODING 80
SWIDTH 952 0
DWIDTH 80 0
BBX 146 92 0 -19
BITMAP
00000000000000000FFE000000000000000000
0000000000000001F80FC00000000000000000
000000000000000F0000780000000000000000
000000000000007800001C0000000000000000
00000000000001C000000E0000000000000000
00000000000007000000070000000000000000
0000000000001C000000038000000000000000
00000000000030000000018000000000000000
000000000000C000000001C000000003FFC000
0000000000018000000001FFE000001E00F800
00000000000600000000FEC01F8000E0001C00
00000000000C0000000F00C000F00380000F00
0000000000300000007000E0001C0E00000700
000000000060000001C000E000073800000380
0000000000400000060000E00003E000000180
0000000000000000180000C00003C0000001C0
0000000000000000700000C00007E0000001C0
0000000000000000C00000C0001E70000001C0
0000000000000003800001C0003C38000001C0
0000000000000007000001C000783800000180
000000000000000E0000018001E03800000180
000000000000001C0000038003C03C00000380
00000000000000380000030007803C00000300
0000000000000070000007000F003C00000600
00000000000000E0000006001E003C00000C00
00000000000000C000000E003C003C00001800
00000000000001C000001C00F8003C00003000
000000000000038000001C01F000380000C000
000000000000030000003803E0007800038000
000000000000070000007007C00078001C0000
00000000000007000000E00F8000F000E00000
00000000000006000001C01F0001E000000000
0000000000000E000003803E0001E000000000
0000000000000E000007003C0003C000000000
0000000000000E00000E007800078000000000
0000000000000E00001C00F0000F0000000000
0000000000000E00003801E0001E0000000000
0000000000000E0000E003C0007C0000000000
00000000000007000380078000F80000000000
00000000000003800E000F0003E00000000000
00000000000001C078001E0007C00000000000
000000000000007F80003C001F000000000000
000000000000000000007800FC000000000000
0000000001FC00000004F00FE0000000000000
000000001F1F80000003FFFF00000000000000
000000006001C0000003E00000000000000000
000000018000E0000007C00000000000000000
0000000600006000000F800000000000000000
0000000800006000001F000000000000000000
0000001000006000003E000000000000000000
0000006000006000007C000000000000000000
000000C00000600000F8000000000000000000
000000800000E00001F0000000000000000000
000001000000E00003E0000000000000000000
000002007E00E00007C0000000000000000000
000006FF81FFC0000F80000000000000000000
00001F000003E0001F00000000000000000000
0001E8000003B8003E00000000000000000000
000F080000070F007C00000000000000000000
0038180000070380F800000000000000000000
00E01000000E00E1F000000000000000000000
01801000001C0073E000000000000000000000
070030000038001FC000000000000000000000
0C0030000070000F8000000000000000000000
1800200000F0001E0000000000000000000000
3000200001C0003F0000000000000000000000
70003000038000738000000000000000000000
600030000F0000E38000000000000000000000
C00010001E000381C000000000000000000000
C000100038000701C000000000000000000000
C0001800F0001C01C000000000000000000000
C0000C03C0007000E000000000000000000000
4000060F0001C000E000000000000000000000
6000033C000F0000E000000000000000000000
300001E0003C0000E000000000000000000000
0E001F7803E00001C000000000000000000000
01FFF00FFE000001C000000000000000000000
0000000000000001C000000000000000000000
00000000000000038000000000000000000000
00000000000000038000000000000000000000
00000000000000070000000000000000000000
000000000000000E0000000000000000000000
000000000000001E0000000000000000000000
000000000000003C0000000000000000000000
00000000000000700000000000000000000000
00000000000000E00000000000000000000000
00000000000003C00000000000000000000000
0000000000000F000000000000000000000000
0000000000003C000000000000000000000000
000000000001E0000000000000000000000000
00000000000F00000000000000000000000000
0000000000F000000000000000000000000000
ENDCHAR
STARTCHAR 0051
ENCODING 81
SWIDTH 1214 0
DWIDTH 102 0
BBX 96 95 0 -21
BITMAP
000000000003FF0000000000
00000000003C00F000000000
0000000003C0001C00000000
000000000C00000700000000
000000007000000180000000
0000000180000000C0000000
0000000600000000C0000000
000000180000000060000000
000000300000000020000000
000000C00000000030000000
0000010000000000FFFF8000
000006000000001F3001F800
00000C00000001E030001E00
000010000000070030000780
0000200000003800300003C0
000040000000E000300000E0
0000800000038000300000F0
00010000000E000030000070
000000000038000070000038
000000000060000070000038
0000000001C000007000003C
0000000003000000E000003C
0000000006000000E000003C
0000000018000001E000003C
0000000030000001C000003C
0000000060000003C000003C
00000000C00000038000003C
00000001800000078000003C
000000030000000F00000078
000000060000000F00000078
0000000C0000001E00000078
000000180000003C000000F0
000000300000003C000000F0
0000003000000078000001E0
00000060000000F0000001E0
000000C0000001E0000003C0
00000080000003C0000007C0
000001800000078000000780
0000030000000F8000000F80
0000030000001E0000001F00
0000060000003C0000001E00
000006000000780000003E00
000004000001F00000007C00
000004000003E0000000F800
00000C00000F80000001F000
00000C00001E00000003E000
00000C00007C00000007C000
00000C0001F00000000F8000
0000060007800000001F0000
000007003C000000003E0000
000001FFE0000000007C0000
000000000000000000F80000
000000000000000001F00000
000000000000000003E00000
000000000000000007C00000
00000000000000000F800000
00000000000000001F000000
00000000000000007C000000
0000000000000000F8000000
0000000000000001F0000000
0000000000000007C0000000
000000000000000F80000000
000000000000003E00000000
000000000000007C00000000
00000000000001F0003FFFC0
003FFFC0000007E003C000F0
01F00FFF80001F800E00001C
0600001FFC007E0030000006
18000001FFC0F800C0000003
300000001FFFE00180000003
4000000001FFE00300000003
C0000000007FFE0400000003
8000000001F1FFEC00000002
800000000F803FFF00000006
C00000007E0003FFF800001C
C0000003F000003FFFC00070
6000003F000000207FFFFFC0
18000FF000000060007FFE00
07FFFC000000006000000000
000000000000006000000000
000000000000006000000000
000000000000006000000000
000000000000006000000000
000000000000006000000000
000000000000006000000000
000000000000003000000000
000000000000003000000000
000000000000001800000000
000000000000000C00000000
000000000000000600000000
000000000000000300000000
000000000000000180000000
000000000000000060000000
00000000000000001E00F000
000000000000000001FF8000
ENDCHAR
STARTCHAR 0052
ENCODING 82
SWIDTH 1511 0
DWIDTH 127 0
BBX 146 94 -1 -18
BITMAP
00000000000000000FFE000000000000000000
0000000000000001FC0FE00000000000000000
000000000000000F0000780000000000000000
000000000000003800001C0000000000000000
00000000000001C00000060000000000000000
00000000000007000000030000000000000000
0000000000000C000000038000000000000000
00000000000030000000018000000000000000
000000000000E000000001C000000000000000
0000000000018000000001FFE0000003FFC000
00000000000600000000FEC01F00001E007800
00000000000C0000000700E000E000F0001E00
0000000000300000003800E0001C0380000700
000000000060000001C000E000060E00000380
0000000000400000070000E00001B800000380
00000000000000001C0000E00000F0000001C0
0000000000000000700000C00001E0000001C0
0000000000000000C00000C00007B0000001C0
0000000000000003800001C0000E30000000C0
0000000000000007000001C0003C18000001C0
000000000000000E00000180007818000001C0
000000000000001C0000038000F01C00000180
00000000000000380000038003C01C00000380
00000000000000700000070007801C00000300
0000000000000060000007000F001C00000600
00000000000000C000000E001E001C00000C00
00000000000001C000000C003C001C00001800
000000000000018000001C0078003800003000
000000000000038000003800F000380000E000
000000000000070000007001E0007800038000
000000000000070000006003C00070001C0000
00000000000006000000E0078000F000E00000
0000000000000E000001C00F0001E000000000
0000000000000E000003001E0003C000000000
0000000000000E00000E003C00078000000000
0000000000000E00001C0078000F0000000000
0000000000000E00003800F0001E0000000000
000000000000060000E001E000780000000000
00000000000007000181FFE001F00000000000
00000000000003800E06079C07C00000000000
00000000000001E078040F031E000000000000
000000000000007F80061E01F0000000000000
00000000000000000003FEFF40000000000000
000000000000000000007F8020000000000000
0000000001FC00000000F80030000000000000
000000001F0F80000001F00030000000000000
000000006001C0000003E00030000000000000
000000018000E0000007C00030000000000000
0000000600006000000F800070000000000000
0000000C00007000001F000070000000000000
0000001000007000003E0000F0000000000000
0000002000007000007C0000E0000000000000
000000400000700000F80001E0000000000000
000000800000600001F00003E0003F80000000
000001000000E00003E00007C001C0E0000000
000003007E00E00007C0000F80070070000000
000002FF81FFC0000F80001F801C0070000000
00001F000001E0001F00003F00300070000000
0001EC000003BC003E00003E00600070000000
00070800000787007E00007C00800070000000
00381800000701C0F80000F803000070000000
00E01000000E00E1F00000F0020000F0000000
01801000001C0033E00001E0040000E0000000
07001000003C001FC00001C00C0001E0000000
0E0030000078000F800003C0180001C0000000
1800300000F0001F00000380100003C0000000
3800300001E0003F0000038030000380000000
300030000380007B8000030020000780000000
60001000070000E18000030060000700000000
600010001E000381C000030040000E00000000
C00010003C000701C000030040001C00000000
C0001800F0001C00E0000300C0003800000000
C0000C01C0007000E000030080007000000000
600006070001C000E00001008000E000000000
6000033C00070000E00001008001C000000000
380001F0003C0000E000008080070000000000
0E000F7C03E00000E00000C0801C0000000000
01FFF00FFE000001C000002180700000000000
0000000000000001C000001F87800000000000
0000000000000001C0000001F8000000000000
00000000000000038000000080000000000000
00000000000000070000000080000000000000
00000000000000070000000080000000000000
000000000000000E0000000080000000000000
000000000000001C0000000040000000000000
00000000000000780000000040000000000000
00000000000000E00000000060000000000000
00000000000001C00000000020000000000000
00000000000007000000000010000000000000
0000000000003C000000000008000000000000
000000000000E0000000000004000000000000
00000000000F00000000000003000000000000
0000000000F000000000000000E00600000000
000000000000000000000000001FF800000000
ENDCHAR
STARTCHAR 0053
ENCODING 83
SWIDTH 928 0
DWIDTH 78 0
BBX 124 84 0 -18
BITMAP
0000000000000000001FFF0000000000
000000000000000001E0000000000000
00000000000000000E00000000000000
00000000000000003800000000001F80
0000000000000000600000000001E0E0
00000000000000018000000000070020
000000000000000300000000001C0030
00000000000000060000000000780010
000000000000000C0000000001E00030
00000000000000180000000003C00020
00000000000000300000000007800020
0000000000000020000000001F000040
0000000000000060000000003E000040
00000000000000C0000000007C000080
000000000000008000000000F8000100
000000000000018000000001F0000300
000000000000018000000003E0000600
000000000000010000000007C0000400
00000000000003000000000F80000800
00000000000003000000001F80003000
00000000000003000000001F00006000
00000000000003000000003E0000C000
00000000000003000000007C00018000
0000000000000300000000F800030000
0000000000000300000001F8000E0000
0000000000000300000001F000180000
0000000000000300000003E000700000
0000000000000180000007C000C00000
000000000000018000000FC003800000
00000000000000C000000F800E000000
00000000000000C000001F0018000000
000000000000006000003F00E0000000
000000000000003000007E0380000000
000000000000001800007C0E00000000
000000000000000E0000F87000000000
0000000001FC00038001FB8000000000
000000001F1F8000F003FC0000000000
000000006001C0001FFFE00000000000
000000018000C0000007C00000000000
000000060000E000000FC00000000000
0000000C00006000001F800000000000
0000001800006000003F000000000000
0000003000006000003E000000000000
0000006000006000007C000000000000
000000C00000E00000FC000000000000
000001800000E00001F8000000000000
000001007E00C00001F0000000000000
000003FF81FFC00003E0000000000000
00003E000003E00007C0000000000000
0001E6000003B8000F80000000000000
000E040000070E001F00000000000000
00380C00000F03803E00000000000000
00E00C00000E00E07C00000000000000
03800800001C0070F800000000000000
0700080000380039F000000000000000
0C0008000070001FE000000000000000
1800080000E0000FC000000000000000
3000180001C0000F8000000000000000
600018000380001F8000000000000000
600008000F00003F8000000000000000
C00008001E000079C000000000000000
C0000800380001F1C000000000000000
C0000C00F00003C1C000000000000000
C0000403C0000F80C000000000000000
C000060F00003E00E000000000000000
6000033C00007800E000000000000000
300001E00003C001C000000000000000
0E001FE0001F0001C000000000000000
03FFE03F03F00001C000000000000000
00000003FE000001C000000000000000
00000000000000038000000000000000
00000000000000038000000000000000
00000000000000070000000000000000
000000000000000E0000000000000000
000000000000001C0000000000000000
00000000000000380000000000000000
00000000000000700000000000000000
00000000000000E00000000000000000
00000000000003800000000000000000
0000000000000F000000000000000000
0000000000003C000000000000000000
000000000001E0000000000000000000
00000000000F00000000000000000000
0000000001F000000000000000000000
ENDCHAR
STARTCHAR 0054
ENCODING 84
SWIDTH 952 0
DWIDTH 80 0
BBX 166 102 -1 -20
BITMAP
00000000000000000000000000000000000000F800
0000000000000000000000000000000000007FFF80
000000000000000000000000000000000003F003E0
0000000000000000003FF80000000000001E000070
000000000000000003E03F80000000000070000018
00000000000000003C0000F000000000018000000C
0000000000000000E0000018000000000000000004
00000000000000070000000E000000000000000004
000000000000001C00000002000000000000000004
00000000000000300000000100000000000000000C
00000000000000C000000001800000000000000008
000000000000018000000000800000000000000010
00000000000006000000001FFFFC00000000000030
0000000000000C00000003E0C07FF80000000000C0
000000000000300000001E004001FFC00000000380
00000000000060000000F00040000FFF0000000F00
000000000000C0000003C0004000007FFC0000FC00
0000000000010000000F0000C0000001FFFFFFE000
0000000000000000003C00008000000007FFFE0000
000000000000000000F80000800000600000000000
000000000000000001E00000800001800000000000
000000000000000003C00001800006000000000000
000000000000000007000001000018000000000000
00000000000000001E000003000070000000000000
00000000000000003C0000020001C0000000000000
000000000000000038000006000380000000000000
000000000000000070000004000E00000000000000
0000000000000000E000000C001C00000000000000
0000000000000001C0000018007800000000000000
00000000000000038000001000E000000000000000
00000000000000030000002001C000000000000000
000000000000000700000060038000000000000000
0000000000000006000000C0070000000000000000
000000000000000C000001801E0000000000000000
000000000000000C000003003C0000000000000000
000000000000000C00000600780000000000000000
000000000000000800000C00F00000000000000000
000000000000000800001801E00000000000000000
000000000000000800002003C00000000000000000
00000000000000080000C007800000000000000000
000000000000000C0001000F000000000000000000
00000000000000040006001E000000000000000000
00000000000000030038003C000000000000000000
0000000000000001FFC00078000000000000000000
0000000000000000000000F0000000000000000000
0000000000000000000001E0000000000000000000
0000000000000000000003C0000000000000000000
000000000000000000000780000000000000000000
000000000000000000000F00000000000000000000
000000000000000000001E00000000000000000000
000000000000000000003C00000000000000000000
000000000000000000007C00000000000000000000
00000000000000000000F800000000000000000000
0000000007FF00000001F000000000000000000000
000000003803C0000003E000000000000000000000
00000000C000E0000007C000000000000000000000
0000000300006000000F8000000000000000000000
0000000C00006000001F0000000000000000000000
0000001800007000003E0000000000000000000000
0000003000007000007C0000000000000000000000
000000600000700000F80000000000000000000000
000000C00000600001F00000000000000000000000
000001800000E00003E00000000000000000000000
000003000000E00007C00000000000000000000000
0000021FFFF8C0000F800000000000000000000000
000007E0000FC0001F000000000000000000000000
00007C000003F8003E000000000000000000000000
0003880000039E007C000000000000000000000000
001C080000070380F8000000000000000000000000
00701800000F00E1F0000000000000000000000000
00C01000001E0073E0000000000000000000000000
03801000001C003FC0000000000000000000000000
060010000038001F80000000000000000000000000
0C0030000070001E00000000000000000000000000
1800300000E0003F00000000000000000000000000
3000300003C0007B80000000000000000000000000
60003000078001E380000000000000000000000000
600010000F0003C1C0000000000000000000000000
C00010003C000F01C0000000000000000000000000
C000180078001E00C0000000000000000000000000
C0000801E0007800E0000000000000000000000000
40000C078001E000E0000000000000000000000000
6000071E00078000E0000000000000000000000000
300001F8001E0000E0000000000000000000000000
1C0007F000F00000E0000000000000000000000000
07F3FC1FFF800001C0000000000000000000000000
001E000000000001C0000000000000000000000000
0000000000000001C0000000000000000000000000
000000000000000380000000000000000000000000
000000000000000380000000000000000000000000
000000000000000700000000000000000000000000
000000000000000E00000000000000000000000000
000000000000001C00000000000000000000000000
000000000000003800000000000000000000000000
000000000000007000000000000000000000000000
00000000000001C000000000000000000000000000
000000000000038000000000000000000000000000
0000000000001E0000000000000000000000000000
000000000000700000000000000000000000000000
000000000003C00000000000000000000000000000
00000000007C000000000000000000000000000000
000000000080000000000000000000000000000000
ENDCHAR
STARTCHAR 0055
ENCODING 85
SWIDTH 869 0
DWIDTH 73 0
BBX 120 92 -29 -19
BITMAP
000000007FE0000000000000000000
0000000F801E000000000000000000
000000700001C00000000000000000
000003800000300000000000000000
00001C000000180000000000000000
000060000000040000000000000000
000180000000020000000000000000
000600000000030000000000000000
001800000000018000000000000000
006000000000008000000000000000
00800000000000FC00000000000000
0300000000001FC3C0000000000000
040000000000E0C030000000000004
08000000000700400C00000000007F
1000000000380040060000000001C3
6000000000E0004002000000000703
400000000300004003000000001E06
800000000C0000C001000000007806
00000000380000C00100000000F00C
00000000600000C00100000003C008
00000001800000C001000000078010
00000003000001C0010000001E0030
0000000600000180030000003C0060
0000001800000380030000007800C0
000000300000038003000001F00180
000000600000070006000003C00300
000000C00000070006000007800400
0000018000000E000E00000F001800
0000010000000C001C00001E003000
0000030000001C003C00003C006000
00000600000038003800007800C000
0000060000007000780001F0018000
00000C000000E000F00003E0060000
00000C000001E001F00007C00C0000
000018000003C003E0000F80180000
0000180000070007C0001F00300000
00001800000E000F80003E00C00000
00001800003C001F80007C01800000
000018000070003F0000F803000000
0000180001E0007E0001F00C000000
00000C00070000FC0003E018000000
00000E003C0003F80007C030000000
000007FFE00007F0000780C0000000
0000007000000FE0000F0180000000
0000000000001FC0001E0300000000
0000000000003F80003C0C00000000
0000000000007F0000781800000000
000000000000FE0000F07000000000
000000000001F80001E0C000000000
000000000003F00001E18000000000
000000000007E00003C60000000000
00000000001FC000078C0000000000
00000000003F80000F30007F000000
00000000007F00000E6003C3C00000
0000000000FE00001F800E00E00000
0000000001FC00003F003800600000
0000000001F000003C006000600000
0000000003E000007800C000600000
0000000007C00000F0038000600000
000000000F800001E0060000600000
000000001F000003E0040000600000
000000003E00000FC00C0000400000
000000003C00001B80180000C00000
000000007800006380300000800000
00000000F00001C700200001800000
00000000E000030700600003000000
00000001C0000E0E00400006000000
00000001C000380E00C0000C000000
000000038000600C00800018000000
000000030001801C00800030000000
000000030007001C01800060000000
00000003001C001C010000C0000000
000000020070001801000300000000
0000000201C0001801000600000000
000000030E00001C01001800000000
00000001F800001C01007000000000
000000008000000C0301C000000000
000000000000000E030F0000000000
000000000000000781780000000000
0000000000000001FFC00000000000
000000000000000039000000000000
000000000000000001000000000000
000000000000000001000000000000
000000000000000000800000000000
000000000000000000800000000000
000000000000000000C00000020000
000000000000000000600000040000
000000000000000000300000080000
000000000000000000180000300000
0000000000000000000C0000C00000
000000000000000000038007000000
00000000000000000000FFF8000000
ENDCHAR
STARTCHAR 0056
ENCODING 86
SWIDTH 892 0
DWIDTH 75 0
BBX 106 86 0 -21
BITMAP
00000000003FFC00000000000000
0000000003C00300000000000000
000000001C0000C0000000180000
00000000600000200000003C0000
0000000180000010000000440000
0000000600000018000000440000
0000001800000008000000840000
000000600000000C000000840000
0000008000000004000000840000
0000030000000004000000840000
00000400000000060000008C0000
0000080000000006000000880000
0000300000000006000000980040
0000600003F80006000000980080
0000C0001C0C0006000000D00100
000180006006000E000000700600
000300018006000E000000600800
000600030006000E000000703000
0004000C0006001C000000CFC000
00080018000E001C000000800000
00180030000C003C000001800000
00100040001C0078000003000000
0030008000180078000002000000
00200100003800F0000004000000
00600600007001F000000C000000
00400C0000E001E0000008000000
0040080001C003E0000010000000
00401000038007C0000020000000
00C0200007000F80000060000000
00C060000E001F800000C0000000
00C0C0001C003F00000180000000
0041800070007E00000100000000
00430000E000FC00000200000000
006200038001F800000400000000
0066000E0003F000000800000000
003C00380007E000001000000000
001801E0000FC000002000000000
001FFF00003F8000004000000000
0030E000007F000000C000000000
0020000000FE0000018000000000
0060000001FC0000030000000000
00C0000003F80000060000000000
0080000007E00000080000000000
018000000FC00000100000000000
010000001F800000600000000000
030000003F000000C00000000000
020000007E000001800000000000
06000000FC000003000000000000
04000001F8000006000000000000
0C000003E000000C000000000000
08000007C0000018000000000000
1800000780000060000000000000
1000000F000000C0020000000000
1000001E00000180020000000000
2000003C00000700060000000000
2000003800000C00040000000000
20000070000018000C0000000000
4000007000007000080000000000
400000E00000C000180000000000
400000C000038000100000000000
400000C000060000300000000000
80000180001C0000200000000000
8000018000300000600000000000
8000018000E00000C00000000000
8000018003800000800000000000
800000800E000001000000000000
8000008038000003000000000000
80000063E0000006000000000000
8000003F0000000C000000000000
8000000000000018000000000000
8000000000000030000000000000
8000000000000060000000000000
80000000000000C0000000000000
C000000000000100000000000000
4000000000000600000000000000
4000000000000C00000000000000
6000000000003000000000000000
2000000000006000000000000000
3000000000018000000000000000
1800000000070000000000000000
0C000000001C0000000000000000
0600000000700000000000000000
0380000001800000000000000000
00E000000E000000000000000000
003C0000F0000000000000000000
000FFFFF00000000000000000000
ENDCHAR
STARTCHAR 0057
ENCODING 87
SWIDTH 726 0
DWIDTH 61 0
BBX 141 78 -10 -8
BITMAP
0000000000FFF80000000000000000000000
000000000F00060000000000000000000000
000000007000030000000000000000000000
000000038000018000000000000000000000
0000000C0000018000000000000000000000
000000300000018000000000000000000000
000000C00000038000000000000000000000
000003000000030000000000000000000000
00000600000007000000000000000001F000
0000180000000700000000000000003FFE00
0000300000000E001F000000000001E00380
0000400000001C00F18000300000070001C0
0001800000003803810000E000001C000060
000300000000700703000180000070000060
000600000000E01C060007000001C0000030
000C00000000C03818001E00000300000030
001800000000C07070003C00000E00000030
00300000000080E0C000D800001800000038
00600000000081C70001B800003000000038
00C000000000479C0003700000C000000038
0180000000003FE0000CE000018000000038
0300000000001E000019C000030000000030
0200000000001C0000338000060000000070
0600000000003800006780000C0000000070
0C0000000000780000CF00003000000000E0
080000000000F000011E000060001C0000E0
180000000001E000023C0000C000600001C0
300000000003C0000C7800018001800003C0
300000000007C00018F80003000300000780
200000000007800030F00006000600000700
60000000000F000061E00018000C00000E00
40000000001E0000C3C00030001800001C00
40000004003E000107C00060001000003800
C0000008007C00020F8000C000200000F000
C00000300078000C1F00018000600001E000
C000004000F000181E00060000400003C000
C000018001F000303E000C00004000078000
6000060003E000607C0018000040001E0000
6000180003C000C0F80030000040003C0000
3000E00007800180F0006000004000F00000
1E0780000F800301F001C000004003C00000
07FC00001F000403E003000000200F000000
000000001E001807C00600000038FC000000
000000003E003007C00C00000007C0000000
000000007C00600F80180000000000000000
000000007800C01F00300000000000000000
00000000F001801F00E00000000000000000
00000001F003003E01800000000000000000
00000003E006007C03000000000000000000
00000003C00800F806000000000000000000
00000007803000F80C000000000000000000
0000000F806001F038000000000000000000
0000001F00C003E070000000000000000000
0000001E018003C0C0000000000000000000
0000003C030007C180000000000000000000
0000007806000F8300000000000000000000
000000F80C001F0600000000000000000000
000000F030001E1C00000000000000000000
000001E060003E3800000000000000000000
000003C0C0007C6000000000000000000000
000007818000F8C000000000000000000000
000007070000F18000000000000000000000
00000E0C0001E70000000000000000000000
00001C180003CE0000000000000000000000
000038300007980000000000000000000000
000078C00007300000000000000000000000
0000F180000F600000000000000000000000
0000E300001EC00000000000000000000000
00018C00003F800000000000000000000000
00031800003E000000000000000000000000
00066000007C000000000000000000000000
000CC00000F8000000000000000000000000
001B000001E0000000000000000000000000
003E000003C0000000000000000000000000
007800000780000000000000000000000000
01F000000E00000000000000000000000000
01C000001C00000000000000000000000000
000000001000000000000000000000000000
ENDCHAR
STARTCHAR 0058
ENCODING 88
SWIDTH 1047 0
DWIDTH 88 0
BBX 111 94 -1 -24
BITMAP
00000007FFE00000000000000000
00000078001E0000000000000000
0000038000018000000000000000
00000C0000006000000000000000
0000300000003000000000000000
0001C00000000C00000000000000
0003000000000400000000000000
000C000000000600000000000000
0030000000000300000000000000
00400000000001C0000000000000
018000000001FFBFC00000000000
02000000001E0181F00000000000
04000000007000C07C000000003C
08000000038000C03E00000007E6
30000000060000C01F0000003E02
60000000180000C00F000000F002
40000000700000C00F800007C002
80000000C00000C00F80001F0004
00000001800001C00F80003E0004
00000003000001C00F8000F80008
00000006000001C00F8003E00010
0000000C000001800F8007C00020
00000018000003800F801F000040
00000010000003800F803E000080
00000030000007001F00FC000300
00000060000007001F01F0000600
0000004000000E001F07E0000800
000000C000001E003E0FC0003000
0000008000003C003E1F00004000
00000180000038007C3E00018000
0000018000007000FCFC00060000
000001000000E000F9F8000C0000
000001000001C001FBE000300000
0000010000038001F7C000C00000
00000100000F0003EF8003000000
00000100001E0007FF000C000000
000001800078000FFE0030000000
0000008000E0000FFC00C0000000
000000C007C0001FF80300000000
000000703E00003FF00C00000000
0000001FF000007FE07000000000
000000000000007FC18000000000
00000000000000FF8E0000000000
00000000000001FF300000000000
00000000000003FFC00000000000
00000000000007FE000000000000
0000000000000FF8000000000000
0000000000001FF0000000000000
0000000000003FE0000000000000
0000000000007FC0000000000000
000000000000FF80000000000000
000000000003FF00000000000000
00000000001FFE00007C00000000
0000000000E7FE0003EF00000000
00000000070FBC000E0380000000
00000000181F78001801C0000000
00000000E03EF0006001C0000000
00000007007CE000C001C0000000
0000003800F1E0018001C0000000
000001C003E1C0030001C0000000
0000060007C380060001C0000000
000038000F83800C0001C0000000
0000C0001E0700180003C0000000
000700007C0700100003C0000000
001C0000F00E0030000380000000
00600001E00E0060000780000000
01800007801C0040000700000000
0300000F001C00C0000F00000000
0C00003C001C0080001E00000000
1800007800180080003C00000000
300001E000180180003800000000
2000078000180100007000000000
60000E000018010000E000000000
600038000018010001C000000000
6001E00000180100078000000000
60070000001802000E0000000000
30F80000000C02001C0000000000
0F000000000C0200700000000000
0000000000060201C00000000000
0000000000030207000000000000
000000000001C278000000000000
0000000000003F80000000000000
0000000000000100000000000000
0000000000000100000000000000
0000000000000100000000000000
0000000000000080000000000000
0000000000000080000000000000
0000000000000040000000000000
0000000000000040000000000000
0000000000000020000000000000
0000000000000010000000000000
000000000000000C000000000000
0000000000000003000000000000
0000000000000000FFF000000000
ENDCHAR
STARTCHAR 0059
ENCODING 89
SWIDTH 595 0
DWIDTH 50 0
BBX 132 117 -35 -44
BITMAP
00000000007FE000000000000000000000
000000000F801E00000000000000000000
00000000700001C0000000000000000000
0000000380000030000000000000000000
0000001C00000018000000000000000000
0000006000000004000000000000000000
0000018000000002000000000000000000
0000060000000003000000000000000000
0000180000000001000000000000000000
0000600000000001800000000000000000
0000800000000000FC0000000000000000
000300000000001FC3C000000000000000
00040000000000E0C03000000000000000
0008000000000700C00C000000000000E0
0030000000003800400600000000000FF0
006000000000C000400200000000007030
00C0000000030000C00300000000018030
00800000000C0000C00100000000060020
0000000000300000C00100000000080060
0000000000600000C001000000003000C0
0000000001800000C00100000000C00180
0000000003000001C00100000001800300
0000000006000001800300000003000200
000000001800000380030000000E000C00
0000000030000003800300000018001800
0000000060000007000600000030003000
00000000C0000007000E00000060006000
000000018000000E000E000000C000C000
000000010000000C001C00000380018000
000000030000001C003C00000700060000
0000000600000038007800000E000C0000
0000000400000070007800001C00180000
0000000C000000E000F000003800200000
0000000C000001C001E000007000C00000
000000180000038003E00000E001800000
000000180000070007C00001C003000000
0000001800000E000F800003800C000000
0000001800003C001F0000070018000000
00000018000070003F00000E0060000000
000000180001C0007E00001E00C0000000
0000000C00070000FC00003C0180000000
0000000E003C0003F80000780600000000
00000007FFE00007F00000F00C00000000
000000007000000FE00001E03000000000
000000000000001FC00003C06000000000
000000000000003F800007818000000000
000000000000007F00000F030000000000
00000000000000FC00001E0C0000000000
00000000000001F800003E180000000000
00000000000003F000003C600000000000
0000000000000FE0000078C00000000000
0000000000001FC00000F3000000000000
0000000000003F800001E6000000000000
0000000000007F000003D8000000000000
000000000000FE000007F0000000000000
000000000001FC00000FC0000000000000
000000000003F000001F00000000000000
000000000003E000003E00000000000000
000000000007C000007C00000000000000
00000000000F800000F800000000000000
00000000001F000001F000000000000000
00000000003E000003E000000000000000
00000000007C00000FE000000000000000
00000000007800003FC000000000000000
0000000000F000006F8000000000000000
0000000000E000019F0000000000000000
0000000001C000063E0000000000000000
0000000001C0001C7C0000000000000000
0000000003800070F80000000000000000
00000000030001C1F80000000000000000
0000000003000301F00000000000000000
0000000003001C03E00000000000000000
0000000002007007C00000000000000000
000000000201C00F800000000000000000
00000000030F001F000000000000000000
0000000001F8003E000000000000000000
000000000080007C000000000000000000
00000000000000FC000000000000000000
00000000000001F8000000000000000000
00000000000003F0000000000000000000
0000000000001FFFF00000000000000000
000000000003EFC00E0000000000000000
00000000003E0F80038000000000000000
0000000003E01F00018000000000000000
000000001F003E0001C000000000000000
0000000078007C0001C000000000000000
00000003E000F80001C000000000000000
0000000F8001F000018000000000000000
0000003C0003E000038000000000000000
000000F00007C000030000000000000000
000003C0000FC000070000000000000000
00000F00001F80000E0000000000000000
00001E00003F00001C0000000000000000
00007800007E0000380000000000000000
0000E00000FC0000700000000000000000
0003C00001F80000C00000000000000000
0007000003E00003800000000000000000
000E000007C00006000000000000000000
003800000F80001C000000000000000000
007000001F000070000000000000000000
00E000083E0001C0000000000000000000
01C000067C000600000000000000000000
03000003F8003800000000000000000000
06000003F003C000000000000000000000
0C000007FFFC0000000000000000000000
0800000F80000000000000000000000000
1000001F00000000000000000000000000
3000007C00000000000000000000000000
600000F800000000000000000000000000
400001F000000000000000000000000000
400007C000000000000000000000000000
80000F0000000000000000000000000000
80003E0000000000000000000000000000
8000F80000000000000000000000000000
C003C00000000000000000000000000000
701F000000000000000000000000000000
1FF0000000000000000000000000000000
ENDCHAR
STARTCHAR 005A
ENCODING 90
SWIDTH 785 0
DWIDTH 66 0
BBX 118 108 0 -38
BITMAP
000000000000000000010000003FF8
00000000000000000003000003C00C
0000000000000000000200001E000C
00000000000000000004000070000C
000000000000FFFFC0080001C00018
00000000001F000FFF980007000030
0000000001E000003FFC001E000040
000000000700000001FFF038000180
0000000018000000004FFFF0000E00
000000007000000000803FFFFFF000
00000001C00000000100078FFC0000
000000038000000006000E00000000
00000007000000000C003C00000000
0000000E0000000010007800000000
0000001C000000002000F000000000
00000038000000004003E000000000
000000300000000180078000000000
0000007000000002000F0000000000
000000600000000C001E0000000000
000000E000000010003C0000000000
000000E00000006000780000000000
000000C00000018000F00000000000
000000C00000060003E00000000000
000000E000001C0007C00000000000
00000060000070000F800000000000
00000070000180001F000000000000
00000038000E00003E000000000000
0000000E01F000007C000000000000
00000001FE000000F8000000000000
0000000000000001F0000000000000
0000000000000003E0000000000000
0000000000000007C0000000000000
000000000000000F80000000000000
000000000000001F00000000000000
000000000000003E00000000000000
000000000000007C00000000000000
00000000000000F800000000000000
00000000000001F000000000000000
00000000000003E000000000000000
00000000000007C000000000000000
0000000000000F8000000000000000
0000000000001F0000000000000000
0000000FFFFE3E0000000000000000
000000F00001FC0000000000000000
000007000000F80000000000000000
00003C000001FE0000000000000000
0000E0000003E30000000000000000
000380000007C18000000000000000
000F0000000F80C000000000000000
001C0000001F006000000000000000
00380000003E002000000000000000
00E00000007C003000000000000000
01C0000000F8001000000000000000
0380000001F0001000000000000000
070000003FE0001000000000000000
0600000FC7DE001000000000000000
0C0000700F01801000000000000000
1C0001801E00601000000000000000
180006003C00103000000000000000
30000800F800182000000000000000
30003001E000082000000000000000
60004003C0000C4000000000000000
60008007000004C000000000000000
4000801E0000048000000000000000
C00080780040050000000000000000
C00081E00080060000000000000000
C000FF000300060000000000000000
8000000006000E0000000000000000
8000000008001C0000000000000000
8000000030002C0000000000000000
40000000C000CC0000000000000000
4000000300011C0000000000000000
4000000C0006180000000000000000
200000300008380000000000000000
100001C00030380000000000000000
0C000E0000C0700000000000000000
03F3F0000100700000000000000000
000C00000600E00000000000000000
000000001801E00000000000000000
000000006001C00000000000000000
000000018003800000000000000000
0000000E0007800000000000000000
00000038000F000000000000000000
000000E0001E000000000000000000
00000380001E000000000000000000
00000E00003C000000000000000000
000038000078000000000000000000
0000E00000F0000000000000000000
0003800001E0000000000000000000
0006000003C0000000000000000000
0018000007C0000000000000000000
007000000F80000000000000000000
00C000001F00000000000000000000
018000003E00000000000000000000
06000000F800000000000000000000
0C000001F000000000000000000000
18000003E000000000000000000000
10000007C000000000000000000000
2000001F0000000000000000000000
4000003E0000000000000000000000
400000FC0000000000000000000000
C00001F00000000000000000000000
800007C00000000000000000000000
80001F000000000000000000000000
80007C000000000000000000000000
4001F0000000000000000000000000
600F80000000000000000000000000
3FF800000000000000000000000000
ENDCHAR
STARTCHAR 005B
ENCODING 91
SWIDTH 357 0
DWIDTH 30 0
BBX 44 78 5 -9
BITMAP
000000000700
000000000FF0
000000000FE0
000000001C00
000000001800
000000003800
000000003000
000000007000
000000006000
00000000E000
00000000C000
00000001C000
000000018000
000000038000
000000030000
000000070000
000000060000
0000000E0000
0000000C0000
0000001C0000
000000180000
000000300000
000000300000
000000600000
000000600000
000000C00000
000000C00000
000001800000
000003800000
000003000000
000007000000
000006000000
00000E000000
00000C000000
00001C000000
000018000000
000038000000
000030000000
000070000000
000060000000
0000E0000000
0000C0000000
0001C0000000
000180000000
000380000000
000300000000
000700000000
000600000000
000E00000000
000C00000000
001C00000000
001800000000
003000000000
003000000000
006000000000
006000000000
00C000000000
00C000000000
018000000000
018000000000
030000000000
030000000000
060000000000
060000000000
0C0000000000
0C0000000000
180000000000
180000000000
300000000000
300000000000
600000000000
600000000000
C00000000000
C00000000000
E00000000000
700000000000
380000000000
080000000000
ENDCHAR
STARTCHAR 005C
ENCODING 92
SWIDTH 190 0
DWIDTH 16 0
BBX 7 100 2 -18
BITMAP
C0
C0
C0
C0
C0
C0
C0
C0
C0
C0
E0
60
60
60
60
60
60
60
60
60
60
60
60
60
60
60
60
60
60
60
60
70
30
30
30
30
30
30
30
30
30
30
30
30
30
30
30
30
30
30
30
30
18
18
18
18
18
18
18
18
18
18
18
18
18
18
18
18
18
18
18
18
18
0C
0C
0C
0C
0C
0C
0C
0C
0C
0C
0C
0C
0C
0C
0C
0C
0C
0C
0C
0C
0C
06
06
06
06
06
06
ENDCHAR
STARTCHAR 005D
ENCODING 93
SWIDTH 321 0
DWIDTH 27 0
BBX 44 78 1 -9
BITMAP
000000000100
0000000001C0
0000000000E0
000000000070
000000000030
000000000030
000000000060
000000000060
0000000000C0
0000000000C0
000000000180
000000000180
000000000300
000000000300
000000000600
000000000600
000000000C00
000000000C00
000000001800
000000001800
000000003000
000000003000
000000006000
000000006000
00000000C000
00000001C000
000000018000
000000038000
000000030000
000000070000
000000060000
0000000E0000
0000000C0000
0000001C0000
000000180000
000000380000
000000300000
000000700000
000000600000
000000E00000
000000C00000
000001C00000
000001800000
000003800000
000003000000
000007000000
000006000000
00000E000000
00000C000000
00001C000000
000018000000
000030000000
000030000000
000060000000
000060000000
0000C0000000
0000C0000000
000180000000
000380000000
000300000000
000700000000
000600000000
000E00000000
000C00000000
001C00000000
001800000000
003800000000
003000000000
007000000000
006000000000
00E000000000
00C000000000
01C000000000
018000000000
038000000000
7F0000000000
FF0000000000
0E0000000000
ENDCHAR
STARTCHAR 005E
ENCODING 94
SWIDTH 357 0
DWIDTH 30 0
BBX 17 8 5 4
BITMAP
000800
003C00
00FE00
078600
1E0300
700300
C00100
000080
ENDCHAR
STARTCHAR 005F
ENCODING 95
SWIDTH 511 0
DWIDTH 43 0
BBX 40 2 -4 -3
BITMAP
7FFFFFFFFF
FFFFFFFFFF
ENDCHAR
STARTCHAR 0060
ENCODING 96
SWIDTH 500 0
DWIDTH 42 0
BBX 13 7 18 18
BITMAP
C000
F000
3C00
0F00
01C0
0070
0008
ENDCHAR
STARTCHAR 0061
ENCODING 97
SWIDTH 357 0
DWIDTH 30 0
BBX 33 17 -4 -1
BITMAP
0003FF9C00
001F80F800
007E00F800
00F801F000
03E003E000
07C007C000
0F000F8000
1E001F0000
3C007E0000
3800BC0180
7803780300
7004F00C00
6018E01800
E061C06000
E181C18000
7E018E0000
2000F00000
ENDCHAR
STARTCHAR 0062
ENCODING 98
SWIDTH 285 0
DWIDTH 24 0
BBX 54 51 -4 -1
BITMAP
0000000000007C
00000000000184
00000000000708
00000000001C18
00000000003830
0000000000E060
0000000001C0C0
00000000078180
000000000E0300
000000001C0600
00000000780C00
00000000F01800
00000001E03000
00000003806000
00000007018000
0000001E030000
0000003C060000
000000780C0000
000000F0100000
000001E0600000
000003C0C00000
00000781800000
00000F02000000
00001E0C000000
00003818000000
00007020000000
0000E040000000
0001C180000000
00038300000000
00070400000000
000E1800000000
001C3000000000
003C4000000000
00798000000000
00F203C0000000
00E40780000000
01D80F80000000
03A01F00000000
07C01E00000000
0F803C00000000
0E003000000000
1C006000000000
3800E008000000
3003E018000000
70066060000000
601C61C0000000
C0307F00000000
C0E01800000000
C3800000000000
FE000000000000
70000000000000
ENDCHAR
STARTCHAR 0063
ENCODING 99
SWIDTH 250 0
DWIDTH 21 0
BBX 24 18 -4 -2
BITMAP
000030
0007DC
001E04
00781C
00F078
03C070
078000
0F0000
1E0000
3C0000
380001
780006
70001C
F00070
F001C0
700F00
7FF800
1F8000
ENDCHAR
STARTCHAR 0064
ENCODING 100
SWIDTH 357 0
DWIDTH 30 0
BBX 66 51 -4 -1
BITMAP
0000000000000003C0
000000000000000780
000000000000000F00
000000000000001E00
000000000000003C00
000000000000007800
00000000000000E000
00000000000003C000
000000000000078000
0000000000000F0000
0000000000001E0000
0000000000003C0000
000000000000780000
000000000000F00000
000000000001E00000
000000000003C00000
000000000007800000
00000000000F000000
00000000001E000000
00000000003C000000
000000000078000000
0000000000F0000000
0000000001E0000000
0000000003C0000000
000000000780000000
000000000F00000000
000000001C00000000
000000003800000000
000000007000000000
00000000E000000000
00000001C000000000
000000038000000000
000000070000000000
0000000E0000000000
0003FF9E0000000000
001F80FC0000000000
007E00F80000000000
00F801F00000000000
03E003E00000000000
07C007C00000000000
0F000F800000000000
1E001F000000000000
3C007E000000000000
3800BC018000000000
780378030000000000
7006F00C0000000000
6018E0180000000000
E061C0600000000000
E181C1800000000000
7E018E000000000000
2000F0000000000000
ENDCHAR
STARTCHAR 0065
ENCODING 101
SWIDTH 238 0
DWIDTH 20 0
BBX 22 17 -3 -2
BITMAP
0001F8
000F98
003E18
00F830
03E060
07C0C0
0F8300
1E0C00
3C7000
7F8000
70000C
F00018
E00060
E001C0
E00700
703C00
7FE000
ENDCHAR
STARTCHAR 0066
ENCODING 102
SWIDTH 226 0
DWIDTH 19 0
BBX 81 82 -31 -33
BITMAP
0000000000000000000780
0000000000000000003980
0000000000000000006180
000000000000000001C100
0000000000000000030200
00000000000000000E0600
00000000000000001C0C00
0000000000000000301800
0000000000000000E03000
0000000000000001C06000
000000000000000380C000
0000000000000007018000
000000000000001C030000
0000000000000038060000
0000000000000070180000
00000000000000E0300000
00000000000001C0600000
0000000000000780C00000
0000000000000F01800000
0000000000001E07000000
0000000000003C0C000000
0000000000007818000000
000000000000F030000000
000000000001C0E0000000
0000000000038180000000
0000000000070300000000
00000000000E0600000000
00000000003C1800000000
0000000000783000000000
0000000000F06000000000
0000000001E18000000000
0000000003C30000000000
0000000007860000000000
000000000F180000000000
000000001E300000000000
000000003CC00000000000
0000000079800000000000
00000000F6000000000000
00000001EC000000000000
00000003F0000000000000
00000007E0000000000000
0000000780000000000000
0000000F00018000000000
0000001F00030000000000
0000003E000C0000000000
0000007E00380000000000
000000F700E00000000000
000001E7CF000000000000
000003CCF0000000000000
0000078800000000000000
00000F1800000000000000
00001E1000000000000000
00003C3000000000000000
0000382000000000000000
0000786000000000000000
0000F04000000000000000
0001E0C000000000000000
0003C08000000000000000
0007810000000000000000
0007010000000000000000
000E020000000000000000
001E060000000000000000
003C040000000000000000
0078080000000000000000
00F0180000000000000000
00E0100000000000000000
01C0200000000000000000
03C0600000000000000000
0380C00000000000000000
0700800000000000000000
0E01000000000000000000
1E02000000000000000000
1C06000000000000000000
380C000000000000000000
3808000000000000000000
7010000000000000000000
6020000000000000000000
E040000000000000000000
C180000000000000000000
C300000000000000000000
EC00000000000000000000
7000000000000000000000
ENDCHAR
STARTCHAR 0067
ENCODING 103
SWIDTH 321 0
DWIDTH 27 0
BBX 58 48 -32 -33
BITMAP
00000000003FF3C0
0000000001F81F80
0000000007C00F00
000000001F801E00
000000003E003C00
000000007C00F800
00000000F001F000
00000001E003E000
00000003C00FC000
00000003801F80C0
00000007006F0380
0000000700DE0600
0000000E033C1800
0000000E0C787000
0000000E70F0C000
00000007C1E30000
0000000003CC0000
0000000007B00000
000000000FC00000
000000001F000000
000000003C000000
0000000078000000
00000000F0000000
00000003E0000000
0000000FC0000000
0000003780000000
000000CF00000000
0000031E00000000
00000C3C00000000
0000307800000000
0000C0F000000000
000301C000000000
0004038000000000
0018070000000000
00600E0000000000
00C01C0000000000
0100380000000000
0600700000000000
0C00E00000000000
1801C00000000000
3007000000000000
200E000000000000
401C000000000000
4038000000000000
40E0000000000000
C1C0000000000000
4700000000000000
7C00000000000000
ENDCHAR
STARTCHAR 0068
ENCODING 104
SWIDTH 333 0
DWIDTH 28 0
BBX 57 50 -8 -2
BITMAP
0000000000000780
0000000000001D80
0000000000006180
000000000001C100
0000000000030300
0000000000060600
00000000001C0C00
0000000000381800
0000000000603000
0000000000C06000
000000000380C000
0000000007018000
000000000E030000
000000001C060000
0000000038180000
0000000070300000
00000001C0600000
0000000380C00000
0000000701800000
0000000E06000000
0000001C0C000000
0000003818000000
0000007030000000
000000E0C0000000
000001C180000000
0000038300000000
0000070400000000
00000E1800000000
00001C3000000000
000038C000000000
0000718000000000
0000E30000000000
0001CC0000000000
0003980000000000
0007607800000000
000EC18C00000000
001F061C00000000
003E183800000000
0078607800000000
00F180F000000000
01E603E000000000
03CC07C020000000
07B00F8060000000
0F401F0180000000
1F803C0300000000
1E00380C00000000
3C00703800000000
780060E000000000
F000778000000000
C0007C0000000000
ENDCHAR
STARTCHAR 0069
ENCODING 105
SWIDTH 166 0
DWIDTH 14 0
BBX 22 25 -6 -2
BITMAP
00001C
00003C
000078
000070
000000
000000
000000
000000
000400
000E00
003C00
007800
00F000
01E000
03C000
078000
0F0000
0E0060
1C00C0
380300
780C00
703800
F0E000
F78000
7C0000
ENDCHAR
STARTCHAR 006A
ENCODING 106
SWIDTH 142 0
DWIDTH 12 0
BBX 64 57 -47 -34
BITMAP
0000000000000003
0000000000000007
000000000000000F
000000000000000E
0000000000000000
0000000000000000
0000000000000000
0000000000000000
0000000000000000
0000000000000380
0000000000000F00
0000000000001E00
0000000000003C00
0000000000007800
000000000000F000
000000000001E000
000000000003C000
0000000000078040
00000000000F00C0
00000000001E0300
00000000003C0E00
0000000000781800
0000000000F06000
0000000000E1C000
0000000001C30000
00000000038C0000
0000000007300000
000000000EC00000
000000001F000000
000000003C000000
0000000070000000
00000000E0000000
00000003C0000000
0000000F80000000
0000003700000000
000000CE00000000
0000031C00000000
00000C3800000000
0000307000000000
0000C0E000000000
000301C000000000
000C038000000000
0010070000000000
00600E0000000000
00801C0000000000
0300380000000000
0600700000000000
0801C00000000000
1003800000000000
2007000000000000
600E000000000000
401C000000000000
4030000000000000
80E0000000000000
8180000000000000
C700000000000000
7C00000000000000
ENDCHAR
STARTCHAR 006B
ENCODING 107
SWIDTH 345 0
DWIDTH 29 0
BBX 57 50 -8 -2
BITMAP
0000000000000780
0000000000001D80
0000000000006180
000000000001C100
0000000000030300
0000000000060600
00000000001C0C00
0000000000381800
0000000000603000
0000000000C06000
000000000380C000
0000000007018000
000000000E030000
000000001C060000
0000000038180000
0000000070300000
00000001C0600000
0000000380C00000
0000000701800000
0000000E06000000
0000001C0C000000
0000003818000000
0000007030000000
000000E0C0000000
000001C180000000
0000038300000000
0000070400000000
00000E1800000000
00001C3000000000
000038C000000000
0000718000000000
0000E30000000000
0001CC0000000000
0003983F80000000
000761E380000000
000EC70380000000
001F1C0780000000
003E700F00000000
0078C01E00000000
00F3807C00000000
01E63FF000000000
03D81C0010000000
07B00E0030000000
0FC01E00C0000000
1F803C0380000000
1F00780600000000
3C00701800000000
7800F06000000000
F000F78000000000
C0007E0000000000
ENDCHAR
STARTCHAR 006C
ENCODING 108
SWIDTH 178 0
DWIDTH 15 0
BBX 54 51 -4 -1
BITMAP
0000000000007C
00000000000184
00000000000708
00000000001C18
00000000003830
0000000000E060
0000000001C0C0
00000000078180
000000000E0300
000000001C0600
00000000380C00
00000000F01800
00000001E03000
00000003806000
00000007018000
0000000E030000
0000003C060000
000000780C0000
000000F0100000
000001E0600000
000003C0C00000
00000781800000
00000F02000000
00001E0C000000
00003818000000
00007020000000
0000E040000000
0001C180000000
00038300000000
00070400000000
000E1800000000
001C3000000000
003C4000000000
00798000000000
00720000000000
00E40000000000
01D80000000000
03A00000000000
07C00000000000
0F800000000000
0E000000000000
1C000000000000
38004000000000
3000C000000000
70030000000000
60060000000000
C0180000000000
C0600000000000
C1C00000000000
EE000000000000
70000000000000
ENDCHAR
STARTCHAR 006D
ENCODING 109
SWIDTH 595 0
DWIDTH 50 0
BBX 51 17 -2 -3
BITMAP
00060008000000
001F807E00FC00
007181C6070C00
00C3870E180C00
03870C0E601C00
0607381DC03C00
1C0E603B00F800
301DC07C01F000
603F00F803E020
807E01F007C060
00F803E00F81C0
01F007801E0300
03E00F003C0C00
07801E00783800
0F003C0070E000
1E007800778000
000020007C0000
ENDCHAR
STARTCHAR 006E
ENCODING 110
SWIDTH 428 0
DWIDTH 36 0
BBX 37 17 -2 -2
BITMAP
0007800000
001F807F00
007181C300
00C3860700
0387180F00
0607601E00
0C0EC03E00
301F007C00
603E00F808
807C01F018
00F003C060
01E00781C0
03C00F0300
07801E0C00
0F001C3800
1E001DC000
08001F0000
ENDCHAR
STARTCHAR 006F
ENCODING 111
SWIDTH 309 0
DWIDTH 26 0
BBX 28 17 -3 -2
BITMAP
000FF000
007E1800
01F01800
03C03800
07807800
0E007800
1C00F000
3800E000
7800E000
7000C030
E001C060
E003E180
E0047F00
C0183800
C0600000
F7C00000
7E000000
ENDCHAR
STARTCHAR 0070
ENCODING 112
SWIDTH 404 0
DWIDTH 34 0
BBX 66 61 -33 -30
BITMAP
000000000000000080
000000000000000380
000000000000000700
000000000000000E00
000000000000001C00
000000000000003800
000000000000006000
00000000000001C000
000000000000038000
000000000000070000
0000000000000E0000
0000000000003C0000
000000000000780000
000000000000F00000
000000000003E00000
000000000007C00000
00000000001F800000
000000000037018000
0000000000EE1EC000
00000000019C606000
00000000073180E000
000000000C6603C000
0000000019D8078000
0000000063B01F0000
00000000C7C03E0040
000000010F807C00C0
000000001E00F80300
000000003C01E00600
000000007803C01800
00000000F007806000
00000001E007018000
00000003C006060000
000000078006380000
0000000E0003C00000
0000001C0000000000
000000380000000000
000000700000000000
000001E00000000000
000003C00000000000
000007800000000000
00000F000000000000
00001E000000000000
00003C000000000000
000078000000000000
0000F0000000000000
0001E0000000000000
0003C0000000000000
000780000000000000
000F00000000000000
001E00000000000000
003C00000000000000
007800000000000000
00F000000000000000
01E000000000000000
03C000000000000000
078000000000000000
0F0000000000000000
1E0000000000000000
380000000000000000
700000000000000000
E00000000000000000
ENDCHAR
STARTCHAR 0071
ENCODING 113
SWIDTH 333 0
DWIDTH 28 0
BBX 49 48 -21 -33
BITMAP
00000001FF9C00
0000000FC0FE00
0000003E007800
000000FC00F000
000001F001E000
000003E007C000
000007800F8000
00000F001F0000
00001E007C0000
00001C00F80180
00003803F00600
00003807E01C00
0000701BC07000
00007077C1C000
000073CFEF0000
00003E1FB00000
0000003D000000
0000007B000000
000000F2000000
000001E6000000
00000384000000
00000708000000
00000E18000000
00001C10000000
00003830000000
00007060000000
0000E040000000
0001C080000000
00038180000000
00070300000000
00060200000000
000C0400000000
00180C00000000
00301800000000
00603000000000
00C06000000000
0180C000000000
03018000000000
06030000000000
0C060000000000
180C0000000000
10180000000000
20300000000000
60600000000000
40C00000000000
43800000000000
CE000000000000
F8000000000000
ENDCHAR
STARTCHAR 0072
ENCODING 114
SWIDTH 309 0
DWIDTH 26 0
BBX 27 20 -2 -3
BITMAP
00040000
001E0000
003C0000
00780000
00F00000
00FFC000
03904000
0600C000
1C01C000
30078000
601F0000
803E0060
007C00C0
00F80300
01E00C00
03C01800
03806000
03038000
031C0000
01E00000
ENDCHAR
STARTCHAR 0073
ENCODING 115
SWIDTH 250 0
DWIDTH 21 0
BBX 25 20 -5 -3
BITMAP
00006000
0000C000
0001C000
0003C000
0007C000
001B8000
00338000
00C38000
01838000
06078000
0C070000
100F0180
000F0300
601E0C00
E01C3800
E03C6000
C0398000
C07E0000
61F00000
3F800000
ENDCHAR
STARTCHAR 0074
ENCODING 116
SWIDTH 166 0
DWIDTH 14 0
BBX 42 44 -5 -3
BITMAP
0000000000C0
0000000003C0
000000000780
000000000F00
000000001E00
000000003C00
000000007800
00000000F000
00000001E000
00000003C000
000000078000
0000000F0000
0000003C0000
000000780000
000000F00000
000001E00000
03FFFFFFFF80
000007800000
00000F000000
00001E000000
00003C000000
000078000000
0000F0000000
0001E0000000
0003C0000000
000780000000
000F00000000
001E00000000
003C00000000
007800000000
00F000000000
01E000000000
03C000000000
078000000000
0F0000000000
0E0000000000
1E00E0000000
3C0180000000
780700000000
701C00000000
F03000000000
F0C000000000
F70000000000
FC0000000000
ENDCHAR
STARTCHAR 0075
ENCODING 117
SWIDTH 357 0
DWIDTH 30 0
BBX 33 17 -4 -2
BITMAP
001E001000
003C007800
007800F000
01F001E000
03E007C000
07C00F8000
0F803F0000
0F00FE0000
1E01BC0080
3C06780180
780CF00700
7031E00C00
60C1C03000
E30380C000
6E03830000
7003DC0000
0001F00000
ENDCHAR
STARTCHAR 0076
ENCODING 118
SWIDTH 392 0
DWIDTH 33 0
BBX 34 19 -2 -2
BITMAP
0000000380
0000000780
0000000F00
0003001E00
001F803C00
0061807800
018380F000
070781E000
0C1F01C000
303E030000
607C070040
80F80F00C0
01F0330300
03E0630E00
038183F800
070300C000
060C000000
07F0000000
0380000000
ENDCHAR
STARTCHAR 0077
ENCODING 119
SWIDTH 547 0
DWIDTH 46 0
BBX 47 19 -2 -2
BITMAP
00000000000E
00000000003C
00000000007C
000FC00700F8
0039C00F01F0
0061C01E03E0
0183803C07C0
060F80780700
0C1F00F00E00
303E03E00C00
607C07C01800
80F81F807806
01F06F00D81C
03E0CE031C70
03831C060FC0
070C1C180700
063818600000
07E01F800000
02000C000000
ENDCHAR
STARTCHAR 0078
ENCODING 120
SWIDTH 357 0
DWIDTH 30 0
BBX 37 16 -8 -2
BITMAP
00003F01F0
0000C38FB8
0001037800
000607E000
0018078000
00300F0000
00C01E0000
01803C0008
0200780018
0000F00070
0003E000C0
0007E00300
001CE00E00
4030E07000
E1C07FC000
7F001C0000
ENDCHAR
STARTCHAR 0079
ENCODING 121
SWIDTH 392 0
DWIDTH 33 0
BBX 58 47 -26 -33
BITMAP
0000000003000780
000000001F800F00
0000000061801E00
0000000183803C00
0000000707807800
0000000C1F00F000
000000303E03E000
000000607C07C040
00000080F80F80C0
00000001F03F0300
00000003E07E0600
0000000381BC1800
0000000703787000
000000060CF1C000
00000007F1E30000
0000000383CC0000
0000000007B00000
000000000FC00000
000000001F000000
000000003C000000
0000000078000000
00000000F0000000
00000003E0000000
0000000FC0000000
0000003780000000
000000CF00000000
0000031E00000000
00000C3C00000000
0000307800000000
0000C0E000000000
000301C000000000
0004038000000000
0018070000000000
00600E0000000000
00C01C0000000000
0300380000000000
0600700000000000
0C00E00000000000
1003C00000000000
2007000000000000
200E000000000000
401C000000000000
4038000000000000
C0E0000000000000
C1C0000000000000
C700000000000000
7C00000000000000
ENDCHAR
STARTCHAR 007A
ENCODING 122
SWIDTH 345 0
DWIDTH 29 0
BBX 31 19 -3 -2
BITMAP
00078000
000F0060
000E01C0
001C0780
003C1F00
006FFC00
01C07800
0300E000
0603C000
18070000
300E0002
403C0006
0073E018
01FCE030
03E1C0C0
0F038300
1C030400
70073800
E003C000
ENDCHAR
STARTCHAR 007B
ENCODING 123
SWIDTH 250 0
DWIDTH 21 0
BBX 44 77 5 -9
BITMAP
0000000007F0
000000000FE0
000000001E00
000000003800
000000003000
000000006000
00000000E000
00000000C000
00000001C000
000000018000
000000038000
000000030000
000000030000
000000060000
000000060000
0000000C0000
0000000C0000
0000000C0000
000000180000
000000180000
000000300000
000000300000
000000300000
000000600000
000000600000
000000C00000
000000C00000
000001800000
000001800000
000003000000
000007000000
00000E000000
00000C000000
000038000000
000078000000
000FE0000000
001FC0000000
001F00000000
001F00000000
000700000000
000780000000
000380000000
000380000000
000380000000
000300000000
000700000000
000700000000
000600000000
000E00000000
000C00000000
001C00000000
001800000000
003800000000
007000000000
006000000000
00E000000000
00C000000000
01C000000000
018000000000
030000000000
060000000000
060000000000
0C0000000000
0C0000000000
180000000000
380000000000
300000000000
700000000000
600000000000
600000000000
E00000000000
C00000000000
C00000000000
E00000000000
600000000000
700000000000
380000000000
ENDCHAR
STARTCHAR 007C
ENCODING 124
SWIDTH 238 0
DWIDTH 20 0
BBX 33 96 0 -17
BITMAP
0000000380
0000000300
0000000300
0000000700
0000000600
0000000600
0000000600
0000000C00
0000000C00
0000000C00
0000001800
0000001800
0000001800
0000003000
0000003000
0000003000
0000006000
0000006000
0000006000
000000C000
000000C000
000000C000
000001C000
0000018000
0000018000
0000038000
0000030000
0000030000
0000070000
0000060000
0000060000
00000E0000
00000C0000
00000C0000
00000C0000
0000180000
0000180000
0000180000
0000300000
0000300000
0000300000
0000600000
0000600000
0000600000
0000C00000
0000C00000
0000C00000
0001C00000
0001800000
0001800000
0003800000
0003000000
0003000000
0007000000
0006000000
0006000000
000E000000
000C000000
000C000000
001C000000
0018000000
0018000000
0018000000
0030000000
0030000000
0030000000
0060000000
0060000000
0060000000
00C0000000
00C0000000
00C0000000
0180000000
0180000000
0180000000
0380000000
0300000000
0300000000
0700000000
0600000000
0600000000
0E00000000
0C00000000
0C00000000
1C00000000
1800000000
1800000000
3800000000
3000000000
3000000000
3000000000
6000000000
6000000000
6000000000
C000000000
C000000000
ENDCHAR
STARTCHAR 007D
ENCODING 125
SWIDTH 428 0
DWIDTH 36 0
BBX 43 77 3 -9
BITMAP
000000000180
0000000001C0
0000000000E0
000000000060
000000000060
000000000060
000000000060
000000000060
0000000000E0
0000000000C0
0000000000C0
000000000180
000000000180
000000000300
000000000700
000000000600
000000000C00
000000000C00
000000001800
000000003800
000000003000
000000006000
00000000E000
00000000C000
00000001C000
000000038000
000000030000
000000070000
000000060000
0000000E0000
0000000E0000
0000001C0000
0000001C0000
0000001C0000
0000001C0000
0000001C0000
0000001C0000
0000001E0000
0000001F0000
0000000F8000
0000003F0000
000000FF0000
000001E00000
000003800000
000003000000
000006000000
00000C000000
00001C000000
000018000000
000030000000
000030000000
000060000000
000060000000
0000C0000000
0000C0000000
0000C0000000
000180000000
000180000000
000300000000
000300000000
000300000000
000600000000
000600000000
000C00000000
000C00000000
001C00000000
001800000000
003800000000
003000000000
007000000000
006000000000
00E000000000
01C000000000
038000000000
078000000000
9F0000000000
FC0000000000
ENDCHAR
STARTCHAR 007E
ENCODING 126
SWIDTH 285 0
DWIDTH 24 0
BBX 19 5 4 5
BITMAP
070000
3FE020
61F860
807FC0
001F00
ENDCHAR
STARTCHAR 00A1
ENCODING 161
SWIDTH 285 0
DWIDTH 24 0
BBX 37 48 -13 -32
BITMAP
0000000038
0000000078
00000000F0
00000001E0
00000000C0
0000000000
0000000000
0000000000
0000000400
0000000800
0000001800
0000003000
0000002000
0000004000
000000C000
0000018000
0000030000
0000030000
0000060000
00000C0000
0000180000
0000180000
0000300000
0000600000
0000E00000
0001C00000
0001800000
0003000000
0007000000
000E000000
001C000000
001C000000
0038000000
0070000000
00E0000000
01E0000000
01C0000000
0380000000
0780000000
0F00000000
1E00000000
1C00000000
3C00000000
7800000000
F000000000
F000000000
E000000000
C000000000
ENDCHAR
STARTCHAR 00A2
ENCODING 162
SWIDTH 309 0
DWIDTH 26 0
BBX 31 35 0 4
BITMAP
00000002
00000004
0000000C
00000018
00000030
00000060
000000C0
00000080
00000100
00000700
00007980
0001C0C0
00078380
000E0780
003C0F00
00780000
00F00000
01E00000
03C00000
07800030
07800060
07100180
0F200600
0F603800
0FC0E000
07FF0000
01F00000
02000000
04000000
0C000000
18000000
10000000
20000000
40000000
80000000
ENDCHAR
STARTCHAR 00A3
ENCODING 163
SWIDTH 761 0
DWIDTH 64 0
BBX 72 63 -5 -13
BITMAP
000000000007E00000
00000000001C000000
000000000060000000
0000000001C0000000
000000000300000000
000000000600000000
000000000C00000000
000000001800000000
000000001000000000
000000003000000000
0000000060000001FE
000000004000000603
00000000C000001C03
00000000C000003803
000000008000007003
00000000800001E003
00000001800003C006
00000001800007800E
00000001000007001C
0000000100000E0038
0000000100001C0060
0000000080003C00C0
000000008000780300
000000008000F00E00
000000004000E03800
000000006001E0E000
000000003003C78000
000000000C07BC0000
0000000003FFC00000
00000000000E000000
00000000001C000000
00000000003C000000
000000000078000000
0000000000F0000000
0000000FFFFFF80000
0000000001C0000000
000000000380000000
000000000700000000
000000000E00000000
000000001C00000000
000000003800000000
000000007000000000
00000000E000000000
00000001C0003F0000
1FFC0007000FC0F000
7003E00E0038003800
60003E1800E0001C00
E00003F00180001C00
600001FE0300001C00
70000703F600003800
380038003F0000F000
0E03C0000DFF0F8000
01FC00000C00F00000
000000000C00000000
000000000C00000000
000000000C00000000
000000000C00000000
000000000400000000
000000000200000000
000000000300000000
000000000080000000
000000000060000000
00000000001F800000
ENDCHAR
STARTCHAR 00A4
ENCODING 164
SWIDTH 392 0
DWIDTH 33 0
BBX 21 20 8 8
BITMAP
180000
0C0000
040000
06FC08
03CE18
030330
0601E0
0E0180
0C0180
0C0080
0C0180
0C0180
0C0180
0C0180
0C0300
1E0700
730F00
C1F980
8000C0
000060
ENDCHAR
STARTCHAR 00A5
ENCODING 165
SWIDTH 273 0
DWIDTH 23 0
BBX 62 53 0 -1
BITMAP
00000000000007F8
000000000000180C
000000000000E01C
000000000003001C
0000010000040038
0000038000180078
0000038000600070
0000030000800000
0000030003000000
0000030006000000
0000030008000000
0000030010000000
0000030060000000
00000300C0000000
0000060180000000
0000060300000000
0000060600000000
0000040800000000
00000C1000000000
00000C2000000000
0000084000000000
0000188000000000
0000198000000000
0000130000000000
0000360000000000
00002C0000000000
0000780000000000
0000500000000000
0000E00000000000
03FFFFF800000000
0001C00000000000
0003800000000000
0003000000000000
0FFFFFF000000000
000C000000000000
000C000000000000
0018000000000000
0038000000000000
0030000000000000
0060000000000000
00E0000000000000
01C0000000000000
0180000000000000
0380000000000000
0700000000000000
0E00000000000000
1E00000000000000
3C00000000000000
3800000000000000
7800000000000000
F000000000000000
E000000000000000
4000000000000000
ENDCHAR
STARTCHAR 00A6
ENCODING 166
SWIDTH 238 0
DWIDTH 20 0
BBX 33 96 0 -17
BITMAP
0000000380
0000000300
0000000300
0000000700
0000000600
0000000600
0000000600
0000000C00
0000000C00
0000000C00
0000001800
0000001800
0000001800
0000003000
0000003000
0000003000
0000006000
0000006000
0000006000
000000C000
000000C000
000000C000
0000018000
0000018000
0000018000
0000038000
0000030000
0000030000
0000070000
0000060000
0000060000
00000E0000
00000C0000
00000C0000
00001C0000
0000180000
0000180000
0000180000
0000300000
0000300000
0000000000
0000000000
0000000000
0000000000
0000000000
0000000000
0000000000
0000000000
0000000000
0000000000
0000000000
0000000000
0003000000
0007000000
0006000000
0006000000
000E000000
000C000000
000C000000
001C000000
0018000000
0018000000
0038000000
0030000000
0030000000
0030000000
0060000000
0060000000
0060000000
00C0000000
00C0000000
00C0000000
0180000000
0180000000
0180000000
0380000000
0300000000
0300000000
0700000000
0600000000
0600000000
0E00000000
0C00000000
0C00000000
1C00000000
1800000000
1800000000
3800000000
3000000000
3000000000
3000000000
6000000000
6000000000
6000000000
C000000000
C000000000
ENDCHAR
STARTCHAR 00A7
ENCODING 167
SWIDTH 416 0
DWIDTH 35 0
BBX 50 62 -1 -4
BITMAP
00000380000000
00003C00000000
0000C000000000
00030000000000
00060000000000
00080000000000
00100000000000
00200000000000
00600000000000
00400000000000
00800000000000
01800000007800
01000000078700
03000000180180
030000007000C0
02000001C000C0
020000038001C0
02000007000180
0200000F000380
0200001E000700
0300001E000E00
0300003C003C00
0300007C007000
018001FC01E000
018003BC078000
00C007BC3E0000
00700F3DF80000
003C0E3FC00000
000FFFFE000000
0000FF9E000000
00003C1F000000
00003C1F000000
00003C0F000000
00003E0F800000
00003E07800000
00001E07800000
00001E03C00000
00001F03C00000
00000F03C00000
00000F83C00000
00000781C00000
00000781C00000
000007C1C00000
000003C3C00000
000003C3800000
000003C3800000
000001E7000000
000001EE000000
3C0001FC000000
760001F8000000
C20001E0000000
C00001C0000000
C0000380000000
C0000380000000
C0000700000000
C0000600000000
C0001C00000000
60003000000000
70006000000000
38018000000000
0FFE0000000000
00C00000000000
ENDCHAR
STARTCHAR 00A8
ENCODING 168
SWIDTH 166 0
DWIDTH 14 0
BBX 12 4 7 19
BITMAP
3070
F0F0
F1E0
E1C0
ENDCHAR
STARTCHAR 00A9
ENCODING 169
SWIDTH 476 0
DWIDTH 40 0
BBX 35 35 3 -2
BITMAP
0000FF8000
0007FFF000
001C00F800
0070001E00
00C0000F00
0180000700
0300000380
0600000180
0C000001C0
08001FE0C0
10007020C0
1001C060E0
200783E060
200F03C060
601C010060
4038000060
4070000060
40E0000440
C1E0000C40
C3C00038C0
C3C00060C0
C380018080
C3800E0180
E380380100
63E7E00300
61FE000200
7000000600
3000000C00
3800001800
1C00003000
0E00006000
0F8001C000
03E00F0000
01FFFC0000
001F800000
ENDCHAR
STARTCHAR 00AA
ENCODING 170
SWIDTH 357 0
DWIDTH 30 0
BBX 27 14 12 24
BITMAP
003FFF00
00F01E00
03C01C00
07803800
0E00F000
1C01E000
3803C000
700F8060
60170180
E0660200
C18E0C00
C60C3000
780DC000
00020000
ENDCHAR
STARTCHAR 00AB
ENCODING 171
SWIDTH 404 0
DWIDTH 34 0
BBX 29 14 1 0
BITMAP
00002008
0001C070
000F03C0
00780F00
03E07C00
3F03E000
FC1F8000
F03E0000
3C1E0000
0E078000
0381C000
00E07000
00300C00
000C0300
ENDCHAR
STARTCHAR 00AC
ENCODING 172
SWIDTH 416 0
DWIDTH 35 0
BBX 27 13 6 5
BITMAP
7FFFFFE0
FFFFFFE0
00000040
000000C0
00000080
00000080
00000180
00000100
00000300
00000200
00000200
00000600
00000400
ENDCHAR
STARTCHAR 00AE
ENCODING 174
SWIDTH 476 0
DWIDTH 40 0
BBX 35 35 3 -2
BITMAP
0000FF8000
0007FFF000
001C00F800
0070001E00
00C0000F00
0180000700
0300000380
0600000180
0C007001C0
0801F000C0
1001C000C0
10038000E0
2003FF0060
200FF30060
6018030060
40700F0060
40C01E0060
43807C0040
C200F801C0
C001F003C0
C003C00CC0
C007803080
C00F00E180
E00E018100
600C0E0300
600C300200
700FC00600
3000000C00
3800001800
1C00003000
0E00006000
0F8001C000
03E00F0000
01FFFC0000
001F800000
ENDCHAR
STARTCHAR 00AF
ENCODING 175
SWIDTH 357 0
DWIDTH 30 0
BBX 23 2 7 19
BITMAP
7FFFFE
FFFFFE
ENDCHAR
STARTCHAR 00B0
ENCODING 176
SWIDTH 226 0
DWIDTH 19 0
BBX 10 8 12 36
BITMAP
0F80
3080
60C0
4080
C080
C100
E300
7C00
ENDCHAR
STARTCHAR 00B1
ENCODING 177
SWIDTH 416 0
DWIDTH 35 0
BBX 30 25 3 5
BITMAP
00000600
00000400
00000C00
00000800
00000800
00001800
00001000
00003000
00003FFC
03FFFFFC
00006000
00004000
0000C000
00008000
00008000
00018000
00010000
00030000
00000000
00000000
00000000
00000000
00000000
00000000
FFFFFE00
ENDCHAR
STARTCHAR 00B2
ENCODING 178
SWIDTH 428 0
DWIDTH 36 0
BBX 34 37 4 10
BITMAP
00001C0000
0000030000
0000008000
000000FF00
0000034180
00000C21C0
00001821C0
00003021C0
0000602180
0000406380
000040C300
0000418700
0000430E00
00003C0C00
0000001C00
0000003800
0000007000
000000E000
000001C000
0000038000
0000070000
00000E0000
00001C0000
0000700000
0000E00000
1FE183E000
203F1C1800
400FA00800
C03BE01800
C0E0FFF000
7F01078000
0001000000
0001000000
0001000000
0001000000
0000800000
00007F8000
ENDCHAR
STARTCHAR 00B3
ENCODING 179
SWIDTH 369 0
DWIDTH 31 0
BBX 28 34 7 15
BITMAP
00038000
00007000
00000C00
00000400
00000600
00007F00
000186E0
00060670
000C0430
00180C70
00101870
00103060
001060E0
001F81C0
00000380
00000700
0007FC00
00181800
00306C00
001F8C00
00000E00
00000E00
00000C00
00001C00
00001C00
00003800
00007000
0000E000
0001C000
30030000
600E0000
C0380000
C1C00000
3E000000
ENDCHAR
STARTCHAR 00B4
ENCODING 180
SWIDTH 500 0
DWIDTH 42 0
BBX 13 7 18 18
BITMAP
0018
0078
01F0
0780
1E00
3000
C000
ENDCHAR
STARTCHAR 00B5
ENCODING 181
SWIDTH 357 0
DWIDTH 30 0
BBX 61 38 -32 -23
BITMAP
0000000001E00100
0000000003C00780
0000000007800F00
000000001F001E00
000000003E007C00
000000007C00F800
00000000F803F000
00000001F00FE000
00000003E01BC008
00000007C0678018
0000000F80CF0070
0000001F031E00C0
0000003E0C1C0300
0000007E30380C00
000000F6E0383000
000001E7003DC000
000003C0001F0000
0000078000000000
00000F0000000000
00001E0000000000
00003C0000000000
0000780000000000
0000E00000000000
0003C00000000000
0007800000000000
000F000000000000
001E000000000000
003C000000000000
0078000000000000
00F0000000000000
01E0000000000000
03C0000000000000
0780000000000000
0F00000000000000
1E00000000000000
3C00000000000000
7800000000000000
F000000000000000
ENDCHAR
STARTCHAR 00B6
ENCODING 182
SWIDTH 250 0
DWIDTH 21 0
BBX 45 67 -6 -16
BITMAP
000000F00018
0000070F0038
000019F1FBF0
00000FFE3FC0
00001FFFC800
00007FFFD800
0000FFFF9000
0001FFFF3000
0003FFFF2000
0007FFFE6000
0007FFFEC000
000FFFFC8000
001FFFF98000
001FFFF90000
003FFFF30000
003FFFE60000
007FFF660000
007FFECC0000
007FFCCC0000
007FF1980000
003FC1900000
003F03300000
000006600000
000006600000
00000CC00000
00000CC00000
000019800000
000011800000
000033000000
000063000000
000066000000
0000C6000000
0000CC000000
00018C000000
000198000000
000318000000
000330000000
000630000000
000660000000
000C60000000
000CC0000000
0018C0000000
001980000000
003180000000
003380000000
006300000000
006700000000
00C600000000
00CE00000000
018C00000000
018C00000000
039800000000
031800000000
073800000000
063000000000
0E3000000000
0E7000000000
0C6000000000
1CE000000000
1CE000000000
3CC000000000
39C000000000
39C000000000
790000000000
780000000000
E00000000000
800000000000
ENDCHAR
STARTCHAR 00B7
ENCODING 183
SWIDTH 166 0
DWIDTH 14 0
BBX 5 4 3 6
BITMAP
38
78
F8
F0
ENDCHAR
STARTCHAR 00B8
ENCODING 184
SWIDTH 250 0
DWIDTH 21 0
BBX 13 10 -6 -11
BITMAP
0300
0200
0400
07E0
0078
0038
0030
8060
7BC0
0400
ENDCHAR
STARTCHAR 00B9
ENCODING 185
SWIDTH 297 0
DWIDTH 25 0
BBX 26 32 8 16
BITMAP
000001C0
00000340
000006C0
00000D80
00000F00
00001E00
00003C00
00007800
00006000
0001C000
00038000
000F8000
003B0000
01E60000
038C0000
001C0000
00180000
00300000
00700000
00E00000
00C00000
01800000
03800000
07000000
06000000
0E000000
1C000000
38000000
70000000
70000000
E0000000
40000000
ENDCHAR
STARTCHAR 00BA
ENCODING 186
SWIDTH 309 0
DWIDTH 26 0
BBX 23 14 12 23
BITMAP
001F00
00F8C0
03C0C0
0701C0
0E0380
1C0380
380300
300600
700706
600B08
E013F0
E06000
618000
7E0000
ENDCHAR
STARTCHAR 00BB
ENCODING 187
SWIDTH 392 0
DWIDTH 33 0
BBX 29 14 -1 0
BITMAP
04000000
03018000
01C06000
00701800
001C0E00
00070380
0001C1E0
0007E0F8
003F07F0
00F81F80
03C0F800
0F03C000
780E0000
C0300000
ENDCHAR
STARTCHAR 00BC
ENCODING 188
SWIDTH 571 0
DWIDTH 48 0
BBX 38 55 8 -4
BITMAP
0000000010
0000000018
0000000038
0000000070
0000000060
000001C0E0
00000341C0
000006C180
00000D8380
00000F0700
00001E0600
00003C0E00
0000781C00
0000601800
0001C03800
0003803000
000F806000
003B00E000
01E600C000
038C018000
001C038018
0018030010
0030060010
00700E0020
00E00C0020
00C01C0060
01803800C0
0380300080
0700700180
0600E00300
0E00C00200
1C01C00618
3803800C30
7003001830
7007003060
E0060060C0
400C00C180
001C018380
0018030300
0030060600
00701C0C00
0060381C00
00C070187C
01C1E0308C
0183C07330
030780E3C0
0701FFFE00
0600018400
0C00038400
1C00070760
18000E0080
38001E0000
70003C0000
6000080000
E000000000
ENDCHAR
STARTCHAR 00BD
ENCODING 189
SWIDTH 690 0
DWIDTH 58 0
BBX 45 59 8 -7
BITMAP
000000001000
000000001800
000000003800
000000007000
000000006000
000001C0E000
00000341C000
000006C18000
00000D838000
00000F070000
00001E060000
00003C0E0000
0000781C0000
000060180000
0001C0380000
000380300000
000F80600000
003B00E00000
01E600C00000
038C01800000
001C03800000
001803038000
003006006000
00700E001000
00E00C000FE0
00C01C007830
018038018438
038030030438
070070060438
0600E0040430
0E00C0080C70
1C01C0081870
3803800830E0
7003000861C0
7007000F81C0
E00600000380
400C00000700
001C00000E00
001800001C00
003000003800
007000007000
00600000E000
00C00001C000
01C000038000
018000060000
0300001C0000
0701FC383C00
06060FE1C700
0C0801E60100
1C18037C0100
18180C1FDE00
380EF031F800
700300200000
600000200000
E00000200000
000000200000
000000100000
0000000E3000
00000001C000
ENDCHAR
STARTCHAR 00BE
ENCODING 190
SWIDTH 619 0
DWIDTH 52 0
BBX 46 54 4 -3
BITMAP
000000000038
000000000030
000380000060
0000700000E0
0000080000C0
000004000180
000006000380
00007F000300
000186E00600
000604600E00
000804700C00
00180C701C00
001018603800
003030E03000
003040C07000
001F81C0E000
00000380C000
00000701C000
0007FC038000
001818030010
00306C070030
001F8C060020
00000C0C0020
00000C1C0060
00000C180040
00001C3000C0
000018700180
000038600100
000070C00300
0000E1C00600
0001C1800C18
200703001830
600E07001060
C030060030C0
C1C00E0060C0
3E001C00C180
000018038300
000038070600
0000700E0E00
0000601C0C00
0000E0381800
0000C0E0387C
000181C07188
00038380E230
00030780C7C0
000603FFFC00
000E00038400
000C00070C00
001800060660
0038000E0180
0030001C0000
0060003C0000
00E000180000
00C000000000
ENDCHAR
STARTCHAR 00BF
ENCODING 191
SWIDTH 285 0
DWIDTH 24 0
BBX 38 58 -14 -42
BITMAP
0000000008
000000003C
0000000078
00000000F8
00000000E0
0000000000
0000000000
0000000000
0000000100
0000000300
0000000300
0000000700
0000000E00
0000001E00
0000003C00
0000007800
000000F000
000001E000
000007C000
00000F8000
00003F0000
00007E0000
0001F80000
0003F00000
0007E00000
001F800000
003F000000
007E000000
00F80FE000
01F03E7800
03E0700C00
0780E00C00
0F01800400
1E03000400
3C06000400
380E000400
700C000400
6018000C00
4018000800
C018001800
8010001000
8030002000
8030004000
8030008000
8030010000
8030060000
40100C0000
4010300000
2010C00000
100F000000
0FF8000000
0004000000
0002000000
0001000000
0000800000
0000600000
00001E0000
000001F800
ENDCHAR
STARTCHAR 00C0
ENCODING 192
SWIDTH 1416 0
DWIDTH 119 0
BBX 133 98 0 -17
BITMAP
0000000000000000700000000000000000
0000000000000007800000000000000000
0000000000000038000000000000000000
00000000000000C0000000000000000000
0000000000000300000000000000000000
0000000000000C00000000000000000000
0000000000003000000000000000000000
0000000000004000000000000000000000
000000000001800000000000000000E000
000000000003000000000000000000F800
0000000000040000000000000000001E00
00000000000800000001E0000000000780
0000000000100000003FFF8000000001E0
000000000020000001F001E00000000030
00000000006000000F8000700000000008
0000000000C000003E0000300000000000
0000000000800000F80000180000000000
0000000001000001E00000180000000000
0000000003000003C00000180000000780
000000000200000F800000180000003F00
000000000600001E00000018000000FE00
000000000400003C00000010000007F800
00000000040000780000003000000CE000
000000000C00007000000020000031C000
00000000080000F0000000600000C38000
00000000080001E00000004000018E0000
00000000080003C00000008000061C0000
0000000008000380000001000008380000
0000000008000780000003000030E00000
0000000008000700000006000041C00000
0000000008000F00000018000183800000
000000000C000E0000003000020F000000
0000000004000E0000006000041C000000
0000000006001E00000180001838000000
0000000003001C00000700002070000000
0000000001801C00001C000241E0000000
0000000000C01C000070000583C0000000
0000000000601C000380001B0780000000
00000000001C1C003C0000260F00000000
000000000007FC1FC00000481E00000000
0000000000003FF0000001B03C00000000
0000000000000C00000006607800000000
0000000000000E00000008C0F000000000
000000000000060000003181E000000000
00000000000007000000C307C000000000
000000000000038000070C0F8000000000
00000000000000E00038181F0000000000
000000000000003C03C0303E0000000000
0000000000000003FC00603C0000000000
00000000000000000000C0780000000000
0000000000000000000300F00000000000
0000000000000000000601E00000000000
0000000000000000000C03C00000000000
0000000000000000001807800000000000
0000004000000000003007800000000000
00007F7F0000000000E00F000000000000
0003C0038000000001801E000000000000
000E0001C000000003001C000000000000
00380000E000000006003C000000000000
00700000600000000C0078000000000000
00C000006000001FFFF070000078000000
01800000600007E0607FE0000FDFC00000
03000000C0007C00C001F8007800600000
06000000C001E0018001DF03C000300000
0C000000800700070001C7CF0000180000
1C000001801C000C000180FC0000080000
3800000300700018000380FC0000080000
3800000400E00070000303FE0000080000
70000008018000E0000307CF0000180000
700000300300018000021F078000100000
600000C00600070000067C03C000300000
E0000F000C000C000006F801C000200000
E0000000180038000007E000E000400000
E000000018007000000FC000E000C00000
E00000001001C000003F00006001000000
E000000030030000007E00007002000000
E0000000300E000001FE0000700C000000
E00000001038000007E600003018000000
70000000107000001F8300003060000000
7000000019C000007E0300003180000000
780000000F000001F00180006600000000
380000001E00000FC000C0007800000000
1C000000E380007C00007803E000000000
0F000007807C1FC000000FFCC000000000
07C0003C0003E00000000000C000000000
01FF1FC000000000000000018000000000
001FF80000000000000000030000000000
0000000000000000000000030000000000
0000000000000000000000060000000000
00000000000000000000000C0000000000
0000000000000000000000300000000000
0000000000000000000000600000000000
0000000000000000000001C00000000000
0000000000000000000003000000000000
000000000000000000000E000000000000
0000000000000000000038000000000000
00000000000000000001C0000000000000
0000000000000000000F00000000000000
ENDCHAR
STARTCHAR 00C1
ENCODING 193
SWIDTH 1416 0
DWIDTH 119 0
BBX 140 98 0 -17
BITMAP
000000000000000070000000000000000000
000000000000000780000000000000000000
000000000000003800000000000000000000
00000000000000C000000000000000000000
000000000000030000000000000000000000
0000000000000C0000000000000000000000
000000000000300000000000000000000000
000000000000400000000000000000000000
000000000001800000000000000000000070
0000000000030000000000000000000001E0
000000000004000000000000000000000780
00000000000800000001E000000000001C00
0000000000100000003FFF80000000007000
000000000020000001F001E0000000018000
00000000006000000F800070000000000000
0000000000C000003E000030000000000000
0000000000800000F8000018000000000000
0000000001000001E0000018000000000000
0000000003000003C0000018000000078000
000000000200000F800000180000003F0000
000000000600001E00000018000000FE0000
000000000400003C00000010000007F80000
00000000040000780000003000000CE00000
000000000C00007000000020000031C00000
00000000080000F0000000600000C3800000
00000000080001E00000004000018E000000
00000000080003C00000008000061C000000
000000000800038000000100000838000000
0000000008000780000003000030E0000000
0000000008000700000006000041C0000000
0000000008000F0000001800018380000000
000000000C000E0000003000020F00000000
0000000004000E0000006000041C00000000
0000000006001E0000018000183800000000
0000000003001C0000070000207000000000
0000000001801C00001C000241E000000000
0000000000C01C000070000583C000000000
0000000000601C000380001B078000000000
00000000001C1C003C0000260F0000000000
000000000007FC1FC00000481E0000000000
0000000000003FF0000001B03C0000000000
0000000000000C0000000660780000000000
0000000000000E00000008C0F00000000000
000000000000060000003181E00000000000
00000000000007000000C307C00000000000
000000000000038000070C0F800000000000
00000000000000E00038181F000000000000
000000000000003C03C0303E000000000000
0000000000000003FC00603C000000000000
00000000000000000000C078000000000000
0000000000000000000300F0000000000000
0000000000000000000601E0000000000000
0000000000000000000C03C0000000000000
000000000000000000180780000000000000
000000400000000000300780000000000000
00007F7F0000000000E00F00000000000000
0003C0038000000001801E00000000000000
000E0001C000000003001C00000000000000
00380000E000000006003C00000000000000
00700000600000000C007800000000000000
00C000006000001FFFF07000007800000000
01800000600007E0607FE0000FDFC0000000
03000000C0007C00C001F800780060000000
06000000C001E0018001DF03C00030000000
0C000000800700070001C7CF000018000000
1C000001801C000C000180FC000008000000
3800000300700018000380FC000008000000
3800000400E00070000303FE000008000000
70000008018000E0000307CF000018000000
700000300300018000021F07800010000000
600000C00600070000067C03C00030000000
E0000F000C000C000006F801C00020000000
E0000000180038000007E000E00040000000
E000000018007000000FC000E000C0000000
E00000001001C000003F0000600100000000
E000000030030000007E0000700200000000
E0000000300E000001FE0000700C00000000
E00000001038000007E60000301800000000
70000000107000001F830000306000000000
7000000019C000007E030000318000000000
780000000F000001F0018000660000000000
380000001E00000FC000C000780000000000
1C000000E380007C00007803E00000000000
0F000007807C1FC000000FFCC00000000000
07C0003C0003E00000000000C00000000000
01FF1FC00000000000000001800000000000
001FF8000000000000000003000000000000
000000000000000000000003000000000000
000000000000000000000006000000000000
00000000000000000000000C000000000000
000000000000000000000030000000000000
000000000000000000000060000000000000
0000000000000000000001C0000000000000
000000000000000000000300000000000000
000000000000000000000E00000000000000
000000000000000000003800000000000000
00000000000000000001C000000000000000
0000000000000000000F0000000000000000
ENDCHAR
STARTCHAR 00C2
ENCODING 194
SWIDTH 1416 0
DWIDTH 119 0
BBX 136 98 0 -17
BITMAP
0000000000000000700000000000000000
0000000000000007800000000000000000
0000000000000038000000000000000000
00000000000000C0000000000000000000
0000000000000300000000000000000000
0000000000000C00000000000000000000
0000000000003000000000000000000000
0000000000004000000000000000000000
0000000000018000000000000000000078
00000000000300000000000000000001F8
000000000004000000000000000000079C
00000000000800000001E0000000001E0C
0000000000100000003FFF800000007006
000000000020000001F001E0000001C002
00000000006000000F8000700000000003
0000000000C000003E0000300000000000
0000000000800000F80000180000000000
0000000001000001E00000180000000000
0000000003000003C00000180000000780
000000000200000F800000180000003F00
000000000600001E00000018000000FE00
000000000400003C00000010000007F800
00000000040000780000003000000CE000
000000000C00007000000020000031C000
00000000080000F0000000600000C38000
00000000080001E00000004000018E0000
00000000080003C00000008000061C0000
0000000008000380000001000008380000
0000000008000780000003000030E00000
0000000008000700000006000041C00000
0000000008000F00000018000183800000
000000000C000E0000003000020F000000
0000000004000E0000006000041C000000
0000000006001E00000180001838000000
0000000003001C00000700002070000000
0000000001801C00001C000241E0000000
0000000000C01C000070000583C0000000
0000000000601C000380001B0780000000
00000000001C1C003C0000260F00000000
000000000007FC1FC00000481E00000000
0000000000003FF0000001B03C00000000
0000000000000C00000006607800000000
0000000000000E00000008C0F000000000
000000000000060000003181E000000000
00000000000007000000C307C000000000
000000000000038000070C0F8000000000
00000000000000E00038181F0000000000
000000000000003C03C0303E0000000000
0000000000000003FC00603C0000000000
00000000000000000000C0780000000000
0000000000000000000300F00000000000
0000000000000000000601E00000000000
0000000000000000000C03C00000000000
0000000000000000001807800000000000
0000004000000000003007800000000000
00007F7F0000000000E00F000000000000
0003C0038000000001801E000000000000
000E0001C000000003001C000000000000
00380000E000000006003C000000000000
00700000600000000C0078000000000000
00C000006000001FFFF070000078000000
01800000600007E0607FE0000FDFC00000
03000000C0007C00C001F8007800600000
06000000C001E0018001DF03C000300000
0C000000800700070001C7CF0000180000
1C000001801C000C000180FC0000080000
3800000300700018000380FC0000080000
3800000400E00070000303FE0000080000
70000008018000E0000307CF0000180000
700000300300018000021F078000100000
600000C00600070000067C03C000300000
E0000F000C000C000006F801C000200000
E0000000180038000007E000E000400000
E000000018007000000FC000E000C00000
E00000001001C000003F00006001000000
E000000030030000007E00007002000000
E0000000300E000001FE0000700C000000
E00000001038000007E600003018000000
70000000107000001F8300003060000000
7000000019C000007E0300003180000000
780000000F000001F00180006600000000
380000001E00000FC000C0007800000000
1C000000E380007C00007803E000000000
0F000007807C1FC000000FFCC000000000
07C0003C0003E00000000000C000000000
01FF1FC000000000000000018000000000
001FF80000000000000000030000000000
0000000000000000000000030000000000
0000000000000000000000060000000000
00000000000000000000000C0000000000
0000000000000000000000300000000000
0000000000000000000000600000000000
0000000000000000000001C00000000000
0000000000000000000003000000000000
000000000000000000000E000000000000
0000000000000000000038000000000000
00000000000000000001C0000000000000
0000000000000000000F00000000000000
ENDCHAR
STARTCHAR 00C3
ENCODING 195
SWIDTH 1416 0
DWIDTH 119 0
BBX 136 98 0 -17
BITMAP
0000000000000000700000000000000000
0000000000000007800000000000000000
0000000000000038000000000000000000
00000000000000C0000000000000000000
0000000000000300000000000000000000
0000000000000C00000000000000000000
0000000000003000000000000000000000
0000000000004000000000000000000000
0000000000018000000000000000000000
0000000000030000000000000000001800
000000000004000000000000000000FF01
00000000000800000001E0000000030FE3
0000000000100000003FFF8000000403FE
000000000020000001F001E000000000FC
00000000006000000F8000700000000000
0000000000C000003E0000300000000000
0000000000800000F80000180000000000
0000000001000001E00000180000000000
0000000003000003C00000180000000780
000000000200000F800000180000003F00
000000000600001E00000018000000FE00
000000000400003C00000010000007F800
00000000040000780000003000000CE000
000000000C00007000000020000031C000
00000000080000F0000000600000C38000
00000000080001E00000004000018E0000
00000000080003C00000008000061C0000
0000000008000380000001000008380000
0000000008000780000003000030E00000
0000000008000700000006000041C00000
0000000008000F00000018000183800000
000000000C000E0000003000020F000000
0000000004000E0000006000041C000000
0000000006001E00000180001838000000
0000000003001C00000700002070000000
0000000001801C00001C000241E0000000
0000000000C01C000070000583C0000000
0000000000601C000380001B0780000000
00000000001C1C003C0000260F00000000
000000000007FC1FC00000481E00000000
0000000000003FF0000001B03C00000000
0000000000000C00000006607800000000
0000000000000E00000008C0F000000000
000000000000060000003181E000000000
00000000000007000000C307C000000000
000000000000038000070C0F8000000000
00000000000000E00038181F0000000000
000000000000003C03C0303E0000000000
0000000000000003FC00603C0000000000
00000000000000000000C0780000000000
0000000000000000000300F00000000000
0000000000000000000601E00000000000
0000000000000000000C03C00000000000
0000000000000000001807800000000000
0000004000000000003007800000000000
00007F7F0000000000E00F000000000000
0003C0038000000001801E000000000000
000E0001C000000003001C000000000000
00380000E000000006003C000000000000
00700000600000000C0078000000000000
00C000006000001FFFF070000078000000
01800000600007E0607FE0000FDFC00000
03000000C0007C00C001F8007800600000
06000000C001E0018001DF03C000300000
0C000000800700070001C7CF0000180000
1C000001801C000C000180FC0000080000
3800000300700018000380FC0000080000
3800000400E00070000303FE0000080000
70000008018000E0000307CF0000180000
700000300300018000021F078000100000
600000C00600070000067C03C000300000
E0000F000C000C000006F801C000200000
E0000000180038000007E000E000400000
E000000018007000000FC000E000C00000
E00000001001C000003F00006001000000
E000000030030000007E00007002000000
E0000000300E000001FE0000700C000000
E00000001038000007E600003018000000
70000000107000001F8300003060000000
7000000019C000007E0300003180000000
780000000F000001F00180006600000000
380000001E00000FC000C0007800000000
1C000000E380007C00007803E000000000
0F000007807C1FC000000FFCC000000000
07C0003C0003E00000000000C000000000
01FF1FC000000000000000018000000000
001FF80000000000000000030000000000
0000000000000000000000030000000000
0000000000000000000000060000000000
00000000000000000000000C0000000000
0000000000000000000000300000000000
0000000000000000000000600000000000
0000000000000000000001C00000000000
0000000000000000000003000000000000
000000000000000000000E000000000000
0000000000000000000038000000000000
00000000000000000001C0000000000000
0000000000000000000F00000000000000
ENDCHAR
STARTCHAR 00C4
ENCODING 196
SWIDTH 1416 0
DWIDTH 119 0
BBX 134 98 0 -17
BITMAP
0000000000000000700000000000000000
0000000000000007800000000000000000
0000000000000038000000000000000000
00000000000000C0000000000000000000
0000000000000300000000000000000000
0000000000000C00000000000000000000
0000000000003000000000000000000000
0000000000004000000000000000000000
000000000001800000000000000000040C
0000000000030000000000000000001E1C
0000000000040000000000000000003C3C
00000000000800000001E0000000003878
0000000000100000003FFF800000002020
000000000020000001F001E00000000000
00000000006000000F8000700000000000
0000000000C000003E0000300000000000
0000000000800000F80000180000000000
0000000001000001E00000180000000000
0000000003000003C00000180000000780
000000000200000F800000180000003F00
000000000600001E00000018000000FE00
000000000400003C00000010000007F800
00000000040000780000003000000CE000
000000000C00007000000020000031C000
00000000080000F0000000600000C38000
00000000080001E00000004000018E0000
00000000080003C00000008000061C0000
0000000008000380000001000008380000
0000000008000780000003000030E00000
0000000008000700000006000041C00000
0000000008000F00000018000183800000
000000000C000E0000003000020F000000
0000000004000E0000006000041C000000
0000000006001E00000180001838000000
0000000003001C00000700002070000000
0000000001801C00001C000241E0000000
0000000000C01C000070000583C0000000
0000000000601C000380001B0780000000
00000000001C1C003C0000260F00000000
000000000007FC1FC00000481E00000000
0000000000003FF0000001B03C00000000
0000000000000C00000006607800000000
0000000000000E00000008C0F000000000
000000000000060000003181E000000000
00000000000007000000C307C000000000
000000000000038000070C0F8000000000
00000000000000E00038181F0000000000
000000000000003C03C0303E0000000000
0000000000000003FC00603C0000000000
00000000000000000000C0780000000000
0000000000000000000300F00000000000
0000000000000000000601E00000000000
0000000000000000000C03C00000000000
0000000000000000001807800000000000
0000004000000000003007800000000000
00007F7F0000000000E00F000000000000
0003C0038000000001801E000000000000
000E0001C000000003001C000000000000
00380000E000000006003C000000000000
00700000600000000C0078000000000000
00C000006000001FFFF070000078000000
01800000600007E0607FE0000FDFC00000
03000000C0007C00C001F8007800600000
06000000C001E0018001DF03C000300000
0C000000800700070001C7CF0000180000
1C000001801C000C000180FC0000080000
3800000300700018000380FC0000080000
3800000400E00070000303FE0000080000
70000008018000E0000307CF0000180000
700000300300018000021F078000100000
600000C00600070000067C03C000300000
E0000F000C000C000006F801C000200000
E0000000180038000007E000E000400000
E000000018007000000FC000E000C00000
E00000001001C000003F00006001000000
E000000030030000007E00007002000000
E0000000300E000001FE0000700C000000
E00000001038000007E600003018000000
70000000107000001F8300003060000000
7000000019C000007E0300003180000000
780000000F000001F00180006600000000
380000001E00000FC000C0007800000000
1C000000E380007C00007803E000000000
0F000007807C1FC000000FFCC000000000
07C0003C0003E00000000000C000000000
01FF1FC000000000000000018000000000
001FF80000000000000000030000000000
0000000000000000000000030000000000
0000000000000000000000060000000000
00000000000000000000000C0000000000
0000000000000000000000300000000000
0000000000000000000000600000000000
0000000000000000000001C00000000000
0000000000000000000003000000000000
000000000000000000000E000000000000
0000000000000000000038000000000000
00000000000000000001C0000000000000
0000000000000000000F00000000000000
ENDCHAR
STARTCHAR 00C5
ENCODING 197
SWIDTH 1416 0
DWIDTH 119 0
BBX 133 98 0 -17
BITMAP
0000000000000000700000000000000000
0000000000000007800000000000000000
0000000000000038000000000000000000
00000000000000C0000000000000000000
0000000000000300000000000000000000
0000000000000C00000000000000000000
0000000000003000000000000000000000
0000000000004000000000000000000000
0000000000018000000000000000000000
00000000000300000000000000000001F0
0000000000040000000000000000000318
00000000000800000001E0000000000618
0000000000100000003FFF800000000410
000000000020000001F001E00000000430
00000000006000000F80007000000007E0
0000000000C000003E0000300000000100
0000000000800000F80000180000000000
0000000001000001E00000180000000000
0000000003000003C00000180000000780
000000000200000F800000180000003F00
000000000600001E00000018000000FE00
000000000400003C00000010000007F800
00000000040000780000003000000CE000
000000000C00007000000020000031C000
00000000080000F0000000600000C38000
00000000080001E00000004000018E0000
00000000080003C00000008000061C0000
0000000008000380000001000008380000
0000000008000780000003000030E00000
0000000008000700000006000041C00000
0000000008000F00000018000183800000
000000000C000E0000003000020F000000
0000000004000E0000006000041C000000
0000000006001E00000180001838000000
0000000003001C00000700002070000000
0000000001801C00001C000241E0000000
0000000000C01C000070000583C0000000
0000000000601C000380001B0780000000
00000000001C1C003C0000260F00000000
000000000007FC1FC00000481E00000000
0000000000003FF0000001B03C00000000
0000000000000C00000006607800000000
0000000000000E00000008C0F000000000
000000000000060000003181E000000000
00000000000007000000C307C000000000
000000000000038000070C0F8000000000
00000000000000E00038181F0000000000
000000000000003C03C0303E0000000000
0000000000000003FC00603C0000000000
00000000000000000000C0780000000000
0000000000000000000300F00000000000
0000000000000000000601E00000000000
0000000000000000000C03C00000000000
0000000000000000001807800000000000
0000004000000000003007800000000000
00007F7F0000000000E00F000000000000
0003C0038000000001801E000000000000
000E0001C000000003001C000000000000
00380000E000000006003C000000000000
00700000600000000C0078000000000000
00C000006000001FFFF070000078000000
01800000600007E0607FE0000FDFC00000
03000000C0007C00C001F8007800600000
06000000C001E0018001DF03C000300000
0C000000800700070001C7CF0000180000
1C000001801C000C000180FC0000080000
3800000300700018000380FC0000080000
3800000400E00070000303FE0000080000
70000008018000E0000307CF0000180000
700000300300018000021F078000100000
600000C00600070000067C03C000300000
E0000F000C000C000006F801C000200000
E0000000180038000007E000E000400000
E000000018007000000FC000E000C00000
E00000001001C000003F00006001000000
E000000030030000007E00007002000000
E0000000300E000001FE0000700C000000
E00000001038000007E600003018000000
70000000107000001F8300003060000000
7000000019C000007E0300003180000000
780000000F000001F00180006600000000
380000001E00000FC000C0007800000000
1C000000E380007C00007803E000000000
0F000007807C1FC000000FFCC000000000
07C0003C0003E00000000000C000000000
01FF1FC000000000000000018000000000
001FF80000000000000000030000000000
0000000000000000000000030000000000
0000000000000000000000060000000000
00000000000000000000000C0000000000
0000000000000000000000300000000000
0000000000000000000000600000000000
0000000000000000000001C00000000000
0000000000000000000003000000000000
000000000000000000000E000000000000
0000000000000000000038000000000000
00000000000000000001C0000000000000
0000000000000000000F00000000000000
ENDCHAR
STARTCHAR 00C6
ENCODING 198
SWIDTH 1500 0
DWIDTH 126 0
BBX 145 99 0 -18
BITMAP
00000000000000007000000000000000000000
00000000000000078000000000000000000000
00000000000000380000000000000000000000
00000000000000C00000000000000000000000
00000000000003000000000000000000000000
0000000000000C000000000000000000000000
00000000000030000000000000000000000000
00000000000040000000000000000000000000
00000000000180000000000000000000000000
00000000000300000000000000000000000000
00000000000400000000000000000000000000
00000000000800000001E00000000000000000
0000000000100000003FFF8000000000000000
000000000020000001F001E000000000000000
00000000004000000F80007000000000000000
0000000000C000003E00003000000000000000
00000000008000007800001800000000000000
0000000001000001E000001800000000000000
0000000003000003C000001800000007800000
000000000200000F800000180000003F000000
000000000600001E00000018000000FFFFFE00
000000000400003C00000010000007FFC00F00
00000000040000780000003000000CFE000380
000000000800007000000020000031F0000180
00000000080000F0000000600000C3C0000180
00000000080001E00000004000018F80000180
00000000080003C00000008000061E00000180
00000000080003800000010000083C00000300
0000000008000780000003000030F000000600
0000000008000700000006000041E000000C00
0000000008000F00000018000183C000001800
000000000C000E000000300002078000003000
0000000004000E0000006000041F0000006000
0000000006001E0000018000183E0000018000
0000000003001C0000070000207E0000030000
0000000001801C00001C000240FC00000C0000
0000000000C01C000070000583F80000300000
0000000000601C000380001B07F00000C00000
00000000003C1C003C0000260FF00003000000
000000000007FC1FC00000481EE0001C000000
0000000000003FF0000001B03CE000E0000000
0000000000000C000000066078E00780000000
0000000000000E00000008C0F0E03C00000000
000000000000060000003183E0C7C000000000
00000000000007000000C307FFFC0000000000
000000000000038000070C0FFE400000000000
00000000000000E00038181F00600000000000
000000000000003C03C0303E00600000000000
0000000000000003FC00607C00300100000000
00000000000000000000C078001FFFF8000000
0000000000000000000180F000FC0018000000
0000000000000000000601E00F030038000000
0000000000000000000C03C07800FFE0000000
000000000000000000180781C0000000000000
00000040000000000030078700000000000000
00007F7F0000000000600F1C00000000000000
0003C0038000000001801E7800000000000000
000E0001C000000003001CE000000000000000
00380000E000000006003DC000000000000000
00700000600000000C007F8000000000000000
00C000006000000038007F0000000000000000
018000006000000FFFFFFE00003FFC00000000
03000000C00001F0C000FF0001E00F00000000
06000000C0000E018001F9E007800380000000
0C000000800070070001F01C1C0003C0000000
1C0000018001C00C0001F007780001C0000000
38000003000300180003E001E00001C0000000
38000004000E00700003E007E00001C0000000
70000008001800E00003C00F300001C0000000
70000030003001800003C03C180001C0000000
600000C000600700000780F80C0003C0000000
E0000F0000600C00000781E006000380000000
E000000000C038000007878002000780000000
E000000001C0700000079F0003000700000000
E00000000181C0000007BC0001000E00000000
E0000000018380000007F00001001E00000000
E0000000018E00000007E00001803C00000000
E000000001B80000000FC00001807000000000
7000000001F00000003FC0000180E000000000
7000000001C0000000FBE0000181C000000000
7800000007E0000003E1E00001070000000000
380000003C7000000F00F000011C0000000000
1C000000E038000078007C0003F00000000000
0F000007800E0007C0001F0007800000000000
07C0003C0003FFFC000007FFFE000000000000
01FE3FC0000000000000000004000000000000
001FF800000000000000000008000000000000
00000000000000000000000018000000000000
00000000000000000000000030000000000000
00000000000000000000000060000000000000
00000000000000000000000180000000000000
00000000000000000000000300000000000000
00000000000000000000000E00000000000000
00000000000000000000003800000000000000
0000000000000000000000E000000000000000
00000000000000000000038000000000000000
000000000000000000001E0000000000000000
00000000000000000000F00000000000000000
00000000000000000007800000000000000000
ENDCHAR
STARTCHAR 00C7
ENCODING 199
SWIDTH 1023 0
DWIDTH 86 0
BBX 102 98 0 -16
BITMAP
00000000300000000000000000
00000001F00000000000000000
0000000F000000000000000000
00000038000000000000000000
000000E0000000000000000000
000001C0000000000000000000
00000700000000000000000000
00000E00000000000000000000
00001C00000000000000000000
00003800000000000000000000
00007000000000000000000000
0000E000000007F00000000000
0001C0000000FFFF0000000000
000180000007C0038000000000
00038000001E0000C000000000
00070000007000006000000000
0007000000E000002000000000
000E0000018000002000000000
000E0000070000002000000000
000E00000C0000002000000000
000C00001800000060000FFFE0
001C0000300000004000FC0078
001C000060000000C007E0001C
001C0000C0000001801F00000C
001C0000C000000300FC00000C
001C00018000000603F000000C
000E00030000000C0FC000000C
000E0003000000183F0000000C
000E0006000000707C0000000C
00070004000000C1F800000018
0003800C00000303F000000018
0001C00C00000E07C000000030
0000E0080000781F8000000060
000078180003C03F00000000E0
00001F18003E007C00000000C0
000001FE3FE000F80000000180
00000011C00001F00000000300
00000030000003E00000000600
00000030000007C00000000C00
0000003000000F800000003800
0000003000001F000000007000
0000003000003E00000000C000
0000003000007E000000018000
000000100000FC000000070000
000000180000F80000000C0000
000000180001F0000000380000
000000180003E0000000600000
0000000C0007E0000001C00000
0000000C0007C0000007000000
00000006000F8000001C000000
00000003001F800000F0000000
00000001801F000003C0000000
00000000E03E00001E00000000
00000000703E0000F000000000
000000001E7C000F8000000000
0000000007FC07F80000000000
0000000000FFFF000000000000
0000000000F800000000000000
0000000001F000000000000000
0000000001F000000000000000
0000000001F0000007FE000000
000003FFC3E000003C07800000
00007E0003E00001C001C00000
0003C00003E000070000E00000
001E000003C0001C0000600000
0078000003C000700000600000
01E0000007C001C00000600000
0380000007C007000000600000
0F00000007C01E000000600000
1C000000078038000000600000
380000000780F0000000600000
380000000383C0000000C00000
7000000003C780000000C00000
6000000003DE00000001800000
E000000003FC00000003000000
E000000003F000000003000000
E000000003E000000006000000
E00000000FE00000000C000000
E00000003EF000000038000000
60000000F87800000070000000
60000003E03C000000C0000000
3000000F801E00000300000000
1800003E0007C0001C00000000
0E0001F00001FE03E000000000
03C01F8000007FFE0000000000
007FF0000000C0000000000000
00000000000080000000000000
0000000000017E000000000000
000000000001FFC00000000000
00000000000007E00000000000
00000000000001E00000000000
00000000000001E00000000000
00000000000001C00000000000
00000000000003C00000000000
00000000000007800000000000
0000000000C00E000000000000
00000000007FF8000000000000
000000000001C0000000000000
ENDCHAR
STARTCHAR 00C8
ENCODING 200
SWIDTH 1047 0
DWIDTH 88 0
BBX 110 105 0 -18
BITMAP
0000000000010000000000000000
00000000001F0000000000000000
0000000000700000000000000000
0000000003C00000000000000000
0000000007000000000000000000
000000001C000000000000000000
0000000030000000000000000000
00000000E0000000000000000000
00000001C0000000000000000000
0000000380000000000000000000
0000000700000000000000000000
0000000E00000000078000000000
0000001C00000003FFFC00000000
000000180000001F800F00000000
0000003800000078000300000000
00000070000001C0000180000000
0000007000000700000180007000
000000E000000E00000080003C00
000000E000003800000080000F00
000000C0000070000001800003C0
000001C00000E000000100000070
000001C00001800000030000001C
000001C000030000000600000000
000001C000060000000C00000000
000001C000060000001800000000
000001C0000C0000003000000000
000001C000180000006000FFFF00
000000E00010000000C00FE00380
000000E00030000003007F0000C0
00000070002000000E01F80000E0
00000078006000001807E0000060
0000003C00600000E01FC00000E0
0000001E00400003803F000000C0
0000000700C0001C007E000000C0
00000001E0C001E000F800000180
000000003FC0FE0001F000000300
0000000001FF000003E000000600
0000000000C0000007C000000C00
0000000000C000000F8000001800
0000000000C000000F0000003000
0000000000C000001F000000C000
0000000000C000001E0000038000
00000000006000003C0000060000
00000000006000003C0000180000
0000000000300000780000600000
0000000000180000780003800000
00000000000C000070000E000000
0000000000070000700070000000
0000000000038000700780000000
000000000000F000607C00000000
0000000000003FF9FFC000000000
00000000000001FFE00000000000
0000000000000000300000000000
0000000000000000300000000000
0000000000000000180180000000
00000000000000000FFEFC000000
00000000000000007E000C000000
000000000000000781801C000000
000000000000003C007FF0000000
00000000000000E0000000000000
0000000000000380000000000000
0000000000000E00000000000000
0000000000003C00000000000000
0000000000007000000000000000
000000000000E000000000000000
000000000003C000000000000000
0000000000078000000000000000
000007FFFFFF00001FFE00000000
0000F800001F8000F00780000000
00070000003CF803C001C0000000
0038000000380E0F0001E0000000
00E00000007803BC0000E0000000
0180000000F000F00000E0000000
0700000000F003F00000E0000000
0C00000001E007980000E0000000
1800000001E01E0C0000E0000000
3000000003C078060001E0000000
7000000003C0F0030001C0000000
6000000003C3C0010003C0000000
E000000003CF8001800380000000
C000000003DE0000800700000000
C000000003F80000800F00000000
C000000003F00000C01E00000000
C000000007E00000C03800000000
E00000001FE00000C07000000000
600000007DF00000C1E000000000
70000001F0F00000838000000000
38000007807800008E0000000000
1C00003C003E0001F80000000000
070003E0000F8003C00000000000
01FFFE000003FFFF000000000000
0000000000000002000000000000
0000000000000004000000000000
000000000000000C000000000000
0000000000000018000000000000
0000000000000030000000000000
0000000000000060000000000000
0000000000000180000000000000
0000000000000700000000000000
0000000000000C00000000000000
0000000000003000000000000000
000000000001C000000000000000
00000000000F0000000000000000
0000000000780000000000000000
0000000003C00000000000000000
ENDCHAR
STARTCHAR 00C9
ENCODING 201
SWIDTH 1047 0
DWIDTH 88 0
BBX 112 105 0 -18
BITMAP
0000000000010000000000000000
00000000001F0000000000000000
0000000000700000000000000000
0000000003C00000000000000000
0000000007000000000000000000
000000001C000000000000000000
0000000030000000000000000000
00000000E0000000000000000000
00000001C0000000000000000000
0000000380000000000000000000
0000000700000000000000000000
0000000E00000000078000000000
0000001C00000003FFFC00000000
000000180000001F800F00000000
0000003800000078000300000000
00000070000001C0000180000000
0000007000000700000180000007
000000E000000E0000008000001E
000000E000003800000080000078
000000C0000070000001800001E0
000001C00000E000000100000700
000001C000018000000300001C00
000001C000030000000600000000
000001C000060000000C00000000
000001C000060000001800000000
000001C0000C0000003000000000
000001C000180000006000FFFF00
000000E00010000000C00FE00380
000000E00030000003007F0000C0
00000070002000000E01F80000E0
00000078006000001807E0000060
0000003C00600000E01FC00000E0
0000001E00400003803F000000C0
0000000700C0001C007E000000C0
00000001E0C001E000F800000180
000000003FC0FE0001F000000300
0000000001FF000003E000000600
0000000000C0000007C000000C00
0000000000C000000F8000001800
0000000000C000000F0000003000
0000000000C000001F000000C000
0000000000C000001E0000038000
00000000006000003C0000060000
00000000006000003C0000180000
0000000000300000780000600000
0000000000180000780003800000
00000000000C000070000E000000
0000000000070000700070000000
0000000000038000700780000000
000000000000F000607C00000000
0000000000003FF9FFC000000000
00000000000001FFE00000000000
0000000000000000300000000000
0000000000000000300000000000
0000000000000000180180000000
00000000000000000FFEFC000000
00000000000000007E000C000000
000000000000000781801C000000
000000000000003C007FF0000000
00000000000000E0000000000000
0000000000000380000000000000
0000000000000E00000000000000
0000000000003C00000000000000
0000000000007000000000000000
000000000000E000000000000000
000000000003C000000000000000
0000000000078000000000000000
000007FFFFFF00001FFE00000000
0000F800001F8000F00780000000
00070000003CF803C001C0000000
0038000000380E0F0001E0000000
00E00000007803BC0000E0000000
0180000000F000F00000E0000000
0700000000F003F00000E0000000
0C00000001E007980000E0000000
1800000001E01E0C0000E0000000
3000000003C078060001E0000000
7000000003C0F0030001C0000000
6000000003C3C0010003C0000000
E000000003CF8001800380000000
C000000003DE0000800700000000
C000000003F80000800F00000000
C000000003F00000C01E00000000
C000000007E00000C03800000000
E00000001FE00000C07000000000
600000007DF00000C1E000000000
70000001F0F00000838000000000
38000007807800008E0000000000
1C00003C003E0001F80000000000
070003E0000F8003C00000000000
01FFFE000003FFFF000000000000
0000000000000002000000000000
0000000000000004000000000000
000000000000000C000000000000
0000000000000018000000000000
0000000000000030000000000000
0000000000000060000000000000
0000000000000180000000000000
0000000000000700000000000000
0000000000000C00000000000000
0000000000003000000000000000
000000000001C000000000000000
00000000000F0000000000000000
0000000000780000000000000000
0000000003C00000000000000000
ENDCHAR
STARTCHAR 00CA
ENCODING 202
SWIDTH 1047 0
DWIDTH 88 0
BBX 109 105 0 -18
BITMAP
0000000000010000000000000000
00000000001F0000000000000000
0000000000700000000000000000
0000000003C00000000000000000
0000000007000000000000000000
000000001C000000000000000000
0000000030000000000000000000
00000000E0000000000000000000
00000001C0000000000000000000
0000000380000000000000000000
0000000700000000000000000000
0000000E00000000078000000000
0000001C00000003FFFC00000000
000000180000001F800F00000000
0000003800000078000300000000
00000070000001C0000180000080
00000070000007000001800003C0
000000E000000E00000080000FE0
000000E000003800000080003C60
000000C00000700000018000E070
000001C00000E000000100038030
000001C0000180000003000C0018
000001C000030000000600000008
000001C000060000000C00000000
000001C000060000001800000000
000001C0000C0000003000000000
000001C000180000006000FFFF00
000000E00010000000C00FE00380
000000E00030000003007F0000C0
00000070002000000E01F80000E0
00000078006000001807E0000060
0000003C00600000E01FC00000E0
0000001E00400003803F000000C0
0000000700C0001C007E000000C0
00000001E0C001E000F800000180
000000003FC0FE0001F000000300
0000000001FF000003E000000600
0000000000C0000007C000000C00
0000000000C000000F8000001800
0000000000C000000F0000003000
0000000000C000001F000000C000
0000000000C000001E0000038000
00000000006000003C0000060000
00000000006000003C0000180000
0000000000300000780000600000
0000000000180000780003800000
00000000000C000070000E000000
0000000000070000700070000000
0000000000038000700780000000
000000000000F000607C00000000
0000000000003FF9FFC000000000
00000000000001FFE00000000000
0000000000000000300000000000
0000000000000000300000000000
0000000000000000180180000000
00000000000000000FFEFC000000
00000000000000007E000C000000
000000000000000781801C000000
000000000000003C007FF0000000
00000000000000E0000000000000
0000000000000380000000000000
0000000000000E00000000000000
0000000000003C00000000000000
0000000000007000000000000000
000000000000E000000000000000
000000000003C000000000000000
0000000000078000000000000000
000007FFFFFF00001FFE00000000
0000F800001F8000F00780000000
00070000003CF803C001C0000000
0038000000380E0F0001E0000000
00E00000007803BC0000E0000000
0180000000F000F00000E0000000
0700000000F003F00000E0000000
0C00000001E007980000E0000000
1800000001E01E0C0000E0000000
3000000003C078060001E0000000
7000000003C0F0030001C0000000
6000000003C3C0010003C0000000
E000000003CF8001800380000000
C000000003DE0000800700000000
C000000003F80000800F00000000
C000000003F00000C01E00000000
C000000007E00000C03800000000
E00000001FE00000C07000000000
600000007DF00000C1E000000000
70000001F0F00000838000000000
38000007807800008E0000000000
1C00003C003E0001F80000000000
070003E0000F8003C00000000000
01FFFE000003FFFF000000000000
0000000000000002000000000000
0000000000000004000000000000
000000000000000C000000000000
0000000000000018000000000000
0000000000000030000000000000
0000000000000060000000000000
0000000000000180000000000000
0000000000000700000000000000
0000000000000C00000000000000
0000000000003000000000000000
000000000001C000000000000000
00000000000F0000000000000000
0000000000780000000000000000
0000000003C00000000000000000
ENDCHAR
STARTCHAR 00CB
ENCODING 203
SWIDTH 1047 0
DWIDTH 88 0
BBX 108 105 0 -18
BITMAP
0000000000010000000000000000
00000000001F0000000000000000
0000000000700000000000000000
0000000003C00000000000000000
0000000007000000000000000000
000000001C000000000000000000
0000000030000000000000000000
00000000E0000000000000000000
00000001C0000000000000000000
0000000380000000000000000000
0000000700000000000000000000
0000000E00000000078000000000
0000001C00000003FFFC00000000
000000180000001F800F00000000
0000003800000078000300000000
00000070000001C0000180000000
0000007000000700000180001830
000000E000000E00000080007870
000000E00000380000008000F8F0
000000C00000700000018000F0E0
000001C00000E000000100000000
000001C000018000000300000000
000001C000030000000600000000
000001C000060000000C00000000
000001C000060000001800000000
000001C0000C0000003000000000
000001C000180000006000FFFF00
000000E00010000000C00FE00380
000000E00030000003007F0000C0
00000070002000000E01F80000E0
00000078006000001807E0000060
0000003C00600000E01FC00000E0
0000001E00400003803F000000C0
0000000700C0001C007E000000C0
00000001E0C001E000F800000180
000000003FC0FE0001F000000300
0000000001FF000003E000000600
0000000000C0000007C000000C00
0000000000C000000F8000001800
0000000000C000000F0000003000
0000000000C000001F000000C000
0000000000C000001E0000038000
00000000006000003C0000060000
00000000006000003C0000180000
0000000000300000780000600000
0000000000180000780003800000
00000000000C000070000E000000
0000000000070000700070000000
0000000000038000700780000000
000000000000F000607C00000000
0000000000003FF9FFC000000000
00000000000001FFE00000000000
0000000000000000300000000000
0000000000000000300000000000
0000000000000000180180000000
00000000000000000FFEFC000000
00000000000000007E000C000000
000000000000000781801C000000
000000000000003C007FF0000000
00000000000000E0000000000000
0000000000000380000000000000
0000000000000E00000000000000
0000000000003C00000000000000
0000000000007000000000000000
000000000000E000000000000000
000000000003C000000000000000
0000000000078000000000000000
000007FFFFFF00001FFE00000000
0000F800001F8000F00780000000
00070000003CF803C001C0000000
0038000000380E0F0001E0000000
00E00000007803BC0000E0000000
0180000000F000F00000E0000000
0700000000F003F00000E0000000
0C00000001E007980000E0000000
1800000001E01E0C0000E0000000
3000000003C078060001E0000000
7000000003C0F0030001C0000000
6000000003C3C0010003C0000000
E000000003CF8001800380000000
C000000003DE0000800700000000
C000000003F80000800F00000000
C000000003F00000C01E00000000
C000000007E00000C03800000000
E00000001FE00000C07000000000
600000007DF00000C1E000000000
70000001F0F00000838000000000
38000007807800008E0000000000
1C00003C003E0001F80000000000
070003E0000F8003C00000000000
01FFFE000003FFFF000000000000
0000000000000002000000000000
0000000000000004000000000000
000000000000000C000000000000
0000000000000018000000000000
0000000000000030000000000000
0000000000000060000000000000
0000000000000180000000000000
0000000000000700000000000000
0000000000000C00000000000000
0000000000003000000000000000
000000000001C000000000000000
00000000000F0000000000000000
0000000000780000000000000000
0000000003C00000000000000000
ENDCHAR
STARTCHAR 00CC
ENCODING 204
SWIDTH 904 0
DWIDTH 76 0
BBX 132 77 0 -4
BITMAP
0000000000000000000000000000010000
000000000000000000000000000003C000
000000000000000000000000000000F000
0000000000000000000000000000003C00
0000000000000000000000000000000700
00000000000000000000000000000001C0
0000000000000000000000000000000070
0000000000000000000000000000000000
0000000000000000000000000000000000
0000000000000000000000000000000000
0000000000000000000000000000000000
000000000000000000000000000000FF80
00000000000000000000000000000F0080
0000000000000000000000000000700080
0000000000000000000000000001C00080
0000000000000000000000000007000100
000000000000000000000000001C000E00
000000000000000000000000003807F000
00000000000000000000000000FFFE0000
000000000000000000000003FFFC000000
0000000000000000000001FFC780000000
000000000000000000003FC00E00000000
00000000000000000001F0001C00000000
0000000000000000000F00007800000000
0000000000000000003C0000F000000000
000000000000000000E00001E000000000
000000000000000001C00003C000000000
0000000000000000030000078000000000
00000000000000000600000F0000000000
00000000000000000C00003E0000000000
00000000000000001C00007C0000000000
0000000000000000180000F80000000000
0000000000000000180001F00000000000
0000000000000000300003E00000000000
0000000000000000300007C00000000000
000000000000000030000F800000000000
000000000000000030001F000000000000
000000000000000030003E000000000000
0000000000000000187FFF000000000000
00000000000000001FC0F9800000000000
00000000000000007E01F1800000000000
00000000000000038703E3000000000000
000000000000000E01FFFC000000000000
0000000000000030001FC0000000000000
00000000000000C0001F00000000000000
0000000000000300003E00000000000000
0000000000000600007C00000000000000
000000000000180000F800000000000000
000000000000300001F000000000000000
000000000000600003E000000000000000
000000000000C00007C000000000000000
00000000000180000F8000000000000000
00000000000300003F0000000000000000
00000000000600007E0000000000000000
0000000000040000FC0000000000000000
00000000000C0001F80000000000000000
0000000000180003F00000000000000000
0000000000100007C00000000000000000
000000000030000F800000000000000000
000000000020003F000000000000000000
000000000020007E000000000000000000
30000000004000FC000000000000000000
70000000004001F0000000000000000000
E0000000004007E0000000000000000000
8000000000400FC0000000000000000000
8000000000401F00000000000000000000
8000000000407E00000000000000000000
800000000040F800000000000000000000
C00000000043F000006000000000000000
400000000047C00001C000000000000000
60000000007F0000030000000000000000
38000000007C00000E0000000000000000
1C00000003F00000380000000000000000
070000000F8C0000E00000000000000000
01E000007C070007800000000000000000
003F800FE003E0FC000000000000000000
0001FFF800007FC0000000000000000000
ENDCHAR
STARTCHAR 00CD
ENCODING 205
SWIDTH 904 0
DWIDTH 76 0
BBX 137 76 0 -3
BITMAP
000000000000000000000000000000000380
000000000000000000000000000000000F00
000000000000000000000000000000003C00
00000000000000000000000000000000E000
000000000000000000000000000000038000
0000000000000000000000000000000E0000
000000000000000000000000000000000000
000000000000000000000000000000000000
000000000000000000000000000000000000
000000000000000000000000000000000000
000000000000000000000000000000FF8000
00000000000000000000000000000F008000
000000000000000000000000000070008000
0000000000000000000000000001C0008000
000000000000000000000000000700010000
000000000000000000000000001C000E0000
000000000000000000000000003807F00000
00000000000000000000000000FFFE000000
000000000000000000000003FFFC00000000
0000000000000000000001FFC78000000000
000000000000000000003FC00E0000000000
00000000000000000001F0001C0000000000
0000000000000000000F0000780000000000
0000000000000000003C0000F00000000000
000000000000000000E00001E00000000000
000000000000000001C00003C00000000000
000000000000000003000007800000000000
00000000000000000600000F000000000000
00000000000000000C00003E000000000000
00000000000000001C00007C000000000000
0000000000000000180000F8000000000000
0000000000000000180001F0000000000000
0000000000000000300003E0000000000000
0000000000000000300007C0000000000000
000000000000000030000F80000000000000
000000000000000030001F00000000000000
000000000000000030003E00000000000000
0000000000000000187FFF00000000000000
00000000000000001FC0F980000000000000
00000000000000007E01F180000000000000
00000000000000038703E300000000000000
000000000000000E01FFFC00000000000000
0000000000000030001FC000000000000000
00000000000000C0001F0000000000000000
0000000000000300003E0000000000000000
0000000000000600007C0000000000000000
000000000000180000F80000000000000000
000000000000300001F00000000000000000
000000000000600003E00000000000000000
000000000000C00007C00000000000000000
00000000000180000F800000000000000000
00000000000300003F000000000000000000
00000000000600007E000000000000000000
0000000000040000FC000000000000000000
00000000000C0001F8000000000000000000
0000000000180003F0000000000000000000
0000000000100007C0000000000000000000
000000000030000F80000000000000000000
000000000020003F00000000000000000000
000000000020007E00000000000000000000
30000000004000FC00000000000000000000
70000000004001F000000000000000000000
E0000000004007E000000000000000000000
8000000000400FC000000000000000000000
8000000000401F0000000000000000000000
8000000000407E0000000000000000000000
800000000040F80000000000000000000000
C00000000043F00000600000000000000000
400000000047C00001C00000000000000000
60000000007F000003000000000000000000
38000000007C00000E000000000000000000
1C00000003F0000038000000000000000000
070000000F8C0000E0000000000000000000
01E000007C07000780000000000000000000
003F800FE003E0FC00000000000000000000
0001FFF800007FC000000000000000000000
ENDCHAR
STARTCHAR 00CE
ENCODING 206
SWIDTH 904 0
DWIDTH 76 0
BBX 130 76 0 -4
BITMAP
0000000000000000000000000000000C00
0000000000000000000000000000003E00
000000000000000000000000000000F600
0000000000000000000000000000078300
00000000000000000000000000001E0300
0000000000000000000000000000700180
0000000000000000000000000000400080
00000000000000000000000000000000C0
0000000000000000000000000000000000
0000000000000000000000000000000000
000000000000000000000000000000FF80
00000000000000000000000000000F0080
0000000000000000000000000000700080
0000000000000000000000000001C00080
0000000000000000000000000007000100
000000000000000000000000001C000E00
000000000000000000000000003807F000
00000000000000000000000000FFFE0000
000000000000000000000003FFFC000000
0000000000000000000001FFC780000000
000000000000000000003FC00E00000000
00000000000000000001F0001C00000000
0000000000000000000F00007800000000
0000000000000000003C0000F000000000
000000000000000000E00001E000000000
000000000000000001C00003C000000000
0000000000000000030000078000000000
00000000000000000600000F0000000000
00000000000000000C00003E0000000000
00000000000000001C00007C0000000000
0000000000000000180000F80000000000
0000000000000000180001F00000000000
0000000000000000300003E00000000000
0000000000000000300007C00000000000
000000000000000030000F800000000000
000000000000000030001F000000000000
000000000000000030003E000000000000
0000000000000000187FFF000000000000
00000000000000001FC0F9800000000000
00000000000000007E01F1800000000000
00000000000000038703E3000000000000
000000000000000E01FFFC000000000000
0000000000000030001FC0000000000000
00000000000000C0001F00000000000000
0000000000000300003E00000000000000
0000000000000600007C00000000000000
000000000000180000F800000000000000
000000000000300001F000000000000000
000000000000600003E000000000000000
000000000000C00007C000000000000000
00000000000180000F8000000000000000
00000000000300003F0000000000000000
00000000000600007E0000000000000000
0000000000040000FC0000000000000000
00000000000C0001F80000000000000000
0000000000180003F00000000000000000
0000000000100007C00000000000000000
000000000030000F800000000000000000
000000000020003F000000000000000000
000000000020007E000000000000000000
30000000004000FC000000000000000000
70000000004001F0000000000000000000
E0000000004007E0000000000000000000
8000000000400FC0000000000000000000
8000000000401F00000000000000000000
8000000000407E00000000000000000000
800000000040F800000000000000000000
C00000000043F000006000000000000000
400000000047C00001C000000000000000
60000000007F0000030000000000000000
38000000007C00000E0000000000000000
1C00000003F00000380000000000000000
070000000F8C0000E00000000000000000
01E000007C070007800000000000000000
003F800FE003E0FC000000000000000000
0001FFF800007FC0000000000000000000
ENDCHAR
STARTCHAR 00CF
ENCODING 207
SWIDTH 904 0
DWIDTH 76 0
BBX 130 75 0 -3
BITMAP
000000000000000000000000000001C1C0
000000000000000000000000000003C380
0000000000000000000000000000078780
0000000000000000000000000000070700
0000000000000000000000000000000000
0000000000000000000000000000000000
0000000000000000000000000000000000
0000000000000000000000000000000000
0000000000000000000000000000000000
000000000000000000000000000000FF80
00000000000000000000000000000F0080
0000000000000000000000000000700080
0000000000000000000000000001C00080
0000000000000000000000000007000100
000000000000000000000000001C000E00
000000000000000000000000003807F000
00000000000000000000000000FFFE0000
000000000000000000000003FFFC000000
0000000000000000000001FFC780000000
000000000000000000003FC00E00000000
00000000000000000001F0001C00000000
0000000000000000000F00007800000000
0000000000000000003C0000F000000000
000000000000000000E00001E000000000
000000000000000001C00003C000000000
0000000000000000030000078000000000
00000000000000000600000F0000000000
00000000000000000C00003E0000000000
00000000000000001C00007C0000000000
0000000000000000180000F80000000000
0000000000000000180001F00000000000
0000000000000000300003E00000000000
0000000000000000300007C00000000000
000000000000000030000F800000000000
000000000000000030001F000000000000
000000000000000030003E000000000000
0000000000000000187FFF000000000000
00000000000000001FC0F9800000000000
00000000000000007E01F1800000000000
00000000000000038703E3000000000000
000000000000000E01FFFC000000000000
0000000000000030001FC0000000000000
00000000000000C0001F00000000000000
0000000000000300003E00000000000000
0000000000000600007C00000000000000
000000000000180000F800000000000000
000000000000300001F000000000000000
000000000000600003E000000000000000
000000000000C00007C000000000000000
00000000000180000F8000000000000000
00000000000300003F0000000000000000
00000000000600007E0000000000000000
0000000000040000FC0000000000000000
00000000000C0001F80000000000000000
0000000000180003F00000000000000000
0000000000100007C00000000000000000
000000000030000F800000000000000000
000000000020003F000000000000000000
000000000020007E000000000000000000
30000000004000FC000000000000000000
70000000004001F0000000000000000000
E0000000004007E0000000000000000000
8000000000400FC0000000000000000000
8000000000401F00000000000000000000
8000000000407E00000000000000000000
800000000040F800000000000000000000
C00000000043F000006000000000000000
400000000047C00001C000000000000000
60000000007F0000030000000000000000
38000000007C00000E0000000000000000
1C00000003F00000380000000000000000
070000000F8C0000E00000000000000000
01E000007C070007800000000000000000
003F800FE003E0FC000000000000000000
0001FFF800007FC0000000000000000000
ENDCHAR
STARTCHAR 00D0
ENCODING 208
SWIDTH 1154 0
DWIDTH 97 0
BBX 134 82 0 -8
BITMAP
0000000000000007E00000000000000000
00000000000003FFFE0000000000000000
0000000000003E00078000000000000000
000000000001E00001E000000000000000
0000000000070000007000000000000000
0000000000380000003000000000000000
0000000000E00000001800000000000000
0000000003800000000800000000000000
000000000E000000000C00000000000000
0000000018000000003FFFE00000000000
000000006000000007FF07FE00000FFF00
00000001800000007F86000F8000F001C0
0000000300000003FC060001E003800060
000000040000000FE0060000700E000030
000000180000003F000600001C38000018
00000030000000FC000600000EE0000008
00000000000003F00004000007C000000C
00000000000007E000040000070000000C
0000000000001F80000400001F8000000C
0000000000003E00000C00003CC000000C
0000000000007C000008000078C0000008
000000000000F80000080001E060000018
000000000001E00000180003C060000018
000000000003C000001000078060000030
00000000000780000030000F0070000020
00000000000700000020003E0030000040
00000000000E00000060007C0030000080
00000000001C0000004000F80030000100
0000000000180000008001F00030000600
0000000000380000018003E00030001800
0000000000300000030007C00070000000
000000000060000006000F800070000000
00000000006000000C001F000070000000
000000000040000018003E000070000000
0000000000C0000030007C000070000000
00000000008000006000F80000F0000000
0000000000800001C001F00000E0000000
00000000008000030003E00000E0000000
000000000080000E0007C00001E0000000
0000000000400038000F800001E0000000
00000000006001E0001F000003C0000000
0000000000380F80003E000003C0000000
00000000001FFE00007C000003C0000000
000000000001E00000F800000780000000
000000000000000001F000000F80000000
000000000000000003E000000F00000000
000000000000000007C000001F00000000
00000000000000000F8000001E00000000
00000000000000001F0000003E00000000
00000000000000003E0000007C00000000
0000000000003FFFFFFFF8007800000000
0000000000000000F8000000F800000000
0000000000000001F0000001F000000000
0000000000000003E0000003E000000000
0000000000000007C0000007E000000000
000000000000000F8000000FC000000000
000000000000001F0000001F8000000000
000000000000007E0000003F0000000000
00000000000000FC0000007E0000000000
00000000000001F8000000FC0000000000
00000000000003F0000001F80000000000
00000000000007C0000003F00000000000
0000000000000F80000007E00000000000
0000000000001F0000000FC00000000000
0000000000007E0000003F000000000000
000000000000FC0000007E000000000000
000000000001F0000001FC000000000000
000000000003E0000003F0000000000000
00000000000FC000000FE0000000000000
00000000001F0000001F80000000000000
3FFF8000003E0000007E00000000000000
6003F80000FC000001F800000000000000
C0003F8001F000000FE000000000000000
C00003F807C000003F0000000000000000
C000003F8F800001F80000000000000000
E0000003FE00001FC00000000000000000
70000001FFE00FFC000000000000000000
7C000007E3FFFF00000000000000000000
3F00003F80000000000000000000000000
0FE001FC00000000000000000000000000
03FFFFE000000000000000000000000000
00FFFE0000000000000000000000000000
ENDCHAR
ENDFONT
